<svg xmlns="http://www.w3.org/2000/svg" xmlns:xlink="http://www.w3.org/1999/xlink" width="112" height="112" viewBox="0 0 112 112">
    <defs>
        <rect id="b" width="80" height="80" rx="14"/>
        <filter id="a" width="160%" height="160%" x="-30%" y="-30%" filterUnits="objectBoundingBox">
            <feOffset in="SourceAlpha" result="shadowOffsetOuter1"/>
            <feGaussianBlur in="shadowOffsetOuter1" result="shadowBlurOuter1" stdDeviation="8"/>
            <feColorMatrix in="shadowBlurOuter1" values="0 0 0 0 0.521568627 0 0 0 0 0.568627451 0 0 0 0 0.690196078 0 0 0 0.32 0"/>
        </filter>
        <linearGradient id="c" x1="89.219%" x2="12.612%" y1="13.619%" y2="83.599%">
            <stop offset="0%" stop-color="#9EFBD3"/>
            <stop offset="100%" stop-color="#45D4FB"/>
        </linearGradient>
    </defs>
    <g fill="none" fill-rule="evenodd" transform="translate(16 16)">
        <use fill="#000" filter="url(#a)" xlink:href="#b"/>
        <use fill="#FFF" xlink:href="#b"/>
        <rect width="66" height="66" x="7" y="7" fill="url(#c)" rx="14"/>
        <g transform="translate(21.935 27.097)">
            <rect width="38.182" height="1.815" x="1.818" y="1.815" fill="#FFF" rx=".907"/>
            <path fill="#FFF" d="M0 10.887c0 10.021 8.14 18.145 18.182 18.145 10.041 0 18.182-8.124 18.182-18.145H0z"/>
            <rect width="18.182" height="1.815" x="9.091" y="27.218" fill="#FFEBD5" rx=".907"/>
            <path fill="#FFEBD5" d="M9.09 0a3.636 3.636 0 0 1 3.637 3.636v7.251H5.455v-7.25A3.636 3.636 0 0 1 9.09 0z"/>
            <path fill="#FFF" d="M9.09 1.815c1.005 0 1.82.814 1.82 1.818v7.254H7.272V3.633c0-1.004.814-1.818 1.818-1.818z"/>
            <rect width="38.182" height="1.815" x="1.818" y="5.444" fill="#FFF" rx=".907"/>
        </g>
    </g>
</svg>
