<svg xmlns="http://www.w3.org/2000/svg" xmlns:xlink="http://www.w3.org/1999/xlink" width="112" height="112" viewBox="0 0 112 112">
    <defs>
        <rect id="b" width="80" height="80" rx="40"/>
        <filter id="a" width="160%" height="160%" x="-30%" y="-30%" filterUnits="objectBoundingBox">
            <feOffset in="SourceAlpha" result="shadowOffsetOuter1"/>
            <feGaussianBlur in="shadowOffsetOuter1" result="shadowBlurOuter1" stdDeviation="8"/>
            <feColorMatrix in="shadowBlurOuter1" values="0 0 0 0 0.71372549 0 0 0 0 0.752941176 0 0 0 0 0.815686275 0 0 0 0.32 0"/>
        </filter>
        <linearGradient id="c" x1="100%" x2="0%" y1="50%" y2="50%">
            <stop offset="0%" stop-color="#FFBDCB"/>
            <stop offset="100%" stop-color="#D595FF"/>
        </linearGradient>
        <path id="d" d="M0 .025h12.8v15.641a4 4 0 0 1-4 4H4a4 4 0 0 1-4-4V.025z"/>
        <path id="f" d="M2.158-2.04h12.947v14.262a3 3 0 0 1-3 3H5.158a3 3 0 0 1-3-3V-2.041z"/>
    </defs>
    <g fill="none" fill-rule="evenodd">
        <g transform="translate(16 16)">
            <use fill="#000" filter="url(#a)" xlink:href="#b"/>
            <use fill="#FFF" xlink:href="#b"/>
            <circle cx="40" cy="40" r="33" fill="url(#c)"/>
        </g>
        <g transform="translate(41.82 40.8)">
            <g transform="translate(2.158 13.098)">
                <mask id="e" fill="#fff">
                    <use xlink:href="#d"/>
                </mask>
                <use fill="#FFF" xlink:href="#d"/>
                <path fill="#44E5F3" d="M0 13.774c2.158 1.654 4.316 2.482 6.474 2.482 2.157 0 4.315-.828 6.473-2.482v1.892a4 4 0 0 1-4 4H4a4 4 0 0 1-4-4v-1.892z" mask="url(#e)"/>
            </g>
            <circle cx="11.868" cy="18.459" r="1.079" fill="#FF3C4F"/>
            <g transform="translate(12.947 2.158)">
                <mask id="g" fill="#fff">
                    <use xlink:href="#f"/>
                </mask>
                <use fill="#FFF" transform="rotate(-90 8.631 6.59)" xlink:href="#f"/>
                <path fill="#FBE7D1" d="M0 .198C-.21 3.645 2.667 5.785 8.631 6.62c8.947 1.252 8.99 3.873 8.423 5.076-.377.803-1.055 1.268-2.034 1.395H0V.198z" mask="url(#g)"/>
            </g>
            <circle cx="8.631" cy="8.748" r="8.631" fill="#5AE5F4"/>
            <circle cx="8.631" cy="8.748" r="6.474" fill="#E4FAFF"/>
        </g>
    </g>
</svg>
