<svg xmlns="http://www.w3.org/2000/svg" width="42" height="42" viewBox="0 0 42 42">
    <g fill="none" fill-rule="evenodd">
        <circle cx="21" cy="21" r="21" fill="#874DE3"/>
        <g fill="#BDA3E0">
            <path d="M22.895 22.393C22.343 25.957 19.635 28 16.131 28 12.193 28 9 24.866 9 21s3.193-7 7.131-7c1.905 0 3.575.667 4.79 1.826l-2.047 2.009c-.693-.686-1.642-1.05-2.743-1.05-2.318 0-4.197 1.94-4.197 4.214 0 2.277 1.879 4.162 4.197 4.162 1.943 0 3.415-.922 3.84-2.768h-3.84V19.58h6.747c.081.453.122.927.122 1.418 0 .488-.036.952-.105 1.394zM30 19.727h2.545v2.546H30v2.545h-2.545v-2.545h-2.546v-2.546h2.546v-2.545H30v2.545z"/>
        </g>
    </g>
</svg>
