<svg xmlns="http://www.w3.org/2000/svg" width="42" height="42" viewBox="0 0 42 42">
    <g fill="none" fill-rule="evenodd">
        <circle cx="21" cy="21" r="21" fill="#874DE3"/>
        <g fill="#BDA3E0" fill-rule="nonzero" transform="translate(13 13)">
            <path d="M11.214 0H4.758A4.764 4.764 0 0 0 0 4.758v6.456a4.764 4.764 0 0 0 4.758 4.758h6.456a4.764 4.764 0 0 0 4.758-4.758V4.758A4.764 4.764 0 0 0 11.214 0zm3.151 11.214c0 1.74-1.41 3.151-3.151 3.151H4.758a3.151 3.151 0 0 1-3.151-3.151V4.758c0-1.74 1.41-3.151 3.151-3.151h6.456c1.74 0 3.151 1.41 3.151 3.151v6.456z"/>
            <path d="M8 4C5.794 4 4 5.794 4 8s1.794 4 4 4 4-1.794 4-4-1.794-4-4-4zm0 6.444a2.444 2.444 0 1 1 0-4.888 2.444 2.444 0 0 1 0 4.888z"/>
            <circle cx="12.027" cy="3.806" r="1"/>
        </g>
    </g>
</svg>
