<svg xmlns="http://www.w3.org/2000/svg" width="105" height="32" viewBox="0 0 105 32">
    <path fill="#FFF" fill-rule="nonzero" d="M103.538 8.69a2.194 2.194 0 0 1 .92 2.428c-.22.617-8.23 20.653-16.938 20.653-2.371-.016-4.608-1.56-5.006-3.936-.123-.932-.04-1.55.4-1.55.438 0 .494.602.52.906.06.717.4 1.382.945 1.851.714.549 2.538 1.523 5.486-1.124a18.693 18.693 0 0 0 5.596-8.476c-3.978 4.499-7.283 4.457-8.448 3.84a3.813 3.813 0 0 1-1.756-3.853c.466-3.498 5.623-10.972 7.639-12.042a2.18 2.18 0 0 1 3.195 1.221c.412 1.083-.987 2.73-2.605 4.718-1.619 1.988-4.675 6.708-4.046 7.337 1.435 1.279 7.83-4.937 10.903-10.834.304-.62.696-1.126 1.32-1.348a2.153 2.153 0 0 1 1.875.21zm-72.59 14.853a2.085 2.085 0 0 1-1.974-.823 2.743 2.743 0 0 1-.302-2.331c-.344.438-.715.855-1.11 1.248-4.115 3.826-6.597 1.261-6.735-1.92v-.59c-.027-5.184 5.075-12.041 8.997-12.041a2.99 2.99 0 0 1 3.003 2.29 7.58 7.58 0 0 1 .316 2.29c0 .467-.124.727-.549.892a1.029 1.029 0 0 1-1.152-.48c-.22-.44-.335-.734-1.042-.878-1.021-.156-1.82.16-2.743.974-2.101 1.985-3.385 4.46-3.593 7.255 0 .205 0 .754.425.836 1.989.425 4.471-4.58 4.759-5.115a1.975 1.975 0 0 1 1.646-1.18 2.112 2.112 0 0 1 2.249 2.14 2.153 2.153 0 0 1-.26.836c-.453.892-1.88 3.744-1.112 3.854.768.11 4.581-4.402 5.376-5.349 2.277-2.742 2.592-2.948 2.743-2.852.713.315-5.5 10.724-8.941 10.944zm44.71-20.887c0 1.097-.508 1.687-1.372 1.687a1.275 1.275 0 0 1-1.303-1.372c-2.551.686-8.86 10.643-9.216 11.205-2.743 4.114-4.362 7-6.514 9.38-1.509 1.764-3.583 2.75-5.843 2.743-1.824-.137-2.962-.96-3.085-2.742a7.982 7.982 0 0 1-5.308 2.742 2.825 2.825 0 0 1-2.219-.838c-.58-.591-.942-1.388-.91-2.258.108-5.465 4.117-13.416 6.667-17.16 1.92-2.811 4.019-1.522 4.485-.233a2.853 2.853 0 0 1-.466 2.647c-3.196 3.868-8.572 13.193-7.708 14.647.204.34.601.51.988.425 2.47-.72 4.882-5.609 6.76-9.6a2.052 2.052 0 0 1 2.054-1.358c.724.069 1.135.587 1.371 1.182a1.989 1.989 0 0 1-.174 1.808c-1.796 2.908-4.037 7.148-2.057 7.9 1.187.45 3.147-2.31 3.936-3.484 1.288-1.915 2.694-3.926 4.197-6.254.744-1.152 8.118-12.26 11.63-13.344 2.098-.63 4.086.59 4.086 2.277zm.548 20.887a2.085 2.085 0 0 1-1.975-.823 2.743 2.743 0 0 1-.302-2.331c-.344.438-.715.855-1.11 1.248-4.115 3.826-6.597 1.261-6.734-1.92v-.59c-.028-5.184 5.074-12.041 8.996-12.041a2.99 2.99 0 0 1 3.004 2.29 7.58 7.58 0 0 1 .315 2.29c0 .467-.123.727-.549.892a1.029 1.029 0 0 1-1.152-.48c-.219-.44-.335-.734-1.042-.878-1.021-.156-1.819.16-2.743.974-2.101 1.985-3.385 4.46-3.593 7.255 0 .205 0 .754.425.836 1.989.425 4.471-4.58 4.76-5.115a1.975 1.975 0 0 1 1.645-1.18 2.112 2.112 0 0 1 2.249 2.14 2.153 2.153 0 0 1-.26.836c-.453.892-1.88 3.744-1.111 3.854.768.11 4.58-4.402 5.376-5.349 2.276-2.742 2.592-2.948 2.742-2.852.714.315-5.499 10.724-8.941 10.944zM8.457 24.914c7.09-1.07 19.474-.192 21.943 1.372a2.743 2.743 0 0 1 1.344 3.058c-.302 1.11-1.083 2.25-1.893 2.414-.305.08-.63.025-.891-.151-.549-.425-.123-.864 0-1.029.123-.164-.014-.329-.37-.425-7.066-1.497-13.852-1.628-21.616-1.124-1.002.083-4.441.407-4.441 1.206 0 .343.452.138.685.604a.607.607 0 0 1-.13.708c-.231.187-.503.21-.826.225-.776 0-1.146-.225-1.375-.508-.869-1.133-.93-2.722 0-3.84.824-.887 1.963-1.46 3.168-1.673a58.203 58.203 0 0 1 5.993-15.62 64.677 64.677 0 0 1 4.347-7.16c1.866-2.084 3.507-1.364 4.362-.576.473.394 1.755 1.893 0 4.115C17 8.73 10.789 17.838 8.457 24.914z"/>
</svg>
