<svg xmlns="http://www.w3.org/2000/svg" width="44" height="44" viewBox="0 0 44 44">
    <g fill="none" fill-rule="evenodd">
        <circle cx="22" cy="22" r="22" fill="#FFF"/>
        <path fill="#323C5A" d="M23.007 14.539v9.517a.96.96 0 0 1-1.921 0v-9.54l-1.426 1.698a.96.96 0 1 1-1.471-1.234l3.047-3.633a.959.959 0 0 1 .765-.342.96.96 0 0 1 .832.338l3.048 3.632a.96.96 0 1 1-1.472 1.235l-1.402-1.671zm6.362 18.46H14.64A2.551 2.551 0 0 1 12 30.556V20.44a2.551 2.551 0 0 1 2.641-2.442h1.641a1 1 0 0 1 0 2.001h-1.64c-.37 0-.641.23-.641.44v10.118c0 .21.26.44.64.44H29.37c.38 0 .64-.23.64-.44V20.44c0-.21-.26-.44-.64-.44h-1.641a1 1 0 0 1 0-2.002h1.64A2.551 2.551 0 0 1 32 20.44v10.117a2.551 2.551 0 0 1-2.631 2.441z"/>
    </g>
</svg>
