<svg xmlns="http://www.w3.org/2000/svg" width="42" height="42" viewBox="0 0 42 42">
    <g fill="none" fill-rule="evenodd">
        <circle cx="21" cy="21" r="21" fill="#874DE3"/>
        <path fill="#BDA3E0" fill-rule="nonzero" d="M27.607 12.102l-19.161 7.58c-.62.246-.583 1.15.056 1.342l4.869 1.46 1.817 5.853a.831.831 0 0 0 1.395.339l2.517-2.61 4.94 3.681c.604.45 1.465.116 1.618-.63L28.93 13.24c.16-.777-.594-1.425-1.323-1.137zm-2.402 3.524l-8.9 7.99a.488.488 0 0 0-.159.31l-.343 3.092c-.01.1-.15.114-.18.017l-1.41-4.612a.489.489 0 0 1 .205-.556l10.51-6.618c.242-.152.49.186.277.377z"/>
    </g>
</svg>
