<svg xmlns="http://www.w3.org/2000/svg" width="42" height="42" viewBox="0 0 42 42">
    <g fill="none" fill-rule="evenodd">
        <circle cx="21" cy="21" r="21" fill="#874DE3"/>
        <path fill="#BDA3E0" fill-rule="nonzero" d="M31.6 16.67s-.214-1.503-.867-2.166c-.83-.868-1.76-.873-2.186-.924-3.054-.22-7.638-.22-7.638-.22s-4.585 0-7.638.22c-.426.051-1.356.056-2.186.925-.654.662-.867 2.166-.867 2.166S10 18.14 10 19.905v2.182c0 1.765.218 3.3.218 3.3s.213 1.503.867 2.167c.83.869 1.92.842 2.406.933 1.745.166 7.418.145 7.418.145s4.584.066 7.638-.155c.426-.05 1.356-.054 2.186-.924.653-.662.866-2.166.866-2.166s.22-1.534.22-3.299v-2.183c0-1.766-.22-3.234-.22-3.234zM18 23.91v-5.818L23.818 21 18 23.91z"/>
    </g>
</svg>
