<?xml version="1.0" encoding="UTF-8"?>
<!DOCTYPE svg PUBLIC "-//W3C//DTD SVG 1.1//EN" "http://www.w3.org/Graphics/SVG/1.1/DTD/svg11.dtd">
<!-- Creator: CorelDRAW X8 -->
<svg xmlns="http://www.w3.org/2000/svg" xml:space="preserve" width="73.128mm" height="63.168mm" version="1.1" style="shape-rendering:geometricPrecision; text-rendering:geometricPrecision; image-rendering:optimizeQuality; fill-rule:evenodd; clip-rule:evenodd"
viewBox="0 0 7313 6317"
 xmlns:xlink="http://www.w3.org/1999/xlink">
 <defs>
  <style type="text/css">
   <![CDATA[
    .str1 {stroke:#008DD2;stroke-width:7.62}
    .str0 {stroke:gray;stroke-width:7.62}
    .fil1 {fill:#008DD2}
    .fil0 {fill:gray}
   ]]>
  </style>
 </defs>
 <g id="Слой_x0020_1">
  <metadata id="CorelCorpID_0Corel-Layer"/>
  <g id="_504410568">
   <path class="fil0 str0" d="M960 97c91,0 165,68 165,151 0,84 -74,152 -165,152 -91,0 -165,-68 -165,-152 0,-83 74,-151 165,-151zm-268 -97l2253 0c100,102 93,245 93,339l0 157c0,141 -90,255 -224,281l0 152c0,39 -73,123 -116,123l-146 2c-46,0 -119,-80 -119,-125l0 -133 -615 0 -614 0 0 133c0,45 -73,125 -119,124l-146 -1c-43,-1 -116,-84 -116,-123l0 -153c-134,-25 -225,-139 -225,-281l0 -157c0,-93 -6,-236 94,-338l0 0 0 0zm1985 97c-91,0 -165,68 -165,152 0,83 74,151 165,151 91,0 165,-68 165,-151 0,-84 -74,-152 -165,-152zm-859 36l567 0c13,0 23,10 23,23l0 0c0,13 -10,23 -23,23l-567 0 -566 0c-13,0 -23,-11 -23,-23l0 0c0,-13 10,-23 23,-23l566 0zm0 92l572 0c12,0 23,10 23,23l0 0c0,12 -11,23 -23,23l-572 0 -571 -1c-12,0 -23,-10 -23,-22l0 0c0,-13 11,-23 23,-23l571 0zm0 91l576 0c13,0 23,11 23,23l0 0c0,13 -10,23 -23,23l-576 0 -575 0c-13,0 -23,-10 -23,-23l0 0c0,-12 10,-23 23,-23l575 0zm0 189l265 0c57,0 103,47 103,104l0 0c0,56 -46,103 -103,103l-265 0 -264 0c-57,0 -103,-47 -103,-104l0 0c0,-56 46,-103 103,-103l264 0z"/>
   <path class="fil0 str0" d="M2941 6317l-2249 0c48,-48 118,-86 223,-106l-202 0c-35,0 -65,-18 -77,-40 -32,-54 -21,-136 41,-136l169 0c11,0 28,14 34,20l46 58c0,0 81,-631 386,-631l179 0c29,-85 99,-217 197,-217l129 1 129 0c98,0 168,131 196,216l180 0c305,0 386,632 386,631l46 -57c5,-7 23,-20 34,-20l168 0c63,0 74,82 42,136 -12,21 -42,40 -77,40l-202 0c105,19 175,58 222,105l0 0 0 0zm-1227 -962l0 33 -31 0 0 130 -55 0 0 -130 -32 0 0 -33 118 0zm96 0l31 163 -56 0 -3 -29 -19 0 -3 29 -56 0 27 -163 79 0zm-29 105c-3,-18 -5,-41 -8,-69 -6,32 -9,55 -10,69l18 0zm185 -105l-19 72 29 91 -50 0c-6,-16 -12,-36 -17,-59 -1,10 -3,21 -6,33l-5 26 -52 0 20 -91 -20 -72 52 0c1,4 3,12 6,23 2,8 4,15 5,22l12 -45 45 0zm72 0l0 163 -55 0 0 -163 55 0zm-221 240l388 1c242,0 354,343 390,609l-778 7 -778 -7c36,-266 148,-610 390,-610l388 0z"/>
   <path class="fil0 str0" d="M4628 97c91,0 165,68 165,151 0,84 -74,152 -165,152 -91,0 -165,-68 -165,-152 0,-83 74,-151 165,-151zm-268 -97l2253 0c100,102 94,245 94,339l0 157c0,141 -91,255 -225,281l0 152c0,39 -73,123 -116,123l-146 2c-46,0 -119,-80 -119,-125l0 -133 -614 0 -615 0 0 133c0,45 -73,125 -119,124l-146 -1c-43,-1 -116,-84 -116,-123l0 -153c-133,-25 -224,-139 -224,-281l0 -157c0,-93 -6,-236 93,-338l0 0 0 0zm1985 97c-91,0 -165,68 -165,152 0,83 74,151 165,151 91,0 165,-68 165,-151 0,-84 -74,-152 -165,-152zm-858 36l566 0c13,0 23,10 23,23l0 0c0,13 -10,23 -23,23l-566 0 -567 0c-12,0 -23,-11 -23,-23l0 0c0,-13 11,-23 23,-23l567 0zm0 92l571 0c13,0 23,10 23,23l0 0c0,12 -10,23 -23,23l-571 0 -571 -1c-13,0 -23,-10 -23,-22l0 0c0,-13 10,-23 23,-23l571 0zm0 91l575 0c13,0 23,11 23,23l0 0c0,13 -10,23 -23,23l-575 0 -576 0c-13,0 -23,-10 -23,-23l0 0c0,-12 10,-23 23,-23l576 0zm0 189l264 0c57,0 103,47 103,104l0 0c0,56 -46,103 -103,103l-264 0 -265 0c-57,0 -103,-47 -103,-104l0 0c0,-56 46,-103 103,-103l265 0z"/>
   <path class="fil0 str0" d="M6610 6317l-2249 0c47,-48 117,-86 222,-106l-202 0c-35,0 -65,-18 -77,-40 -32,-54 -21,-136 42,-136l168 0c11,0 29,14 34,20l47 58c0,0 80,-631 385,-631l180 0c28,-85 98,-217 196,-217l129 1 130 0c98,0 167,131 196,216l180 0c304,0 385,632 385,631l46 -57c6,-7 23,-20 34,-20l169 0c62,0 73,82 42,136 -13,21 -42,40 -78,40l-202 0c105,19 175,58 223,105l0 0 0 0zm-1227 -962l0 33 -32 0 0 130 -54 0 0 -130 -33 0 0 -33 119 0zm95 0l31 163 -55 0 -3 -29 -20 0 -3 29 -56 0 28 -163 78 0zm-29 105c-2,-18 -5,-41 -8,-69 -5,32 -9,55 -10,69l18 0zm185 -105l-19 72 29 91 -50 0c-6,-16 -11,-36 -17,-59 -1,10 -3,21 -5,33l-5 26 -53 0 20 -91 -20 -72 52 0c2,4 3,12 6,23 2,8 4,15 5,22l12 -45 45 0zm72 0l0 163 -54 0 0 -163 54 0zm-221 240l388 1c242,0 354,343 390,609l-778 7 -777 -7c35,-266 147,-610 389,-610l388 0z"/>
   <path class="fil0 str0" d="M0 3954l0 -85 265 0c56,0 103,-46 103,-103l0 0c0,-57 -47,-103 -103,-103l-265 0 0 -143 576 0c12,0 23,-10 23,-23l0 0c0,-13 -11,-23 -23,-23l-576 0 0 -46 571 0c13,0 23,-10 23,-23l0 0c0,-12 -10,-23 -23,-23l-571 0 0 -45 567 0c12,0 23,-11 23,-23l0 0c0,-13 -11,-23 -23,-23l-567 0 0 -241 778 -7c-36,-266 -148,-609 -390,-609l-388 0 0 -77 24 0 -24 -125 0 -128 129 0c98,0 168,132 196,217l180 0c305,0 386,631 386,631l46 -58c5,-6 23,-20 34,-20l168 0c63,0 74,82 42,136 -12,22 -42,40 -77,40l-202 0c331,63 318,309 318,446l0 157c0,142 -91,256 -225,281l0 153c0,39 -73,122 -116,123l-145 1c-46,1 -119,-80 -119,-124l0 -133 -615 0 0 0 0 0zm149 -1760l-19 72 29 91 -50 0c-6,-16 -12,-36 -17,-60 -1,11 -3,22 -6,33l-4 27 -53 0 20 -91 -20 -72 52 0c1,4 3,12 6,22 2,8 4,16 5,22l12 -44 45 0zm72 0l0 163 -54 0 0 -163 54 0zm637 1061c-91,0 -165,68 -165,151 0,84 74,152 165,152 92,0 166,-68 166,-152 0,-83 -74,-151 -166,-151z"/>
   <path class="fil1 str1" d="M2797 3255c92,0 165,67 165,151 0,84 -73,151 -165,151 -91,0 -165,-67 -165,-151 0,-84 74,-151 165,-151zm756 -1061l0 32 -32 0 0 131 -54 0 0 -131 -32 0 0 -32 118 0zm96 0l31 163 -56 0 -3 -29 -19 0 -3 29 -56 0 27 -163 79 0zm-29 105c-3,-19 -5,-42 -8,-69 -6,31 -9,54 -11,69l19 0zm185 -105l-19 72 29 91 -50 0c-6,-16 -12,-36 -17,-60 -1,11 -3,22 -6,33l-5 27 -52 0 19 -91 -19 -72 52 0c1,4 3,12 6,22 2,8 4,16 5,22l12 -44 45 0zm72 0l0 163 -55 0 0 -163 55 0zm637 1061c-91,0 -165,68 -165,151 0,84 74,152 165,152 92,0 165,-68 165,-152 0,-83 -73,-151 -165,-151zm281 -381l-168 0c-11,0 -29,14 -34,20l-46 58c0,0 -81,-631 -386,-631l-180 0c-28,-85 -98,-217 -196,-217l-129 0 -129 0c-99,0 -168,132 -197,216l-180 0c-304,0 -385,632 -385,632l-46 -58c-6,-7 -23,-20 -34,-20l-169 0c-62,0 -73,82 -41,136 12,21 42,40 77,40l202 0c-332,63 -318,308 -318,446l0 157c0,142 91,256 225,281l0 153c0,39 73,122 115,123l146 1c46,1 119,-80 119,-124l0 -133 615 0 614 0 0 133c0,44 74,125 120,124l145 -1c43,-1 116,-84 116,-123l0 -153c134,-25 225,-139 225,-281l0 -157c0,-137 13,-383 -318,-446l202 0c35,0 65,-18 77,-40 32,-54 21,-136 -42,-136l0 0 0 0zm-1139 -440l388 0c242,0 354,343 389,609l-777 7 -778 -7c36,-266 148,-609 390,-609l388 0zm0 857l566 0c13,0 23,10 23,23l0 0c0,12 -10,23 -23,23l-566 0 -567 -1c-12,0 -23,-10 -23,-23l0 0c0,-12 11,-22 23,-22l567 0zm0 91l571 0c13,0 23,11 23,23l0 0c0,13 -10,23 -23,23l-571 0 -571 0c-13,0 -23,-10 -23,-23l0 0c0,-12 10,-23 23,-23l571 0zm0 92l576 0c12,0 23,10 23,23l0 0c0,13 -11,23 -23,23l-576 0 -576 0c-13,0 -23,-10 -23,-23l0 0c0,-13 10,-23 23,-23l576 0zm0 189l264 0c57,0 104,46 104,103l0 0c0,57 -47,103 -104,103l-264 0 -265 0c-56,0 -103,-46 -103,-103l0 0c0,-57 47,-103 103,-103l265 0z"/>
   <path class="fil0 str0" d="M6456 3256c91,0 165,68 165,152 0,83 -74,151 -165,151 -91,0 -165,-68 -165,-151 0,-84 74,-152 165,-152zm857 -1150l0 120 -6 -31 -78 0 -27 163 56 0 3 -29 19 0 3 29 30 0 0 78 -386 0c-242,0 -354,343 -390,609l776 7 0 240 -565 0c-13,0 -23,10 -23,23l0 0c0,13 10,23 23,23l565 0 0 46 -570 0c-12,0 -22,10 -22,23l0 0c0,12 10,23 22,23l570 0 0 46 -574 0c-13,0 -23,10 -23,22l0 0c0,13 10,23 23,23l574 1 0 142 -263 0c-57,0 -103,47 -103,104l0 0c0,56 46,103 103,103l263 0 0 84 -613 0 0 133c0,45 -73,125 -119,125l-146 -2c-43,0 -116,-84 -116,-123l0 -152c-133,-26 -224,-140 -224,-281l0 -157c0,-138 -14,-384 318,-446l-202 0c-36,0 -65,-19 -78,-40 -32,-54 -21,-136 42,-136l169 0c11,0 28,13 33,19l47 58c0,1 81,-631 385,-631l180 0c29,-85 98,-216 196,-216l128 0 0 0 0 0zm-101 89l0 33 -32 0 0 130 -54 0 0 -130 -32 0 0 -33 118 0zm67 105c-3,-18 -6,-41 -9,-69 -5,32 -8,55 -10,69l19 0z"/>
  </g>
 </g>
</svg>
