<?xml version="1.0" encoding="UTF-8" standalone="no"?>
<svg width="21px" height="21px" viewBox="0 0 21 21" version="1.1" xmlns="http://www.w3.org/2000/svg" xmlns:xlink="http://www.w3.org/1999/xlink">
    <!-- Generator: Sketch 41.2 (35397) - http://www.bohemiancoding.com/sketch -->
    <title>Viber-black</title>
    <desc>Created with Sketch.</desc>
    <defs></defs>
    <g id="20-Dec" stroke="none" stroke-width="1" fill="none" fill-rule="evenodd">
        <g id="Artboard-Copy-4" transform="translate(-717.000000, -3865.000000)" fill="#FFFFFF">
            <g id="Group-13" transform="translate(514.000000, 3864.000000)">
                <g id="Group-11" transform="translate(203.000000, 1.000000)">
                    <path d="M10.5,21 C16.2989899,21 21,16.2989899 21,10.5 C21,4.70101013 16.2989899,0 10.5,0 C4.70101013,0 0,4.70101013 0,10.5 C0,16.2989899 4.70101013,21 10.5,21 Z M11.1288543,16.7229491 C11.8428137,16.633843 12.4197769,16.4618485 13.0528056,16.1530764 C13.6754175,15.8484341 14.0738947,15.5603909 14.6010655,15.0361095 C15.0950261,14.5408277 15.3689917,14.1657279 15.6595393,13.5834241 C16.0642627,12.7710726 16.2946397,11.8053906 16.33405,10.7423048 C16.3486026,10.379667 16.3382244,10.298824 16.2551871,10.1952258 C16.0974652,9.99418547 15.7508445,10.0273801 15.6325714,10.2532405 C15.5951905,10.3278506 15.5848123,10.3920635 15.5723623,10.6822061 C15.551602,11.1277517 15.5205021,11.4157948 15.4582251,11.7598071 C15.21333,13.1088558 14.5657835,14.1864568 13.5322058,14.9594346 C12.6709066,15.6059783 11.7805329,15.9209832 10.6141642,15.9893603 C10.2198229,16.012154 10.1513382,16.0266461 10.062101,16.0950425 C9.89603035,16.2256025 9.88775859,16.5322904 10.0475484,16.6752777 C10.1450998,16.764403 10.2135806,16.7768303 10.5518911,16.7664678 C10.7283053,16.7602541 10.9877183,16.7395291 11.1288543,16.7229491 L11.1288543,16.7229491 Z M6.38440883,16.4991343 C6.45706402,16.4742758 6.56913332,16.4162611 6.63347824,16.3748072 C7.02778488,16.1136874 8.12570742,14.7107613 8.48477434,14.0103095 C8.6902206,13.6103666 8.75870141,13.3140258 8.69439499,13.0943598 C8.62794362,12.8581177 8.51798077,12.7337714 8.02608812,12.3379582 C7.82891748,12.1784101 7.64419298,12.014694 7.61516094,11.9711715 C7.54043781,11.8634052 7.48022877,11.652037 7.48022877,11.5028322 C7.48233522,11.1567552 7.70646996,10.5288486 8.00119196,10.045998 C8.22946259,9.67091363 8.63832184,9.19016627 9.0430452,8.82127632 C9.5183173,8.38607401 9.93755476,8.08977161 10.4107589,7.85557506 C11.0188567,7.55303594 11.3903737,7.47636106 11.6622675,7.60275291 C11.7307483,7.63384428 11.8033688,7.67529816 11.8262317,7.69392376 C11.8469534,7.71258782 12.0067818,7.9073953 12.1811242,8.12288935 C12.5173283,8.54566049 12.5941193,8.61403767 12.8244964,8.69278121 C13.1171505,8.79224976 13.4160084,8.76532646 13.7169342,8.61197286 C13.9452433,8.49384026 14.4433436,8.18507209 14.7650297,7.96127266 C15.1884031,7.66493181 16.0932947,6.92719037 16.2157807,6.78003505 C16.4316052,6.51478558 16.468986,6.17496064 16.3236756,5.79983781 C16.1700896,5.40406302 15.57237,4.66215735 15.1552005,4.34508764 C14.7774797,4.05910931 14.5097604,3.94931285 14.1569319,3.93271746 C13.8663843,3.91822148 13.7460047,3.94307997 13.3744878,4.09643357 C10.460582,5.29629677 8.13401384,7.08673841 6.28685362,9.54658275 C5.32179532,10.8314031 4.58707558,12.1638872 4.08480087,13.5461114 C3.79218532,14.3522262 3.77766737,14.7024521 4.01838801,15.1148376 C4.12218169,15.2889009 4.56424737,15.7199505 4.88593347,15.9603261 C5.42141461,16.3582195 5.66837758,16.5053595 5.86554823,16.5467941 C6.00044574,16.575813 6.2349587,16.5530193 6.38440883,16.4991343 L6.38440883,16.4991343 Z M11.272062,15.2205314 C12.5318809,15.0361095 13.5073174,14.4517062 14.1465537,13.5026004 C14.5056206,12.9679487 14.7297554,12.3400422 14.8065503,11.6665522 C14.8335144,11.4199437 14.8335144,10.9702492 14.8044824,10.8956392 C14.7774797,10.8251972 14.6903105,10.7298583 14.6155835,10.6905038 C14.5346527,10.6490499 14.3624167,10.6531795 14.2669333,10.7029311 C14.1071049,10.7837395 14.0593844,10.9122346 14.0593844,11.2603764 C14.0593844,11.7970929 13.9203164,12.3628359 13.6795957,12.8021678 C13.4056301,13.3036633 13.0071568,13.7181175 12.5215065,14.0061799 C12.104337,14.2548532 11.4879289,14.4392789 10.9254836,14.4848624 C10.7220707,14.5014578 10.6100014,14.5428963 10.5332103,14.6320024 C10.4149372,14.7667111 10.4024525,14.9490721 10.5020718,15.1003378 C10.6099975,15.2681989 10.7760297,15.2951414 11.272062,15.2205314 L11.272062,15.2205314 Z M11.7141277,13.655954 C12.122987,13.5689128 12.4364013,13.4134943 12.7041207,13.1627408 C13.048635,12.8374119 13.23753,12.4436635 13.3205249,11.8779204 C13.3765596,11.5090497 13.3537314,11.3639977 13.2229736,11.2438003 C13.1005299,11.1319005 12.8743272,11.1277517 12.7373271,11.2334377 C12.6377078,11.3080478 12.6065693,11.3867913 12.5837411,11.6002244 C12.556777,11.884138 12.50695,12.0830751 12.4218834,12.26752 C12.2392268,12.6591806 11.9175407,12.8622704 11.3737878,12.9285827 C11.118476,12.9596741 11.041685,12.9886815 10.9586862,13.086066 C10.8071682,13.2663621 10.8652707,13.5585541 11.0748914,13.6663203 C11.1537889,13.7056902 11.1869954,13.709839 11.3613031,13.6994765 C11.4692327,13.693259 11.629061,13.6746142 11.7141277,13.655954 L11.7141277,13.655954 Z" id="Viber" transform="translate(10.500000, 10.500000) scale(1, -1) translate(-10.500000, -10.500000) "></path>
                </g>
            </g>
        </g>
    </g>
</svg>