<?xml version="1.0" encoding="UTF-8" standalone="no"?>
<svg width="19px" height="19px" viewBox="0 0 19 19" version="1.1" xmlns="http://www.w3.org/2000/svg" xmlns:xlink="http://www.w3.org/1999/xlink">
    <!-- Generator: Sketch 41.2 (35397) - http://www.bohemiancoding.com/sketch -->
    <title>Skype-black</title>
    <desc>Created with Sketch.</desc>
    <defs></defs>
    <g id="20-Dec" stroke="none" stroke-width="1" fill="none" fill-rule="evenodd">
        <g id="Artboard-Copy-4" transform="translate(-905.000000, -3866.000000)" fill="#FFFFFF">
            <g id="Group-13" transform="translate(514.000000, 3864.000000)">
                <g id="Group-10" transform="translate(391.000000, 2.000000)">
                    <path d="M18.4537277,11.5169536 C18.5911336,10.8980467 18.6626294,10.2571147 18.6626294,9.59856257 C18.6626294,4.66492784 14.6063617,0.664058425 9.60054092,0.664058425 C9.07325964,0.664058425 8.55603246,0.709209992 8.0510936,0.795108097 C7.24118062,0.291833304 6.2826905,0 5.25605597,0 C2.35265757,0 0,2.31924883 0,5.18251898 C0,6.13841071 0.26364064,7.03263201 0.721660395,7.80351243 C0.60212841,8.38277401 0.538452493,8.98406074 0.538452493,9.59856257 C0.538452493,14.5343998 4.59583725,18.534168 9.60054092,18.534168 C10.1680386,18.534168 10.7221308,18.4824089 11.2605833,18.3843969 C12.0012347,18.7764447 12.8457785,19 13.7450611,19 C16.6473424,19 19,16.6796499 19,13.8185823 C19,12.9915377 18.8033866,12.210746 18.4537277,11.5169536 Z M14.2488829,13.8692401 C13.8299624,14.4551093 13.2110771,14.9176375 12.4067498,15.2458123 C11.6124765,15.5717846 10.6606891,15.7380745 9.57596425,15.7380745 C8.27451787,15.7380745 7.18309031,15.5123167 6.33072672,15.0663073 C5.72189558,14.7425375 5.22030809,14.3042369 4.83936971,13.7602156 C4.45396284,13.2139918 4.25958373,12.6710717 4.25958373,12.1457717 C4.25958373,11.8197995 4.38693556,11.535675 4.63717074,11.3033096 C4.88517168,11.0720454 5.20355127,10.9564134 5.58337253,10.9564134 C5.89393227,10.9564134 6.16315851,11.0478178 6.38099718,11.2295253 C6.58989887,11.4046253 6.76863829,11.6634209 6.91274694,11.9948994 C7.07361242,12.3583145 7.24788335,12.6644642 7.43220837,12.9034371 C7.61094779,13.1369037 7.86676858,13.3318263 8.19296802,13.4849012 C8.52140169,13.6368747 8.96489887,13.7161653 9.50893697,13.7161653 C10.2585254,13.7161653 10.8729421,13.5575842 11.3343133,13.2470295 C11.7867474,12.9441836 12.0057032,12.578566 12.0057032,12.1314554 C12.0057032,11.7801542 11.8906397,11.5026372 11.6560442,11.2845882 C11.4080433,11.0577291 11.082961,10.8815279 10.6886171,10.758187 C10.2763993,10.6326436 9.71783866,10.4949864 9.02634055,10.3518229 C8.08460724,10.1535965 7.28586548,9.91902857 6.65134055,9.65142294 C6.00117592,9.37941228 5.477246,9.00168087 5.09407338,8.52924129 C4.70531515,8.04799165 4.50758467,7.44560366 4.50758467,6.73749493 C4.50758467,6.06352518 4.71425212,5.45452965 5.12311853,4.93033096 C5.52751646,4.40943604 6.11959078,4.00197067 6.88258467,3.72555498 C7.63440734,3.4513418 8.52810442,3.31258332 9.54133349,3.31258332 C10.3501294,3.31258332 11.0617357,3.40508897 11.6560442,3.58789776 C12.2537041,3.77070654 12.7564087,4.01738828 13.1518697,4.32243668 C13.550682,4.63078885 13.8478363,4.9578624 14.0332785,5.2992523 C14.2209548,5.64394598 14.3170273,5.98643714 14.3170273,6.31791572 C14.3170273,6.63728047 14.1919097,6.92801252 13.9450259,7.18020054 C13.6970249,7.43569234 13.3831138,7.5645395 13.0144638,7.5645395 C12.6793274,7.5645395 12.4156867,7.48304643 12.2347131,7.32446531 C12.0649106,7.17579551 11.8884055,6.94453139 11.6929092,6.61415406 C11.4672507,6.19127108 11.193556,5.85758998 10.8796449,5.62192083 C10.5746707,5.39285921 10.0663805,5.27832841 9.36594544,5.27832841 C8.71801505,5.27832841 8.18849953,5.40607431 7.79638993,5.66046485 C7.41880292,5.90384281 7.23447789,6.18466354 7.23447789,6.51724338 C7.23447789,6.7198748 7.29368532,6.89056976 7.41656867,7.03593578 C7.54392051,7.19231438 7.72601129,7.32666783 7.95613829,7.44119863 C8.19408514,7.55903321 8.43985183,7.65374138 8.68561853,7.71981684 C8.93697084,7.78919608 9.35924271,7.89161305 9.93902869,8.02376398 C10.6729774,8.17794007 11.3466016,8.35304005 11.9420273,8.54135513 C12.5463899,8.73077146 13.0669685,8.9642381 13.4937088,9.23845128 C13.9271519,9.5170695 14.2701082,9.87387701 14.5147578,10.301165 C14.7594073,10.7317568 14.8834078,11.2603605 14.8834078,11.8759636 C14.8834078,12.6116038 14.6689205,13.2822698 14.2488829,13.8692401 Z" id="Skype"></path>
                </g>
            </g>
        </g>
    </g>
</svg>