<?xml version="1.0" encoding="UTF-8" standalone="no"?>
<svg width="1690px" height="266px" viewBox="0 0 1690 266" version="1.1" xmlns="http://www.w3.org/2000/svg" xmlns:xlink="http://www.w3.org/1999/xlink">
    <!-- Generator: Sketch 41.2 (35397) - http://www.bohemiancoding.com/sketch -->
    <title>Group</title>
    <desc>Created with Sketch.</desc>
    <defs></defs>
    <g id="landing" stroke="none" stroke-width="1" fill="none" fill-rule="evenodd">
        <g transform="translate(-153.000000, -534.000000)" id="Group" fill="#FFFFFF">
            <g transform="translate(148.000000, 534.000000)">
                <ellipse id="Oval" cx="108.812616" cy="301.09375" rx="108.812616" ry="108.90625"></ellipse>
                <ellipse id="Oval-Copy-10" cx="126.414657" cy="227.421875" rx="91.2105751" ry="91.2890625"></ellipse>
                <ellipse id="Oval-Copy" cx="284.833024" cy="253.847656" rx="91.2105751" ry="91.2890625"></ellipse>
                <ellipse id="Oval-Copy-2" cx="354.441095" cy="197.792969" rx="91.2105751" ry="91.2890625"></ellipse>
                <ellipse id="Oval-Copy-12" cx="428.049629" cy="171.367188" rx="52.0060297" ry="52.0507812"></ellipse>
                <ellipse id="Oval-Copy-3" cx="535.262059" cy="237.03125" rx="134.415584" ry="134.53125"></ellipse>
                <ellipse id="Oval-Copy-4" cx="934.610158" cy="251.685547" rx="87.6101577" ry="87.6855469"></ellipse>
                <ellipse id="Oval-Copy-25" cx="1041.61016" cy="227.685547" rx="87.6101577" ry="87.6855469"></ellipse>
                <ellipse id="Oval-Copy-5" cx="689.679963" cy="203.398438" rx="69.6080705" ry="69.6679688"></ellipse>
                <ellipse id="Oval-Copy-13" cx="620.071892" cy="184.179688" rx="69.6080705" ry="69.6679688"></ellipse>
                <ellipse id="Oval-Copy-6" cx="765.688776" cy="209.804688" rx="76.0088126" ry="76.0742188"></ellipse>
                <ellipse id="Oval-Copy-14" cx="841.697588" cy="209.804688" rx="76.0088126" ry="76.0742188"></ellipse>
                <ellipse id="Oval-Copy-7" cx="1259.33094" cy="102.099609" rx="69.2080241" ry="69.2675781"></ellipse>
                <ellipse id="Oval-Copy-17" cx="840.46962" cy="158.525391" rx="69.2080241" ry="69.2675781"></ellipse>
                <ellipse id="Oval-Copy-19" cx="798.46475" cy="104.472656" rx="22.4025974" ry="22.421875"></ellipse>
                <ellipse id="Oval-Copy-20" cx="1295.33511" cy="59.6582031" rx="33.2038497" ry="33.2324219"></ellipse>
                <ellipse id="Oval-Copy-21" cx="1298.93553" cy="10.4101562" rx="10.4012059" ry="10.4101562"></ellipse>
                <ellipse id="Oval-Copy-23" transform="translate(768.061224, 73.242188) scale(-1, 1) translate(-768.061224, -73.242188) " cx="768.061224" cy="73.2421875" rx="10.4012059" ry="10.4101562"></ellipse>
                <ellipse id="Oval-Copy-22" cx="1328.93901" cy="10.8105469" rx="6.00069573" ry="6.00585938"></ellipse>
                <ellipse id="Oval-Copy-24" transform="translate(768.461271, 51.220703) scale(-1, 1) translate(-768.461271, -51.220703) " cx="768.461271" cy="51.2207031" rx="6.00069573" ry="6.00585938"></ellipse>
                <ellipse id="Oval-Copy-18" cx="535.662106" cy="152.548828" rx="69.2080241" ry="69.2675781"></ellipse>
                <ellipse id="Oval-Copy-8" cx="1190.12291" cy="206.601562" rx="104.012059" ry="104.101562"></ellipse>
                <ellipse id="Oval-Copy-9" cx="1564.41558" cy="301.09375" rx="134.415584" ry="134.53125"></ellipse>
                <ellipse id="Oval-Copy-11" cx="1288.14935" cy="253.847656" rx="89.6103896" ry="89.6875"></ellipse>
                <ellipse id="Oval-Copy-16" cx="1306.13636" cy="192.1875" rx="89.6103896" ry="89.6875"></ellipse>
                <ellipse id="Oval-Copy-15" cx="1415.3641" cy="253.847656" rx="89.6103896" ry="89.6875"></ellipse>
                <rect id="Rectangle-2" x="54" y="192" width="1536.17811" height="61.6601562"></rect>
            </g>
        </g>
    </g>
</svg>