<svg id="Layer_0_Image" data-name="Layer 0 Image" xmlns="http://www.w3.org/2000/svg" viewBox="0 0 407.53 407.44"><defs><style>.cls-1{fill:#020202}</style></defs><title>Swirl-85 (перенесено)</title><g id="Layer_2" data-name="Layer 2"><path class="cls-1" d="M478.93 267.17c.59-.79 1.25-1.54 1.76-2.38a168.72 168.72 0 0 0 24-78.29 20.8 20.8 0 0 0-17.89-21.73c-10.89-1.63-20.3 4.72-23.21 15.64l-.6-.07c-.19-5.45-4-9.3-6.27-13.81A112.74 112.74 0 0 0 438 140l-2.16-4a1.37 1.37 0 0 1-1.55-.56 1.37 1.37 0 0 0 1.55.56 9.69 9.69 0 0 0-.27-4.92 167.16 167.16 0 0 0-37.19-68.65 20.63 20.63 0 0 0-9.89-6.46c-8.28-2.28-15.61-.45-21.41 5.86-6.44 7-6.87 15.15-3.44 23.73-1.79.71-3.17-.47-4.71-1C345.56 80.09 332 76.6 317.84 76l-2-.47a9.44 9.44 0 0 0-1.13-1 164.53 164.53 0 0 0-81.46-25.27c-7-.3-12.84 3-17 8.84-6.54 9.08-5.68 25.56 10.81 32.25a11.55 11.55 0 0 1-1.94 1.5c-10.09 4.88-19.92 10.21-28.86 17-2.68 2-6 3.5-7.43 6.94l-4.91 2.28a9.19 9.19 0 0 1-2.42 3.12 9.19 9.19 0 0 0 2.42-3.12 11.13 11.13 0 0 0-4.93.24c-25.73 7.14-48.75 19.29-68.63 37.22a20.65 20.65 0 0 0-7.31 14.79c-.76 16.16 14 25.83 30.45 20 .54 2.46-.77 4.48-1.52 6.65-4.38 12.72-7.45 25.7-7.83 39.21l-1.07 2.56a16.31 16.31 0 0 0-1.22 1.55 167.28 167.28 0 0 0-24.61 79.52 20.68 20.68 0 0 0 17.75 21.4c10.9 1.69 20.38-4.57 23.33-15.42a2.91 2.91 0 0 0 .62-.06 15.1 15.1 0 0 0 .75 3.38A146 146 0 0 0 152.16 351c3.69 5.19 6.46 11.15 11.8 15 1.22 1.31.58 3.47 2.13 4.62a4.45 4.45 0 0 1 3.1 2 4.45 4.45 0 0 0-3.1-2c-.27.37-.86.83-.78 1.11 7.52 26.7 19.39 51.09 38.23 71.77 4 4.38 8.78 7.05 14.73 7.37 15.88.85 25.56-13.3 20.44-29.8 1.32-.86 2.37 0 3.64.35 13.72 4 27.33 8.6 41.89 8.49l2.81 1.08a4.12 4.12 0 0 0 .69.7 166.07 166.07 0 0 0 80.49 25c10.81.53 19.68-7.63 21.11-18.59a20.22 20.22 0 0 0-15.49-22.36 6.17 6.17 0 0 0-.16-.68 10.29 10.29 0 0 0 4.75-1.35c6.47-3.61 13.15-6.89 19.36-10.9 5.8-3.74 12-7.18 16.31-12.84 1-1.27 3.14-.27 4-1.94a24.37 24.37 0 0 0 4.44-.39c26.1-7.12 49.42-19.4 69.48-37.66a20.72 20.72 0 0 0 7-14.44c1-14.08-13.38-27.47-30.93-19.74 4.84-15 9.73-30 9.94-46.05zM274.07 119.65zm-10.8-2.89q5.08 1.17 10 2.66-4.92-1.48-9.99-2.65zm-39.12 27.32q2-.26 4.08-.48-2.03.22-4.07.49zm-32.77 166.3c-.12 3.08-.15 6.15 0 9.24-.15-3.09-.13-6.17 0-9.24zm274.68 7.7h-.25.25zm-.75.18a5.94 5.94 0 0 0-1.47.68 5.94 5.94 0 0 1 1.46-.68zm-2.11-129.43a139.11 139.11 0 0 1-7.47 45.17 139.11 139.11 0 0 0 7.46-45.18zm-25.64 25a159.33 159.33 0 0 1-5.25 18.52 159.22 159.22 0 0 0 5.24-18.55zM363.85 86.58a.54.54 0 0 1-.27-.54.54.54 0 0 0 .27.54zm-114.26-4q-5.35 1.61-10.64 3.56 5.28-1.91 10.63-3.52zM134.38 190.33a.6.6 0 0 1-.32.08.6.6 0 0 0 .32-.08zm.79-1.43a1.1 1.1 0 0 0-.31.34 1.1 1.1 0 0 1 .31-.34z" transform="translate(-97.24 -49.31)" id="Layer_3" data-name="Layer 3"/></g></svg>