<svg id="Layer_0_Image" data-name="Layer 0 Image" xmlns="http://www.w3.org/2000/svg" viewBox="0 0 407.53 407.44"><defs><style>.cls-1{fill:#ea1b3a}.cls-2{fill:#210414}.cls-3{fill:#fbfafb}.cls-4{fill:#fbfbfb}.cls-5{fill:#f5f5f6}.cls-6{fill:#242355}.cls-7{fill:#202054}.cls-8{fill:#020111}</style></defs><title>Swirl-85 (перенесено)</title><path class="cls-1" d="M418.07 388.07c-.82 1.67-2.94.67-4 1.94-1.16.1-2.33.11-3.46.32-42 7.82-81.68 2.07-118.47-20.4 1.35-1.14 2.81-.35 4.26-.32 16.08.38 31.72-1.81 46.64-8.14l1.86-.28c1.48 1 3.21.67 4.83.88 11.82 1.58 23.58.78 35.25-1.15 28.65-4.74 53.81-16.5 74.4-37.38 2-2 3.43-5 6.75-5.49.55 1.43-.35 2.54-.85 3.73a174.63 174.63 0 0 1-35.92 54.7c-3.71 3.9-7.51 7.73-11.29 11.59zM287.05 431l-2.81-1c-19.15-13.29-36.18-28.74-49.23-48.25-10.45-15.63-18.48-32.31-22.32-50.84l6.15 5.81c10.37 9.74 21.7 18 35.19 23l2.34 1.42c.12 1.61 1.17 2.73 2.13 3.87a143.71 143.71 0 0 0 51.85 38.94c20.18 9 41.43 11.95 63.33 11.2a6.17 6.17 0 0 1 .16.68 189.14 189.14 0 0 1-48.09 13.72c-12.88 1.81-25.75 1.45-38.7 1.45zM463 180.34l.6.07a192.32 192.32 0 0 1 9.45 26.65c5.47 19.7 6.52 39.82 5.85 60.11l-1 2.62c-.71.9-1.47 1.77-2.12 2.72-18.71 27.22-42.65 48.22-73.23 61.18-7.84 3.31-15.76 6.95-24.55 7.31a109.18 109.18 0 0 0 17.48-19.07c4.59-6.58 10-12.8 11.54-21.09l-.06.11 1.59-1.06 1-2.28a27.55 27.55 0 0 0 3.35-2.08 142.16 142.16 0 0 0 38.12-49.78C460.62 225 464 203.07 463 180.34zM166.09 370.68c-1.55-1.15-.91-3.31-2.13-4.62a11.81 11.81 0 0 0-.07-2 170 170 0 0 1-.87-64.94c3.33-18.15 9.09-35.4 19-51.1 1.05 2.55.61 5.24.69 7.87.46 14.38 3.15 28.24 9.29 41.34l.2 1.92a134.5 134.5 0 0 0-.43 27.31c3.28 33.78 15.82 63.12 40.6 86.79 1.78 1.71 3.79 3.26 4.62 5.74a20.24 20.24 0 0 1-2.37-.64 177.69 177.69 0 0 1-64-44c-1.35-1.35-2.22-3.44-4.53-3.67zM435.85 136l2.16 4a22.9 22.9 0 0 0 .23 3 166.35 166.35 0 0 1 .75 63.75c-3.49 19.1-9.58 37.2-20.46 53.46 1-18.05-1.15-35.58-8.44-52.29l-.35-2.21a104.12 104.12 0 0 0 .46-26.29c-2.81-30.35-13.67-57.16-34-80.12-3.47-3.92-8.49-6.48-10.47-11.72a8.58 8.58 0 0 1 1.46.31A177.55 177.55 0 0 1 433.41 134c.72.79.83 2.29 2.44 2zM123.1 238.79l1.07-2.56c15.72-23.2 35-42.68 59.69-56.35 11.07-6.13 22.45-11.64 35.08-13.93-11.36 11.48-20.69 24.36-27.06 39.28-.31.73-1 1.4 0 2.1l-2.25 3.47a41.49 41.49 0 0 0-4.05 2.83 141.13 141.13 0 0 0-35.52 48.83c-9 20.16-11.93 41.39-11.14 63.27a2.91 2.91 0 0 1-.62.06 190.14 190.14 0 0 1-13.75-48.71c-1.74-12.74-1.5-25.51-1.45-38.29zM315.89 75.58l2 .47a27.36 27.36 0 0 0 2.25 1.9c24.65 16.7 44.27 37.92 57.58 64.67 4.64 9.34 9.08 18.83 10.55 29.34-3.48-3.28-6.83-6.69-10.45-9.8-9.82-8.43-20.4-15.62-32.84-19.71l-2.24-1.5c-4.58-7.31-11.11-12.79-17.65-18.16-20.8-17.06-44.41-27.68-71.29-31-8.46-1.06-17 .21-25.34-1.31a180.68 180.68 0 0 1 87.43-14.9zm-131.95 42.58l4.91-2.28c19.85-3.56 39.77-4.93 59.84-1.89 19.69 3 38.47 8.6 55.6 19.06l-4 .18c-16.38.66-32.37 3.09-47.27 10.42l-2.27.51c-11-2.19-21.86-.85-32.72.79-27 4.08-50.83 14.84-71.2 33.23-3.63 3.28-6 8-11 9.79-.44-1.44.46-2.54 1-3.74a177.26 177.26 0 0 1 41.69-60.38c1.9-1.85 4.31-3.14 5.42-5.69z" transform="translate(-97.24 -49.31)"/><path class="cls-2" d="M378 341c8.83-.38 16.75-4 24.66-7.33 30.58-13 54.52-34 73.23-61.18.65-.94 1.41-1.81 2.12-2.72-.21 16-5.1 31-9.94 46.05L467 317c-.63.09-1 .37-1 1.09h.11c-3.33.49-4.74 3.44-6.75 5.49-20.59 20.89-45.75 32.64-74.4 37.38-11.67 1.93-23.44 2.73-35.25 1.15-1.63-.22-3.35.13-4.83-.88 7.55-3.41 15-7 21.77-11.83 2.57-1.86 6-2.91 7.23-6.34 1.58.77 2.65.26 3.32-1.3l.8-.76zm-4.32 74.1c-21.9.75-43.15-2.17-63.33-11.2a143.71 143.71 0 0 1-51.84-38.9c-1-1.14-2-2.25-2.12-3.86a124.47 124.47 0 0 0 32.65 8c.85 1.05 2 .75 3.14.8 36.79 22.47 76.46 28.21 118.47 20.4 1.13-.21 2.31-.22 3.46-.32-4.34 5.66-10.51 9.1-16.31 12.84-6.21 4-12.89 7.3-19.36 10.9a10.29 10.29 0 0 1-4.76 1.34zm44.84-154.94c10.88-16.27 17-34.38 20.46-53.47a166.35 166.35 0 0 0-.75-63.75 22.9 22.9 0 0 1-.23-3 112.74 112.74 0 0 1 18.77 26.56c2.22 4.51 6.08 8.36 6.27 13.81.95 22.73-2.42 44.66-12.11 65.43a142.16 142.16 0 0 1-38.12 49.78 27.29 27.29 0 0 1-3.35 2.08c3.8-10.58 8.32-21 7.47-32.63 3.07-.74 2.07-2.86 1.59-4.81zM237 419c-.83-2.48-2.83-4-4.62-5.74-24.78-23.68-37.32-53-40.6-86.79a134.49 134.49 0 0 1 .43-27.31c.86 1.6 1.73 3.2 2.57 4.81 4.73 9 9.75 17.75 17.16 24.87l.76 2c3.84 18.52 11.87 35.21 22.32 50.84 13 19.52 30.08 35 49.23 48.25-14.56.11-28.17-4.48-41.89-8.49-1.27-.37-2.32-1.2-3.64-.35zm151.22-247c-1.47-10.51-5.91-20-10.55-29.34-13.31-26.76-32.93-48-57.58-64.67a27.36 27.36 0 0 1-2.25-1.9c14.17.55 27.73 4 41.09 8.49 1.54.51 2.92 1.69 4.71 1v.14c-.24.57-.07.94.55 1.07l1.53.79c2 5.24 7 7.8 10.47 11.72 20.29 23 31.15 49.77 34 80.12a104.14 104.14 0 0 1-.46 26.29c-5-10.18-10.11-20.3-17.84-28.8-.08-2.55-2.21-3.5-3.67-4.91zm-249.3 153.73c-.79-21.88 2.11-43.11 11.14-63.27a141.13 141.13 0 0 1 35.52-48.83 41.21 41.21 0 0 1 4.05-2.82 130.92 130.92 0 0 0-6.9 32.25c-1.32 1.51-.56 3.31-.72 5-9.9 15.71-15.66 33-19 51.1a170 170 0 0 0 .87 64.94 11.81 11.81 0 0 1 .07 2c-5.34-3.9-8.12-9.86-11.8-15a146 146 0 0 1-12.49-21.91 15.1 15.1 0 0 1-.74-3.46zm165.37-192.68C287.16 122.6 268.38 117 248.69 114c-20.06-3-40-1.67-59.84 1.89 1.42-3.44 4.75-4.89 7.43-6.94 8.93-6.82 18.76-12.15 28.86-17a11.55 11.55 0 0 0 1.94-1.5h1.33c8.38 1.52 16.88.25 25.34 1.31 26.87 3.37 50.48 14 71.29 31 6.54 5.36 13.07 10.84 17.65 18.16a131 131 0 0 0-33.84-7.29c-1.38-1.23-3.03-.46-4.56-.58zM135.89 188c4.95-1.8 7.33-6.51 11-9.79C167.21 159.8 191.07 149 218 145c10.86-1.64 21.75-3 32.72-.79A157.76 157.76 0 0 0 222 163.09a6.8 6.8 0 0 0-3 2.86c-12.62 2.29-24 7.8-35.08 13.93-24.68 13.67-44 33.15-59.69 56.35.38-13.52 3.45-26.5 7.83-39.21.75-2.16 2.06-4.19 1.52-6.65h.13c.62.22 1 0 1.07-.64a1.06 1.06 0 0 1 .45-.78c.58-.07.9-.35.79-1z" transform="translate(-97.24 -49.31)"/><path class="cls-3" d="M135.17 188.9a1.05 1.05 0 0 0-.45.78l-1.07.64h-.13c-16.43 5.88-31.21-3.79-30.45-20a20.65 20.65 0 0 1 7.31-14.79c19.89-17.93 42.9-30.07 68.63-37.22a11.13 11.13 0 0 1 4.93-.24c-1.12 2.54-3.53 3.89-5.41 5.69a177.26 177.26 0 0 0-41.69 60.38c-.5 1.2-1.4 2.3-1 3.74l.07-.05c-.78-.04-.71.55-.74 1.07zM365.76 87.51l-1.53-.79-.55-1.07v-.14c-3.43-8.57-3-16.72 3.44-23.73 5.8-6.32 13.13-8.14 21.41-5.86a20.63 20.63 0 0 1 9.89 6.46A167.16 167.16 0 0 1 435.57 131a9.69 9.69 0 0 1 .27 4.92c-1.61.33-1.72-1.16-2.44-2a177.55 177.55 0 0 0-66.19-46.18 8.58 8.58 0 0 0-1.45-.23z" transform="translate(-97.24 -49.31)"/><path class="cls-4" d="M228.41 90.44h-1.33c-16.5-6.69-17.35-23.17-10.81-32.25 4.19-5.82 10-9.14 17-8.84a164.53 164.53 0 0 1 81.48 25.25 9.47 9.47 0 0 1 1.13 1 180.67 180.67 0 0 0-87.47 14.84z" transform="translate(-97.24 -49.31)"/><path class="cls-3" d="M467 317l1-1.17c17.55-7.73 31.89 5.65 30.93 19.74A20.72 20.72 0 0 1 492 350c-20.06 18.27-43.38 30.54-69.48 37.66a24.37 24.37 0 0 1-4.44.39c3.78-3.86 7.59-7.7 11.33-11.59a174.63 174.63 0 0 0 35.92-54.7c.5-1.19 1.4-2.3.85-3.73h-.11c.93.26.93-.43.93-1.03zM237 419l1.72 2.12c5.12 16.5-4.57 30.65-20.44 29.8-5.95-.32-10.74-3-14.73-7.37-18.85-20.68-30.71-45.07-38.23-71.77-.08-.27.5-.73.78-1.11 2.31.22 3.18 2.28 4.48 3.68a177.69 177.69 0 0 0 64 44 20.24 20.24 0 0 0 2.42.65z" transform="translate(-97.24 -49.31)"/><path class="cls-4" d="M478.93 267.17c.67-20.29-.38-40.41-5.85-60.11a192.32 192.32 0 0 0-9.45-26.65c2.91-10.93 12.32-17.27 23.21-15.64a20.8 20.8 0 0 1 17.89 21.73 168.72 168.72 0 0 1-24 78.29c-.54.84-1.21 1.59-1.8 2.38zM123.1 238.79c0 12.78-.29 25.55 1.46 38.29a190.14 190.14 0 0 0 13.75 48.71c-2.95 10.85-12.43 17.11-23.33 15.42a20.68 20.68 0 0 1-17.71-21.35 167.28 167.28 0 0 1 24.61-79.52 16.32 16.32 0 0 1 1.22-1.55z" transform="translate(-97.24 -49.31)"/><path class="cls-3" d="M287.05 431c12.92 0 25.82.32 38.7-1.54a189.14 189.14 0 0 0 48.09-13.72 20.22 20.22 0 0 1 15.49 22.36c-1.42 11-10.3 19.11-21.11 18.59a166.07 166.07 0 0 1-80.49-25 4.12 4.12 0 0 1-.68-.69z" transform="translate(-97.24 -49.31)"/><path class="cls-5" d="M343.07 361.48c-39.07-6.58-69-26.2-88-61.51-1.49-4.55-2.94-9.12-4.51-13.65-.54-1.55-1.59-3.58.37-4.17s1.76 2 2.2 3.22c3.25 9.29 7 18.28 13.7 25.74 3.41 5.86 8.49 10.14 13.76 14.15 19.07 14.52 41.25 19 64.57 19.79 9.68.34 19.19-1.15 28.77-2-1.24 3.43-4.65 4.47-7.23 6.34-6.73 4.87-14.22 8.42-21.77 11.83z" transform="translate(-97.24 -49.31)"/><path class="cls-5" d="M254 359.68c-9.35-13.63-17.11-28-20.9-44.25-4.74-20.27-4.47-40.45 1.77-60.43 2.72-6.47 5.52-12.89 10.9-17.84-4.19 10.62-9.44 20.84-10.06 32.48-2.88 17.47 1.1 33.71 9.13 49.1 9.81 18.77 23.62 34.14 40.67 46.64 2.27 1.67 2.29 1.65 3.48 3.76a124.47 124.47 0 0 1-32.65-8zm153-58.82c-7.72 4.13-14.84 9.31-22.91 12.84-27.48 12-55.45 14-84 4.33-5.51-2.82-11.16-5.43-16-9.69 2.48-1.11 4 .49 5.77 1.3 8.36 3.89 16.71 7.78 26.13 8.33 11.85 2.52 23.55 1.36 34.9-2.31 25.95-8.39 45.72-25.19 62.08-46.5 1.16-1.51 1.65-3.74 4-4.15.85 11.64-3.67 22-7.47 32.63l-1 2.28c-.88-.18-1.52 0-1.59 1.06z" transform="translate(-97.24 -49.31)"/><path class="cls-6" d="M406.92 301c.07-1 .71-1.24 1.59-1.06z" transform="translate(-97.24 -49.31)"/><path class="cls-5" d="M192 297.24c2.49-13.06 5.53-26 11.48-38 10.68-21.61 26.05-38.76 47.41-50.3A7.66 7.66 0 0 0 252 208l.31-.14a.44.44 0 0 0 .45-.17c6.89-2.76 13.77-5.54 21.56-5.25-11.72 4.8-23.85 8.79-33.28 17.74-14.09 10.72-22.17 25.39-27 42-6.33 22-6.76 44.25-2.16 66.63-7.41-7.12-12.43-15.89-17.16-24.87-.85-1.61-1.72-3.21-2.57-4.81zm218.08-89.38c-2.15 11.78-4.64 23.48-9.54 34.49-11.35 25.53-29.16 45-54.36 57.37-3 .95-6 2-9 2.8s-6.12 1.71-9.42 1c10.39-4.68 21.54-7.67 30.21-15.5 9.68-6.12 16.68-14.78 21.88-24.71 13.77-26.28 15.86-54.2 10.61-83-.3-1.66-1.42-3.28 1.43-3.48 7.72 8.5 12.83 18.62 17.84 28.8z" transform="translate(-97.24 -49.31)"/><path class="cls-5" d="M191.88 207.33c6.82-4.09 13.45-8.57 20.51-12.2C240.12 180.89 269 178 299 186.9c6.39 2.87 13 5.37 17.87 11-10.37-4-20.3-9.26-31.63-10-14.18-2.5-27.86-.46-41 5-24.6 10.17-43.58 27.19-58.52 49-1.61 2.35-1.6 2.36-3 1.28a130.92 130.92 0 0 1 6.9-32.25zm153.04-64.88c10.13 13.52 18.53 28 22.94 44.39 6.05 22.52 5.94 44.95-1.85 67.12-3.06 5.26-4.74 11.53-10.44 14.92 5.31-10.09 9.37-20.47 10.5-31.85 1.08-1.63.79-3.52.92-5.31 1.48-21.36-5.65-40.14-17.59-57.35a139 139 0 0 0-39.4-38.23c-.6-.38-3.8-.31-1.14-2.47a131 131 0 0 1 33.82 7.33z" transform="translate(-97.24 -49.31)"/><path class="cls-5" d="M253 143.66c21.88 2.94 42.35 9.55 60.25 23A113.76 113.76 0 0 1 346.94 206c.05.6.06 1.22.86 1.32l-.26-.1-.09.26c2.16 6.08 4.5 12.11 4.15 18.87-5-11.25-8.43-23.35-17.28-32.51-9.73-13.47-23.31-21.55-38.71-26.55-22.39-7.28-45.26-8.21-68.37-3.75-1.69.32-3.73 1.94-5.28-.45a157.77 157.77 0 0 1 28.81-18.92z" transform="translate(-97.24 -49.31)"/><path class="cls-1" d="M377.25 341.72l.75-.72zM467 317c-.06.59 0 1.29-1 1.09 0-.71.38-1 1-1.09z" transform="translate(-97.24 -49.31)"/><path class="cls-7" d="M363.68 85.65l.55 1.07c-.63-.13-.79-.49-.55-1.07z" transform="translate(-97.24 -49.31)"/><path class="cls-1" d="M135.17 188.9c0-.52 0-1.11.79-1 .12.65-.2.93-.79 1z" transform="translate(-97.24 -49.31)"/><path class="cls-7" d="M133.65 190.33l1.07-.64c-.09.64-.45.85-1.07.64z" transform="translate(-97.24 -49.31)"/><path class="cls-8" d="M252.33 207.9l-.33.1-.21-.7zm95.48-.58c-.8-.1-.81-.72-.86-1.32z" transform="translate(-97.24 -49.31)"/></svg>