<svg height="141.732" viewBox="0 0 141.732 141.732" width="141.732" xmlns="http://www.w3.org/2000/svg"><path d="M119.557 135.703h.014V28.998L91.207 3.297H24.895c-1.509 0-2.734 1.109-2.734 2.479 0 .043.004.084.007.126h-.007V135.83h.007c-.003.042-.007.083-.007.126 0 1.369 1.228 2.479 2.734 2.479a.814.814 0 0 0 .139-.011v.008h91.662v-.008a.806.806 0 0 0 .139.011c1.514 0 2.734-1.11 2.734-2.479 0-.086-.005-.17-.012-.253z" fill="none" stroke="#000" stroke-width="5"/><path d="M93.718 3.297h-.08v20.454h.008c-.002.037-.008.073-.008.111 0 1.209 1.113 2.188 2.492 2.188.043 0 .086-.004.127-.006v.035h23.312v-.072L93.718 3.297z" fill="none" stroke="#000" stroke-width="5"/><path d="M25.107 117.086c0 1.567 1.307 2.84 2.919 2.84h29.613c1.608 0 2.919-1.271 2.919-2.84 0-1.566-1.311-2.84-2.919-2.84H28.026c-1.612 0-2.919 1.271-2.919 2.84m-.056-11.065c0 1.484 1.338 2.691 2.984 2.691h85.656c1.648 0 2.986-1.207 2.986-2.691 0-1.488-1.338-2.695-2.986-2.695H28.037c-1.649-.001-2.986 1.206-2.986 2.695m48.509-80.75c0-1.52-1.279-2.747-2.875-2.79v-.004H28.01c-1.637 0-2.959 1.251-2.959 2.794s1.322 2.794 2.959 2.794h42.678v-.004c1.593-.043 2.872-1.274 2.872-2.79m-45.403 7.986c-1.716 0-3.104 1.206-3.104 2.694s1.39 2.696 3.104 2.696h31.521c1.715 0 3.104-1.207 3.104-2.695s-1.391-2.694-3.104-2.694l-31.521-.001zm88.523 18.864c0-1.488-1.336-2.694-2.985-2.694H28.037c-1.646 0-2.984 1.206-2.984 2.694s1.338 2.694 2.984 2.694h85.656c1.651.001 2.987-1.206 2.987-2.694m0 10.78c0-1.487-1.336-2.694-2.985-2.694H28.037c-1.646 0-2.984 1.207-2.984 2.694 0 1.488 1.338 2.691 2.984 2.691h85.656c1.651.003 2.987-1.201 2.987-2.691m0 10.781c0-1.488-1.336-2.695-2.985-2.695H28.037c-1.646 0-2.984 1.207-2.984 2.695 0 1.484 1.338 2.691 2.984 2.691h85.656c1.651.003 2.987-1.204 2.987-2.691m0 10.779c0-1.485-1.336-2.691-2.985-2.691H28.037c-1.646 0-2.984 1.206-2.984 2.691 0 1.488 1.338 2.695 2.984 2.695h85.656c1.651 0 2.987-1.207 2.987-2.695m0 10.716c0-1.449-1.336-2.631-2.985-2.631H28.037c-1.646 0-2.984 1.182-2.984 2.631 0 1.453 1.338 2.635 2.984 2.635h85.656c1.651-.004 2.987-1.182 2.987-2.635"/></svg>