<svg xmlns="http://www.w3.org/2000/svg" viewBox="0 0 100 125"><path d="M24.948 46.601c0 6.329-5.13 11.446-11.433 11.446-6.341 0-11.457-5.117-11.457-11.446-.002-6.315 5.115-11.445 11.457-11.445 6.303 0 11.433 5.13 11.433 11.445zm50.105 0c0 6.329 5.131 11.446 11.432 11.446 6.342 0 11.473-5.117 11.473-11.446-.001-6.315-5.132-11.445-11.473-11.445-6.301 0-11.432 5.13-11.432 11.445zM43.672 85.938c-.26-2.436.678-4.688 2.266-6.328-9.688-1.85-13.658-6.575-17.108-10.848-1.681-2.096-3.281-4.088-5.404-5.494-.065-.039-.143-.039-.194-.092-1.811-1.498-4.103-2.447-6.627-2.447h-6.186C4.688 60.729 0 65.404 0 71.133V100h27.018V81.342c3.945 3.45 9.52 6.731 18.086 8.164-.715-1.041-1.276-2.214-1.432-3.568zm45.926-25.209h-6.199c-2.512 0-4.816.95-6.613 2.448-.064.052-.145.052-.195.09-2.123 1.406-3.725 3.387-5.417 5.496-3.789 4.688-8.086 10.039-20.104 11.367a4.968 4.968 0 0 0-4.375 5.481 4.948 4.948 0 0 0 4.922 4.414c.183 0 .365-.015.561-.026 10.182-1.133 16.484-4.753 20.82-8.594V100H100V71.133c0-5.729-4.688-10.404-10.402-10.404zM42.729 27.671V16.22c0-2.96 2.293-5.361 5.122-5.361h11.203v-2.73c0-3.662-2.838-6.631-6.336-6.631H23.336C19.838 1.498 17 4.467 17 8.129v14.169c0 3.662 2.838 6.633 6.336 6.633h4.848v7.829c0 .432.594.737.901.375 2.312-2.734 4.619-5.468 6.931-8.203h6.862a5.516 5.516 0 0 1-.149-1.261z"/><path d="M45.637 18.108v12.783c0 2.67 2.068 4.835 4.62 4.835h12.176l5.052 5.98c.226.266.657.043.657-.271v-5.708h7.625c2.551 0 4.619-2.165 4.619-4.835V18.108c0-2.669-2.068-4.835-4.619-4.835h-25.51c-2.552-.001-4.62 2.165-4.62 4.835z"/><text y="115" font-size="5" font-weight="bold" font-family="'Helvetica Neue', Helvetica, Arial-Unicode, Arial, Sans-serif">Created by Sergi Delgado</text><text y="120" font-size="5" font-weight="bold" font-family="'Helvetica Neue', Helvetica, Arial-Unicode, Arial, Sans-serif">from the Noun Project</text></svg>