<svg xmlns="http://www.w3.org/2000/svg" width="248.084" height="214.401" viewBox="0 0 6564 5673" shape-rendering="geometricPrecision" text-rendering="geometricPrecision" image-rendering="optimizeQuality" fill-rule="evenodd" clip-rule="evenodd"><defs><style>.str1{stroke:#b2b3b3;stroke-width:20}.str0{stroke:#00f;stroke-width:7.62}.fil1{fill:#b2b3b3}.fil0{fill:#00f}</style></defs><g id="Слой_x0020_1"><g id="_466523720"><path class="fil0 str0" d="M2520 2927c82 0 148 61 148 136s-66 136-148 136-148-61-148-136 66-136 148-136zm679-952v29h-29v117h-48v-117h-29v-29h106zm85 0l28 146h-49l-3-26h-18l-2 26h-51l25-146h70zm-25 94c-3-17-5-37-8-62-5 29-8 49-9 62h17zm166-94l-17 65 26 81h-45c-6-14-11-32-15-53-2 9-3 19-6 29l-4 24h-47l18-81-18-65h47c1 4 3 11 5 20 2 7 3 14 5 20l10-40h41zm64 0v146h-49v-146h49zm573 952c-82 0-149 61-149 136s67 136 149 136 148-61 148-136-66-136-148-136zm252-341h-151c-10 0-26 12-31 18l-42 52c1 0-72-567-345-567h-162c-25-76-88-194-176-194h-116l-116-1c-88 0-151 119-176 195h-162c-273 0-346 567-346 567l-41-52c-5-6-21-18-31-18h-151c-56 0-66 73-38 122 12 19 38 36 70 36h181c-297 56-285 276-285 400v141c0 127 81 230 202 252v137c0 35 65 110 103 111l131 1c42 0 107-72 107-112v-119h1104v119c0 40 65 112 107 112l130-1c39-1 104-75 104-111v-137c121-22 202-125 202-252v-141c0-123 12-344-285-400h181c32 0 58-17 69-36 29-49 19-122-37-122zm-1023-395h348c218 0 318 308 350 547l-698 6-698-7c32-238 132-546 350-546h348zm0 768l509 1c11 0 20 9 20 20 0 12-9 21-20 21H2782c-11 0-20-10-20-21s9-21 20-21h509zm0 83h513c11 0 20 9 20 21 0 11-9 20-20 20H2778c-11 0-20-9-20-21 0-11 9-20 20-20h513zm0 82h517c11 0 20 10 20 21s-9 21-20 21h-517l-517-1c-11 0-20-9-20-20 0-12 9-21 20-21h517zm0 170h237c51 0 93 42 93 93s-42 92-93 92h-475c-50 0-92-42-92-93s42-92 92-92h238z"/><path class="fil1 str1" d="M1178 0h2023c89 92 83 220 83 304v141c0 127-81 229-201 252v137c0 35-66 110-104 110l-131 2c-41 0-107-72-107-112V715H1638v119c0 40-66 112-107 112l-131-2c-39 0-104-75-104-110V697c-120-23-202-125-202-252V304c0-84-6-212 84-304zm3286 0h2020c51 52 72 116 80 177v323c-20 102-94 179-197 198v137c0 36-65 110-104 111l-130 1c-42 1-108-71-108-112V716H4922v119c0 40-66 112-107 112l-131-1c-38-1-104-75-104-111V698c-120-22-201-125-201-252V305c0-84-6-213 85-305zm2100 1895v80h-69l-25 146h50l3-26h18l2 26h21v70h-340c-218 0-318 308-350 546l690 7v215h-501c-11 0-21 10-21 21s10 21 21 21h501v41h-505c-11 0-21 9-21 20 0 12 10 21 21 21h505v41h-509c-12 0-21 9-21 21 0 11 9 20 21 20l509 1v128h-230c-51 0-93 41-93 92s42 93 93 93h230v76h-544v119c0 40-66 112-107 112l-131-1c-38-1-104-76-104-111v-137c-120-22-202-125-202-252v-141c0-124-12-344 286-400h-181c-32 0-59-17-70-36-29-49-19-122 38-122h151c10 0 26 12 30 18l42 52s72-567 346-567h161c26-76 88-195 176-195l109 1zm-72 3778H4479c42-41 104-75 197-92h-182c-31 0-58-17-69-36-29-48-19-122 37-122h152c10 0 25 12 30 18l42 52s72-567 346-567h161c26-76 88-194 176-194h233c88 0 150 118 176 194h161c274 0 346 567 346 567l42-52c4-6 20-18 30-18h151c57 0 67 74 38 122-11 19-38 36-70 36h-181c92 18 155 51 197 92zm-3283 0H1193c42-42 105-76 198-93h-181c-32 0-58-17-70-36-28-49-18-122 38-122h151c10 0 26 12 31 18l41 52s73-567 346-567h162c25-76 88-195 176-195l116 1h116c88 0 150 118 176 194h162c273 0 345 567 345 567l42-52c5-6 20-18 30-18h152c56 0 66 73 37 122-11 19-37 36-69 36h-181c93 17 155 51 198 93zM0 3555v-76h248c51 0 92-41 92-92s-41-93-92-93H0v-128h527c12 0 21-10 21-21s-9-21-21-21H0v-41h523c11 0 21-9 21-20 0-12-10-21-21-21H0v-41h519c11 0 21-9 21-21 0-11-10-20-21-20l-509-1H0v-215h10l698-6c-32-239-132-547-350-547H0v-70h32L4 1975H0v-80h126c88 0 151 118 176 194h162c273 0 346 567 346 567l42-52c4-6 20-18 30-18h151c57 0 66 73 38 122-11 19-38 36-70 36H820c298 56 286 277 286 400v141c0 127-82 230-202 252v137c0 36-66 110-104 111l-131 1c-41 0-107-72-107-112v-119H0zM1419 87c81 0 148 61 148 136s-67 136-148 136c-82 0-149-61-149-136s67-136 149-136zm1541 0c-82 0-148 61-148 136s66 136 148 136 148-61 148-136-66-136-148-136zm-771 32h509c11 0 20 10 20 21s-9 21-20 21h-509l-508-1c-12 0-21-9-21-20s9-21 21-21h508zm0 83h513c11 0 21 9 21 20 0 12-10 21-21 21H1676c-11 0-20-9-20-21 0-11 9-20 20-20h513zm0 82h517c11 0 21 9 21 21 0 11-10 20-21 20H1672c-11 0-20-9-20-20 0-12 9-21 20-21h517zm0 170h238c51 0 92 41 92 92s-41 93-92 93h-475c-51 0-93-42-93-93s42-92 93-92h237zm-80 4357v29h-29v117h-49v-117h-28v-29h106zm85 0l28 146h-50l-2-26h-18l-2 26h-51l25-146h70zm-25 94c-3-17-5-37-8-62-5 29-8 49-9 62h17zm166-94l-17 65 26 81h-45c-6-14-11-32-15-53-2 9-3 19-6 29l-4 24h-47l18-81-18-65h47c1 4 2 11 5 20 2 7 3 14 5 20l10-40h41zm64 0v146h-49v-146h49zm-198 216h348c218 0 318 308 350 547l-698 6-698-7c32-238 132-546 350-546h348zM4703 88c82 0 148 61 148 136s-66 136-148 136-148-61-148-136 66-136 148-136zm1541 1c-81 0-148 60-148 135 0 76 67 136 148 136 82 0 149-60 149-136 0-75-67-135-149-135zm-770 32h508c12 0 21 9 21 20 0 12-9 21-21 21H4965c-11 0-20-9-20-21 0-11 9-20 20-20h509zm0 82h513c11 0 20 9 20 21 0 11-9 20-20 20H4961c-11 0-21-9-21-20 0-12 10-21 21-21h513zm0 82h517c11 0 20 10 20 21s-9 21-20 21H4957c-11 0-21-10-21-21s10-21 21-21h517zm0 170h237c51 0 93 42 93 93s-42 92-93 92h-475c-51 0-92-42-92-92 0-51 41-93 92-93h238zm-81 4357v29h-28v118h-49v-118h-29v-29h106zm86 0l28 147h-50l-3-27h-17l-3 27h-50l25-147h70zm-26 94c-2-16-5-37-7-61-5 28-8 48-9 61h16zm166-94l-17 65 26 82h-45c-5-15-10-33-15-54-1 10-3 19-5 30l-4 24h-48l18-82-18-65h47c1 4 3 11 5 20 2 8 4 14 5 20l11-40h40zm65 0v147h-49v-147h49zm-199 216h348c218 0 318 308 350 547l-698 6-698-6c33-239 133-547 350-547h348zM144 1975l-17 65 26 81h-45c-5-14-10-32-15-53-1 9-3 19-5 29l-5 24H36l18-81-18-65h47c1 4 3 11 5 20 2 7 4 14 5 20l11-40h40zm65 0v146h-49v-146h49zm572 952c-82 0-148 61-148 136s66 136 148 136 148-61 148-136-66-136-148-136zm5020 0c82 0 148 61 148 136s-66 136-148 136-148-61-148-136 66-136 148-136zm679-952v29h-29v117h-49v-117h-29v-29h107zm59 94c-2-17-5-37-7-62-5 29-8 49-9 62h16z"/></g></g></svg>