<svg xmlns="http://www.w3.org/2000/svg" width="436.963" height="377.681" viewBox="0 0 11561 9993" shape-rendering="geometricPrecision" text-rendering="geometricPrecision" image-rendering="optimizeQuality" fill-rule="evenodd" clip-rule="evenodd"><defs><style>.str0,.str1{stroke-width:7.62}.str1{stroke:#898989}.str0{stroke:#00f}.fil1{fill:#898989}.fil0{fill:#00f}</style></defs><g id="Слой_x0020_1"><g id="_594698464"><path class="fil0 str0" d="M4439 5157c144 0 261 107 261 240 0 132-117 239-261 239s-261-107-261-239c0-133 117-240 261-240zm1195-1678v52h-50v207h-86v-207h-51v-52h187zm151 0l49 259h-88l-4-47h-31l-5 47h-88l43-259h124zm-45 167c-5-30-9-66-13-109-9 49-14 86-17 109h30zm292-167l-30 115 46 144h-79c-10-26-18-58-26-95-3 17-6 34-10 53l-8 42h-83l31-144-31-115h83c2 8 5 19 9 36 3 13 6 24 9 35l18-71h71zm114 0v259h-86v-259h86zm1008 1679c-144 0-261 107-261 239s117 239 261 239 261-107 261-239-117-239-261-239zm444-602h-266c-18 0-45 21-54 31l-73 92s-128-999-609-999h-285c-45-134-155-342-310-342h-409c-155 0-265 208-310 342h-285c-481 0-609 999-609 999l-73-92c-9-10-36-32-54-32h-266c-99 0-117 130-66 216 20 33 66 63 122 63h319c-524 99-502 487-502 705v248c0 224 143 405 355 445v241c0 62 115 193 183 194l230 2c73 1 189-126 189-196v-211h972l971 1v210c0 71 116 197 189 197l230-3c68 0 183-132 183-194v-241c212-40 356-221 356-444v-249c0-217 21-606-503-705h319c56 0 103-30 122-63 51-86 34-215-66-215zm-1801-696h613c383 0 559 542 616 963l-1229 11-1230-11c57-421 233-963 616-963h614zm0 1354h895c20 0 37 16 37 36s-17 37-37 37h-895l-896-1c-20 0-37-16-37-36s17-36 37-36h896zm0 145h903c20 0 36 17 36 36 0 20-16 37-36 37H4893c-20 0-36-17-36-37s16-36 36-36h904zm0 145h910c20 0 36 17 36 37s-16 36-36 36H4886c-20 0-36-17-36-37s16-36 36-36h911zm0 299h418c90 0 163 73 163 163s-73 163-163 163h-837c-89 0-163-73-163-163s73-163 163-163h419z"/><path class="fil1 str1" d="M2076 0h3560c159 161 149 388 149 537v248c0 224-144 404-355 444v241c0 62-116 194-183 195l-231 2c-73 1-188-126-188-197v-210H2884v210c0 71-115 197-188 197l-231-3c-67 0-183-132-183-194v-241c-211-40-355-221-355-444V536c0-148-10-375 149-536zm5787 0h3556c92 92 128 205 142 313v569c-34 179-165 315-346 349v242c0 62-116 193-183 194l-230 2c-73 1-189-126-189-196v-211H8670v210c0 71-116 198-189 197l-230-2c-68-1-183-132-183-195v-241c-212-40-356-220-356-444V539c0-149-10-378 151-539zm3698 3338v141h-121l-44 259h89l4-47h31l5 47h36v122h-599c-383 0-560 542-617 963l1216 11v380h-882c-20 0-36 16-36 36s16 36 36 36l882 1v72h-889c-20 0-36 16-36 36s16 37 36 37h889v72h-896c-20 0-37 16-37 36s17 37 37 37h896v226h-404c-90 0-164 73-164 163s74 163 164 163h404v133h-958v211c0 70-115 197-188 196l-231-2c-67-1-183-132-183-194v-241c-211-40-355-221-355-445v-248c0-218-21-606 503-705h-320c-56 0-102-30-122-63-50-86-33-216 66-216h267c17 0 45 22 53 32l74 92s127-999 609-999h284c45-134 155-342 310-342h191zm-127 6655H7889c74-73 184-131 346-162h-319c-56 0-102-29-122-63-51-85-33-215 66-215h267c17 0 45 21 53 32l73 91s128-998 610-998h284c45-134 155-342 310-342h409c155 0 265 208 310 342h285c481 0 609 999 609 998l74-91c8-11 35-32 53-32h266c100 0 117 130 67 215-20 34-67 64-123 64h-319c162 30 272 88 346 161zm-5782 0H2101c75-74 185-133 349-164h-319c-56 0-103-30-122-63-51-86-33-215 66-215h266c18 0 45 21 54 31l73 92s128-999 609-999h285c45-134 155-342 310-342h409c155 0 265 209 310 342h285c481 0 609 999 609 999l73-92c9-10 36-31 54-31h266c99 0 117 130 66 215-19 34-66 63-122 63h-319c164 31 274 90 349 164zM0 6262v-133h436c90 0 164-73 164-163s-74-163-164-163H0v-226h929c20 0 36-16 36-36s-16-37-36-37H0v-72h921c20 0 37-17 37-37 0-19-17-36-37-36H0v-72h914c20 0 36-17 36-37s-16-36-36-36H0v-380h18l1230-11c-57-421-234-963-617-963H0v-122h56L7 3479H0v-141h223c155 0 265 208 310 342h284c482 0 609 999 609 999l74-92c8-10 36-31 53-31h267c99 0 117 129 66 215-20 33-66 63-122 63h-319c524 99 502 488 502 705v249c0 223-143 404-355 444v241c0 62-116 194-183 194l-231 3c-72 0-188-126-188-197v-210l-972-1H0zm10217-1105c145 0 262 107 262 240 0 132-117 239-262 239-144 0-261-107-261-239 0-133 117-240 261-240zm1196-1678v52h-51v207h-85v-207h-51v-52h187zm105 167c-4-30-8-66-13-109-9 49-14 86-16 109h29zM2499 155c144 0 261 107 261 239s-117 239-261 239c-145 0-261-107-261-239s116-239 261-239zm2714 0c-144 0-261 107-261 239s117 239 261 239c145 0 262-107 262-239s-117-239-262-239zm-1357 56h896c20 0 36 17 36 37s-16 36-36 36H2960c-20 0-36-17-36-36 0-20 16-37 36-37h896zm0 145l903 1c20 0 36 16 36 36s-16 36-36 36H2953c-20 0-36-16-36-36s16-37 36-37h903zm0 145l910 1c20 0 37 16 37 36s-17 36-37 36H2946c-20 0-37-16-37-36s17-37 37-37h910zm0 299h418c90 0 164 74 164 163 0 90-74 164-164 164h-418l-418-1c-90 0-163-73-163-163s73-163 163-163h418zm-142 7675v51h-50v207h-86v-207h-51v-51h187zm151 0l49 258h-88l-4-46h-31l-5 46h-88l43-258h124zm-46 166c-4-29-8-66-12-109-9 50-14 86-17 109h29zm293-166l-30 114 46 144h-79c-10-26-19-57-27-94-2 16-5 34-9 52l-8 42h-83l31-144-31-114h83c2 7 5 19 9 35 3 13 6 25 8 35l19-70h71zm114 0v258h-86v-258h86zm-350 380h614c383 0 559 543 616 963l-1230 11-1229-11c57-421 233-963 616-963h613zM8284 157c144 0 261 107 261 239s-117 240-261 240-261-108-261-240 117-239 261-239zm2715 0c-144 0-261 107-261 240 0 132 117 239 261 239s261-107 261-239c0-133-117-240-261-240zm-1358 57h896c20 0 36 16 36 36s-16 36-36 36H8745c-20 0-36-16-36-36s16-36 36-36h896zm0 145h903c20 0 37 16 37 36s-17 36-37 36H8738c-20 0-36-16-36-36s16-36 36-36h903zm0 145h911c20 0 36 16 36 36s-16 37-36 37h-911l-910-1c-20 0-36-16-36-36s16-36 36-36h910zm0 298l419 1c89 0 163 73 163 163s-74 163-163 163h-837c-90 0-163-74-163-163 0-90 73-164 163-164h418zm-141 7675v52h-51v206h-86v-206h-50v-52h187zm150 0l49 258h-87l-5-46h-31l-5 46h-88l43-258h124zm-45 166c-4-29-9-65-13-109-9 50-14 86-16 109h29zm293-166l-30 114 45 144h-79c-10-26-18-57-26-94-3 16-6 34-10 52l-7 42h-84l32-144-32-114h83c2 7 5 19 9 36 3 12 6 24 9 35l18-71h72zm113 0v258h-86v-258h86zm-349 380l613 1c383 0 560 542 616 963l-1229 11-1230-12c57-420 233-963 617-963h613zM254 3479l-30 115 45 144h-79c-9-26-18-58-26-95-2 17-5 34-9 53l-8 42H64l31-144-31-115h83c1 8 4 19 8 36 4 13 7 24 9 35l18-71h72zm113 0v259h-85v-259h85zm1009 1679c-145 0-261 107-261 239s116 239 261 239c144 0 261-107 261-239s-117-239-261-239z"/></g></g></svg>