<svg width="23" height="20" viewBox="0 0 23 20" xmlns="http://www.w3.org/2000/svg"><title>Twitter</title><path d="M22.382.868a8.982 8.982 0 0 1-2.924 1.16A4.507 4.507 0 0 0 16.1.518c-2.538 0-4.599 2.143-4.599 4.787 0 .375.04.74.119 1.09-3.824-.2-7.213-2.104-9.483-5.004a4.931 4.931 0 0 0-.623 2.41c0 1.66.812 3.126 2.047 3.984a4.467 4.467 0 0 1-2.085-.596v.058c0 2.32 1.586 4.257 3.692 4.695a4.42 4.42 0 0 1-2.078.084c.585 1.901 2.283 3.286 4.297 3.323a9.003 9.003 0 0 1-6.811 1.984 12.672 12.672 0 0 0 7.052 2.15c8.463 0 13.09-7.295 13.09-13.622 0-.208-.004-.416-.012-.62A9.522 9.522 0 0 0 23 2.763a8.909 8.909 0 0 1-2.642.753A4.769 4.769 0 0 0 22.382.868" fill="#3D4248" fill-rule="evenodd"/></svg>