<svg xmlns="http://www.w3.org/2000/svg" width="65mm" height="168mm" viewBox="0 0 6500 16800" shape-rendering="geometricPrecision" text-rendering="geometricPrecision" image-rendering="optimizeQuality" fill-rule="evenodd" clip-rule="evenodd"><defs><style>.str1{stroke:#fefefe;stroke-width:100}.str0{stroke:#010101;stroke-width:7.62}.fil0{fill:#010101}.fil1{fill:#ffcd41;fill-rule:nonzero}</style></defs><g id="Слой_x0020_1"><g id="_682166160"><path class="fil0 str0" d="M3256 16678c764 0 2646-166 3056-754 164-237 83-825 83-1187-2037 570-4135 441-6279 0-3 1014-162 1321 895 1646 584 190 1486 295 2245 295zM116 8952v1027c2096 184 4190 179 6279-4V8952c0-81-24-106-106-106H222c-82 0-106 25-106 106zm0 5538c2084 417 4177 423 6279 0v-1199c-2134 383-4226 379-6279 0v1199zm0-1484c2084 417 4177 423 6279 0v-1199c-2119 254-4212 253-6279 0v1199zm0-1537c2074 325 4167 324 6279 0v-1199c-2112 197-4205 197-6279 0v1199zm1129-3717v141c-291 0-504 91-672 211-202 145-269 273-387 495h6139c-118-222-185-350-387-495-168-120-381-211-672-211 0-180-10-458-317-458H1562c-174 0-317 143-317 317zm599-2610v882h2823c15-512 58-1034-141-1023H1986c-83 0-142 58-142 141zm-352 1623v317h3527v-317c0-147-173-370-322-370l-2944-3c-126 0-270 194-261 373zm423-2435v318h2681v-318c0-216-242-458-459-458H2374c-217 0-459 242-459 458zM857 415c1599 283 3198 289 4797 0C4034 85 2435 87 857 415zm13 841c0 779 623 1745 1741 1745h1392c901 0 1608-885 1608-1745-688 0-430 533-688 533-259 0 0-533-550-533-582 0-291 533-582 533-221 0 0-533-550-533-545 0-252 533-545 533-280 0 0-533-567-533-545 0-252 533-545 533-216 38-3-544-714-533zm4741-565v291c-322-24-546 73-688 274-384-388-761-360-1132 0-365-372-730-376-1095 0-371-360-741-374-1112 0-163-206-395-307-714-274V691c1574 261 3154 262 4741 0zM2338 3343v352h1835c0-323 44-458-106-458H2444c-81 0-106 24-106 106z"/><path class="fil1 str1" d="M1140 10962H797l-317 842h440l220-842zm1384 1617c-440 0-656-301-656-597 0-300 216-593 656-593 441 0 657 293 657 593 0 296-216 597-657 597zm911 0c114-178 182-389 182-597 0-516-369-1029-1093-1029s-1088 513-1088 1029c0 343 165 694 500 885 203 114 499 127 724 46l-728 1033h529l974-1367zm1634 1367v-2976h-343l-800 1126 321 233 398-542v2159h424z"/></g></g></svg>