<?xml version="1.0" encoding="UTF-8"?>
<!DOCTYPE svg PUBLIC "-//W3C//DTD SVG 1.1//EN" "http://www.w3.org/Graphics/SVG/1.1/DTD/svg11.dtd">
<!-- Creator: CorelDRAW X8 -->
<svg xmlns="http://www.w3.org/2000/svg" xml:space="preserve" width="65.639mm" height="56.727mm" version="1.1" style="shape-rendering:geometricPrecision; text-rendering:geometricPrecision; image-rendering:optimizeQuality; fill-rule:evenodd; clip-rule:evenodd"
viewBox="0 0 6564 5673"
 xmlns:xlink="http://www.w3.org/1999/xlink">
 <defs>
  <style type="text/css">
   <![CDATA[
    .str1 {stroke:#B2B3B3;stroke-width:20}
    .str0 {stroke:blue;stroke-width:7.62}
    .fil1 {fill:#B2B3B3}
    .fil0 {fill:blue}
   ]]>
  </style>
 </defs>
 <g id="Слой_x0020_1">
  <metadata id="CorelCorpID_0Corel-Layer"/>
  <g id="_466523720">
   <path class="fil0 str0" d="M2520 2927c82,0 148,61 148,136 0,75 -66,136 -148,136 -82,0 -148,-61 -148,-136 0,-75 66,-136 148,-136zm679 -952l0 29 -29 0 0 117 -48 0 0 -117 -29 0 0 -29 106 0zm85 0l28 146 -49 0 -3 -26 -18 0 -2 26 -51 0 25 -146 70 0zm-25 94c-3,-17 -5,-37 -8,-62 -5,29 -8,49 -9,62l17 0zm166 -94l-17 65 26 81 -45 0c-6,-14 -11,-32 -15,-53 -2,9 -3,19 -6,29l-4 24 -47 0 18 -81 -18 -65 47 0c1,4 3,11 5,20 2,7 3,14 5,20l10 -40 41 0zm64 0l0 146 -49 0 0 -146 49 0zm573 952c-82,0 -149,61 -149,136 0,75 67,136 149,136 82,0 148,-61 148,-136 0,-75 -66,-136 -148,-136zm252 -341l-151 0c-10,0 -26,12 -31,18l-42 52c1,0 -72,-567 -345,-567l-162 0c-25,-76 -88,-194 -176,-194l-116 0 -116 -1c-88,0 -151,119 -176,195l-162 0c-273,0 -346,567 -346,567l-41 -52c-5,-6 -21,-18 -31,-18l-151 0c-56,0 -66,73 -38,122 12,19 38,36 70,36l181 0c-297,56 -285,276 -285,400l0 141c0,127 81,230 202,252l0 137c0,35 65,110 103,111l131 1c42,0 107,-72 107,-112l0 -119 552 0 552 0 0 119c0,40 65,112 107,112l130 -1c39,-1 104,-75 104,-111l0 -137c121,-22 202,-125 202,-252l0 -141c0,-123 12,-344 -285,-400l181 0c32,0 58,-17 69,-36 29,-49 19,-122 -37,-122zm-1023 -395l348 0c218,0 318,308 350,547l-698 6 -698 -7c32,-238 132,-546 350,-546l348 0zm0 768l509 1c11,0 20,9 20,20l0 0c0,12 -9,21 -20,21l-509 0 -509 0c-11,0 -20,-10 -20,-21l0 0c0,-11 9,-21 20,-21l509 0zm0 83l513 0c11,0 20,9 20,21l0 0c0,11 -9,20 -20,20l-513 0 -513 0c-11,0 -20,-9 -20,-21l0 0c0,-11 9,-20 20,-20l513 0zm0 82l517 0c11,0 20,10 20,21l0 0c0,11 -9,21 -20,21l-517 0 -517 -1c-11,0 -20,-9 -20,-20l0 0c0,-12 9,-21 20,-21l517 0zm0 170l237 0c51,0 93,42 93,93l0 0c0,51 -42,92 -93,92l-237 0 -238 0c-50,0 -92,-42 -92,-93l0 0c0,-51 42,-92 92,-92l238 0z"/>
   <path class="fil1 str1" d="M1178 0l2023 0c89,92 83,220 83,304l0 141c0,127 -81,229 -201,252l0 137c0,35 -66,110 -104,110l-131 2c-41,0 -107,-72 -107,-112l0 -119 -552 0 -551 0 0 119c0,40 -66,112 -107,112l-131 -2c-39,0 -104,-75 -104,-110l0 -137c-120,-23 -202,-125 -202,-252l0 -141c0,-84 -6,-212 84,-304zm3286 0l2020 0c51,52 72,116 80,177l0 323c-20,102 -94,179 -197,198l0 137c0,36 -65,110 -104,111l-130 1c-42,1 -108,-71 -108,-112l0 -119 -551 0 -552 0 0 119c0,40 -66,112 -107,112l-131 -1c-38,-1 -104,-75 -104,-111l0 -137c-120,-22 -201,-125 -201,-252l0 -141c0,-84 -6,-213 85,-305zm2100 1895l0 80 -69 0 -25 146 50 0 3 -26 18 0 2 26 21 0 0 70 -340 0c-218,0 -318,308 -350,546l690 7 0 215 -501 0c-11,0 -21,10 -21,21l0 0c0,11 10,21 21,21l501 0 0 41 -505 0c-11,0 -21,9 -21,20l0 0c0,12 10,21 21,21l505 0 0 41 -509 0c-12,0 -21,9 -21,21l0 0c0,11 9,20 21,20l509 1 0 128 -230 0c-51,0 -93,41 -93,92l0 0c0,51 42,93 93,93l230 0 0 76 -544 0 0 119c0,40 -66,112 -107,112l-131 -1c-38,-1 -104,-76 -104,-111l0 -137c-120,-22 -202,-125 -202,-252l0 -141c0,-124 -12,-344 286,-400l-181 0c-32,0 -59,-17 -70,-36 -29,-49 -19,-122 38,-122l151 0c10,0 26,12 30,18l42 52c0,0 72,-567 346,-567l161 0c26,-76 88,-195 176,-195l109 1zm-72 3778l-2013 0c42,-41 104,-75 197,-92l-182 0c-31,0 -58,-17 -69,-36 -29,-48 -19,-122 37,-122l152 0c10,0 25,12 30,18l42 52c0,0 72,-567 346,-567l161 0c26,-76 88,-194 176,-194l116 0 117 0c88,0 150,118 176,194l161 0c274,0 346,567 346,567l42 -52c4,-6 20,-18 30,-18l151 0c57,0 67,74 38,122 -11,19 -38,36 -70,36l-181 0c92,18 155,51 197,92zm-3283 0l-2016 0c42,-42 105,-76 198,-93l-181 0c-32,0 -58,-17 -70,-36 -28,-49 -18,-122 38,-122l151 0c10,0 26,12 31,18l41 52c0,0 73,-567 346,-567l162 0c25,-76 88,-195 176,-195l116 1 116 0c88,0 150,118 176,194l162 0c273,0 345,567 345,567l42 -52c5,-6 20,-18 30,-18l152 0c56,0 66,73 37,122 -11,19 -37,36 -69,36l-181 0c93,17 155,51 198,93zm-3209 -2118l0 -76 10 0 238 0c51,0 92,-41 92,-92l0 0c0,-51 -41,-93 -92,-93l-238 0 -10 0 0 -128 10 0 517 0c12,0 21,-10 21,-21l0 0c0,-11 -9,-21 -21,-21l-517 0 -10 0 0 -41 10 0 513 0c11,0 21,-9 21,-20l0 0c0,-12 -10,-21 -21,-21l-513 0 -10 0 0 -41 10 0 509 0c11,0 21,-9 21,-21l0 0c0,-11 -10,-20 -21,-20l-509 -1 -10 0 0 -215 10 0 698 -6c-32,-239 -132,-547 -350,-547l-348 0 -10 0 0 -70 32 0 -28 -146 -4 0 0 -80 10 0 116 0c88,0 151,118 176,194l162 0c273,0 346,567 346,567l42 -52c4,-6 20,-18 30,-18l151 0c57,0 66,73 38,122 -11,19 -38,36 -70,36l-181 0c298,56 286,277 286,400l0 141c0,127 -82,230 -202,252l0 137c0,36 -66,110 -104,111l-131 1c-41,0 -107,-72 -107,-112l0 -119 -552 0 -10 0zm1419 -3468c81,0 148,61 148,136 0,75 -67,136 -148,136 -82,0 -149,-61 -149,-136 0,-75 67,-136 149,-136zm1541 0c-82,0 -148,61 -148,136 0,75 66,136 148,136 82,0 148,-61 148,-136 0,-75 -66,-136 -148,-136zm-771 32l509 0c11,0 20,10 20,21l0 0c0,11 -9,21 -20,21l-509 0 -508 -1c-12,0 -21,-9 -21,-20l0 0c0,-11 9,-21 21,-21l508 0zm0 83l513 0c11,0 21,9 21,20l0 0c0,12 -10,21 -21,21l-513 0 -513 0c-11,0 -20,-9 -20,-21l0 0c0,-11 9,-20 20,-20l513 0zm0 82l517 0c11,0 21,9 21,21l0 0c0,11 -10,20 -21,20l-517 0 -517 0c-11,0 -20,-9 -20,-20l0 0c0,-12 9,-21 20,-21l517 0zm0 170l238 0c51,0 92,41 92,92l0 0c0,51 -41,93 -92,93l-238 0 -237 0c-51,0 -93,-42 -93,-93l0 0c0,-51 42,-92 93,-92l237 0zm-80 4357l0 29 -29 0 0 117 -49 0 0 -117 -28 0 0 -29 106 0zm85 0l28 146 -50 0 -2 -26 -18 0 -2 26 -51 0 25 -146 70 0zm-25 94c-3,-17 -5,-37 -8,-62 -5,29 -8,49 -9,62l17 0zm166 -94l-17 65 26 81 -45 0c-6,-14 -11,-32 -15,-53 -2,9 -3,19 -6,29l-4 24 -47 0 18 -81 -18 -65 47 0c1,4 2,11 5,20 2,7 3,14 5,20l10 -40 41 0zm64 0l0 146 -49 0 0 -146 49 0zm-198 216l348 0c218,0 318,308 350,547l-698 6 -698 -7c32,-238 132,-546 350,-546l348 0zm2502 -4939c82,0 148,61 148,136 0,75 -66,136 -148,136 -82,0 -148,-61 -148,-136 0,-75 66,-136 148,-136zm1541 1c-81,0 -148,60 -148,135 0,76 67,136 148,136 82,0 149,-60 149,-136 0,-75 -67,-135 -149,-135zm-770 32l508 0c12,0 21,9 21,20l0 0c0,12 -9,21 -21,21l-508 0 -509 0c-11,0 -20,-9 -20,-21l0 0c0,-11 9,-20 20,-20l509 0zm0 82l513 0c11,0 20,9 20,21l0 0c0,11 -9,20 -20,20l-513 0 -513 0c-11,0 -21,-9 -21,-20l0 0c0,-12 10,-21 21,-21l513 0zm0 82l517 0c11,0 20,10 20,21l0 0c0,11 -9,21 -20,21l-517 0 -517 0c-11,0 -21,-10 -21,-21l0 0c0,-11 10,-21 21,-21l517 0zm0 170l237 0c51,0 93,42 93,93l0 0c0,51 -42,92 -93,92l-237 0 -238 0c-51,0 -92,-42 -92,-92l0 0c0,-51 41,-93 92,-93l238 0zm-81 4357l0 29 -28 0 0 118 -49 0 0 -118 -29 0 0 -29 106 0zm86 0l28 147 -50 0 -3 -27 -17 0 -3 27 -50 0 25 -147 70 0zm-26 94c-2,-16 -5,-37 -7,-61 -5,28 -8,48 -9,61l16 0zm166 -94l-17 65 26 82 -45 0c-5,-15 -10,-33 -15,-54 -1,10 -3,19 -5,30l-4 24 -48 0 18 -82 -18 -65 47 0c1,4 3,11 5,20 2,8 4,14 5,20l11 -40 40 0zm65 0l0 147 -49 0 0 -147 49 0zm-199 216l348 0c218,0 318,308 350,547l-698 6 -698 -6c33,-239 133,-547 350,-547l348 0zm-5341 -3053l-17 65 26 81 -45 0c-5,-14 -10,-32 -15,-53 -1,9 -3,19 -5,29l-5 24 -47 0 18 -81 -18 -65 47 0c1,4 3,11 5,20 2,7 4,14 5,20l11 -40 40 0zm65 0l0 146 -49 0 0 -146 49 0zm572 952c-82,0 -148,61 -148,136 0,75 66,136 148,136 82,0 148,-61 148,-136 0,-75 -66,-136 -148,-136zm5020 0c82,0 148,61 148,136 0,75 -66,136 -148,136 -82,0 -148,-61 -148,-136 0,-75 66,-136 148,-136zm679 -952l0 29 -29 0 0 117 -49 0 0 -117 -29 0 0 -29 107 0zm59 94c-2,-17 -5,-37 -7,-62 -5,29 -8,49 -9,62l16 0z"/>
  </g>
 </g>
</svg>
