<?xml version="1.0" encoding="UTF-8"?>
<!DOCTYPE svg PUBLIC "-//W3C//DTD SVG 1.1//EN" "http://www.w3.org/Graphics/SVG/1.1/DTD/svg11.dtd">
<!-- Creator: CorelDRAW X8 -->
<svg xmlns="http://www.w3.org/2000/svg" xml:space="preserve" width="115.613mm" height="99.928mm" version="1.1" style="shape-rendering:geometricPrecision; text-rendering:geometricPrecision; image-rendering:optimizeQuality; fill-rule:evenodd; clip-rule:evenodd"
viewBox="0 0 11561 9993"
 xmlns:xlink="http://www.w3.org/1999/xlink">
 <defs>
  <style type="text/css">
   <![CDATA[
    .str1 {stroke:#898989;stroke-width:7.62}
    .str0 {stroke:blue;stroke-width:7.62}
    .fil1 {fill:#898989}
    .fil0 {fill:blue}
   ]]>
  </style>
 </defs>
 <g id="Слой_x0020_1">
  <metadata id="CorelCorpID_0Corel-Layer"/>
  <g id="_594698464">
   <path class="fil0 str0" d="M4439 5157c144,0 261,107 261,240 0,132 -117,239 -261,239 -144,0 -261,-107 -261,-239 0,-133 117,-240 261,-240zm1195 -1678l0 52 -50 0 0 207 -86 0 0 -207 -51 0 0 -52 187 0zm151 0l49 259 -88 0 -4 -47 -31 0 -5 47 -88 0 43 -259 124 0zm-45 167c-5,-30 -9,-66 -13,-109 -9,49 -14,86 -17,109l30 0zm292 -167l-30 115 46 144 -79 0c-10,-26 -18,-58 -26,-95 -3,17 -6,34 -10,53l-8 42 -83 0 31 -144 -31 -115 83 0c2,8 5,19 9,36 3,13 6,24 9,35l18 -71 71 0zm114 0l0 259 -86 0 0 -259 86 0zm1008 1679c-144,0 -261,107 -261,239 0,132 117,239 261,239 144,0 261,-107 261,-239 0,-132 -117,-239 -261,-239zm444 -602l-266 0c-18,0 -45,21 -54,31l-73 92c0,0 -128,-999 -609,-999l-285 0c-45,-134 -155,-342 -310,-342l-204 0 -205 0c-155,0 -265,208 -310,342l-285 0c-481,0 -609,999 -609,999l-73 -92c-9,-10 -36,-32 -54,-32l-266 0c-99,0 -117,130 -66,216 20,33 66,63 122,63l319 0c-524,99 -502,487 -502,705l0 248c0,224 143,405 355,445l0 241c0,62 115,193 183,194l230 2c73,1 189,-126 189,-196l0 -211 972 0 971 1 0 210c0,71 116,197 189,197l230 -3c68,0 183,-132 183,-194l0 -241c212,-40 356,-221 356,-444l0 -249c0,-217 21,-606 -503,-705l319 0c56,0 103,-30 122,-63 51,-86 34,-215 -66,-215zm-1801 -696l613 0c383,0 559,542 616,963l-1229 11 -1230 -11c57,-421 233,-963 616,-963l614 0zm0 1354l895 0c20,0 37,16 37,36l0 0c0,20 -17,37 -37,37l-895 0 -896 -1c-20,0 -37,-16 -37,-36l0 0c0,-20 17,-36 37,-36l896 0zm0 145l903 0c20,0 36,17 36,36l0 0c0,20 -16,37 -36,37l-903 0 -904 0c-20,0 -36,-17 -36,-37l0 0c0,-20 16,-36 36,-36l904 0zm0 145l910 0c20,0 36,17 36,37l0 0c0,20 -16,36 -36,36l-910 0 -911 0c-20,0 -36,-17 -36,-37l0 0c0,-20 16,-36 36,-36l911 0zm0 299l418 0c90,0 163,73 163,163l0 0c0,90 -73,163 -163,163l-418 0 -419 0c-89,0 -163,-73 -163,-163l0 0c0,-90 73,-163 163,-163l419 0z"/>
   <path class="fil1 str1" d="M2076 0l3560 0c159,161 149,388 149,537l0 248c0,224 -144,404 -355,444l0 241c0,62 -116,194 -183,195l-231 2c-73,1 -188,-126 -188,-197l0 -210 -972 0 -972 0 0 210c0,71 -115,197 -188,197l-231 -3c-67,0 -183,-132 -183,-194l0 -241c-211,-40 -355,-221 -355,-444l0 -249c0,-148 -10,-375 149,-536zm5787 0l3556 0c92,92 128,205 142,313l0 569c-34,179 -165,315 -346,349l0 242c0,62 -116,193 -183,194l-230 2c-73,1 -189,-126 -189,-196l0 -211 -972 0 -971 0 0 210c0,71 -116,198 -189,197l-230 -2c-68,-1 -183,-132 -183,-195l0 -241c-212,-40 -356,-220 -356,-444l0 -248c0,-149 -10,-378 151,-539zm3698 3338l0 141 -121 0 -44 259 89 0 4 -47 31 0 5 47 36 0 0 122 -599 0c-383,0 -560,542 -617,963l1216 11 0 380 -882 0c-20,0 -36,16 -36,36l0 0c0,20 16,36 36,36l882 1 0 72 -889 0c-20,0 -36,16 -36,36l0 0c0,20 16,37 36,37l889 0 0 72 -896 0c-20,0 -37,16 -37,36l0 0c0,20 17,37 37,37l896 0 0 226 -404 0c-90,0 -164,73 -164,163l0 0c0,90 74,163 164,163l404 0 0 133 -958 0 0 211c0,70 -115,197 -188,196l-231 -2c-67,-1 -183,-132 -183,-194l0 -241c-211,-40 -355,-221 -355,-445l0 -248c0,-218 -21,-606 503,-705l-320 0c-56,0 -102,-30 -122,-63 -50,-86 -33,-216 66,-216l267 0c17,0 45,22 53,32l74 92c0,0 127,-999 609,-999l284 0c45,-134 155,-342 310,-342l191 0zm-127 6655l-3545 0c74,-73 184,-131 346,-162l-319 0c-56,0 -102,-29 -122,-63 -51,-85 -33,-215 66,-215l267 0c17,0 45,21 53,32l73 91c0,0 128,-998 610,-998l284 0c45,-134 155,-342 310,-342l205 0 204 0c155,0 265,208 310,342l285 0c481,0 609,999 609,998l74 -91c8,-11 35,-32 53,-32l266 0c100,0 117,130 67,215 -20,34 -67,64 -123,64l-319 0c162,30 272,88 346,161zm-5782 0l-3551 0c75,-74 185,-133 349,-164l-319 0c-56,0 -103,-30 -122,-63 -51,-86 -33,-215 66,-215l266 0c18,0 45,21 54,31l73 92c0,0 128,-999 609,-999l285 0c45,-134 155,-342 310,-342l204 0 205 0c155,0 265,209 310,342l285 0c481,0 609,999 609,999l73 -92c9,-10 36,-31 54,-31l266 0c99,0 117,130 66,215 -19,34 -66,63 -122,63l-319 0c164,31 274,90 349,164zm-5652 -3731l0 -133 18 0 418 0c90,0 164,-73 164,-163l0 0c0,-90 -74,-163 -164,-163l-418 0 -18 0 0 -226 18 0 911 0c20,0 36,-16 36,-36l0 0c0,-20 -16,-37 -36,-37l-911 0 -18 0 0 -72 18 0 903 0c20,0 37,-17 37,-37l0 0c0,-19 -17,-36 -37,-36l-903 0 -18 0 0 -72 18 0 896 0c20,0 36,-17 36,-37l0 0c0,-20 -16,-36 -36,-36l-896 0 -18 0 0 -380 18 0 1230 -11c-57,-421 -234,-963 -617,-963l-613 0 -18 0 0 -122 56 0 -49 -259 -7 0 0 -141 18 0 205 0c155,0 265,208 310,342l284 0c482,0 609,999 609,999l74 -92c8,-10 36,-31 53,-31l267 0c99,0 117,129 66,215 -20,33 -66,63 -122,63l-319 0c524,99 502,488 502,705l0 249c0,223 -143,404 -355,444l0 241c0,62 -116,194 -183,194l-231 3c-72,0 -188,-126 -188,-197l0 -210 -972 -1 -18 0zm10217 -1105c145,0 262,107 262,240 0,132 -117,239 -262,239 -144,0 -261,-107 -261,-239 0,-133 117,-240 261,-240zm1196 -1678l0 52 -51 0 0 207 -85 0 0 -207 -51 0 0 -52 187 0zm105 167c-4,-30 -8,-66 -13,-109 -9,49 -14,86 -16,109l29 0zm-9019 -3491c144,0 261,107 261,239 0,132 -117,239 -261,239 -145,0 -261,-107 -261,-239 0,-132 116,-239 261,-239zm2714 0c-144,0 -261,107 -261,239 0,132 117,239 261,239 145,0 262,-107 262,-239 0,-132 -117,-239 -262,-239zm-1357 56l896 0c20,0 36,17 36,37l0 0c0,20 -16,36 -36,36l-896 0 -896 0c-20,0 -36,-17 -36,-36l0 0c0,-20 16,-37 36,-37l896 0zm0 145l903 1c20,0 36,16 36,36l0 0c0,20 -16,36 -36,36l-903 0 -903 0c-20,0 -36,-16 -36,-36l0 0c0,-20 16,-37 36,-37l903 0zm0 145l910 1c20,0 37,16 37,36l0 0c0,20 -17,36 -37,36l-910 0 -910 0c-20,0 -37,-16 -37,-36l0 0c0,-20 17,-37 37,-37l910 0zm0 299l418 0c90,0 164,74 164,163l0 0c0,90 -74,164 -164,164l-418 0 -418 -1c-90,0 -163,-73 -163,-163l0 0c0,-90 73,-163 163,-163l418 0zm-142 7675l0 51 -50 0 0 207 -86 0 0 -207 -51 0 0 -51 187 0zm151 0l49 258 -88 0 -4 -46 -31 0 -5 46 -88 0 43 -258 124 0zm-46 166c-4,-29 -8,-66 -12,-109 -9,50 -14,86 -17,109l29 0zm293 -166l-30 114 46 144 -79 0c-10,-26 -19,-57 -27,-94 -2,16 -5,34 -9,52l-8 42 -83 0 31 -144 -31 -114 83 0c2,7 5,19 9,35 3,13 6,25 8,35l19 -70 71 0zm114 0l0 258 -86 0 0 -258 86 0zm-350 380l614 0c383,0 559,543 616,963l-1230 11 -1229 -11c57,-421 233,-963 616,-963l613 0zm4408 -8698c144,0 261,107 261,239 0,132 -117,240 -261,240 -144,0 -261,-108 -261,-240 0,-132 117,-239 261,-239zm2715 0c-144,0 -261,107 -261,240 0,132 117,239 261,239 144,0 261,-107 261,-239 0,-133 -117,-240 -261,-240zm-1358 57l896 0c20,0 36,16 36,36l0 0c0,20 -16,36 -36,36l-896 0 -896 0c-20,0 -36,-16 -36,-36l0 0c0,-20 16,-36 36,-36l896 0zm0 145l903 0c20,0 37,16 37,36l0 0c0,20 -17,36 -37,36l-903 0 -903 0c-20,0 -36,-16 -36,-36l0 0c0,-20 16,-36 36,-36l903 0zm0 145l911 0c20,0 36,16 36,36l0 0c0,20 -16,37 -36,37l-911 0 -910 -1c-20,0 -36,-16 -36,-36l0 0c0,-20 16,-36 36,-36l910 0zm0 298l419 1c89,0 163,73 163,163l0 0c0,90 -74,163 -163,163l-419 0 -418 0c-90,0 -163,-74 -163,-163l0 0c0,-90 73,-164 163,-164l418 0zm-141 7675l0 52 -51 0 0 206 -86 0 0 -206 -50 0 0 -52 187 0zm150 0l49 258 -87 0 -5 -46 -31 0 -5 46 -88 0 43 -258 124 0zm-45 166c-4,-29 -9,-65 -13,-109 -9,50 -14,86 -16,109l29 0zm293 -166l-30 114 45 144 -79 0c-10,-26 -18,-57 -26,-94 -3,16 -6,34 -10,52l-7 42 -84 0 32 -144 -32 -114 83 0c2,7 5,19 9,36 3,12 6,24 9,35l18 -71 72 0zm113 0l0 258 -86 0 0 -258 86 0zm-349 380l613 1c383,0 560,542 616,963l-1229 11 -1230 -12c57,-420 233,-963 617,-963l613 0zm-9408 -5378l-30 115 45 144 -79 0c-9,-26 -18,-58 -26,-95 -2,17 -5,34 -9,53l-8 42 -83 0 31 -144 -31 -115 83 0c1,8 4,19 8,36 4,13 7,24 9,35l18 -71 72 0zm113 0l0 259 -85 0 0 -259 85 0zm1009 1679c-145,0 -261,107 -261,239 0,132 116,239 261,239 144,0 261,-107 261,-239 0,-132 -117,-239 -261,-239z"/>
  </g>
 </g>
</svg>
