<svg xmlns="http://www.w3.org/2000/svg" width="401.189" height="401.189" viewBox="0 0 10615 10615" shape-rendering="geometricPrecision" text-rendering="geometricPrecision" image-rendering="optimizeQuality" fill-rule="evenodd" clip-rule="evenodd"><defs><style>.str0{stroke:#fefefe;stroke-width:7.62}.fil0{fill:#fefefe}</style></defs><g id="Слой_x0020_1"><g id="XMLID_138_"><path id="XMLID_142_" class="fil0 str0" d="M9113 2675c-102-264-239-487-462-711-224-223-447-360-711-462-255-100-550-168-975-186-428-19-565-25-1658-25-1092 0-1229 3-1657 25-429 18-720 86-975 186-264 102-487 239-711 462-223 224-360 447-462 711-100 255-168 550-186 975-19 428-25 565-25 1657 0 1093 3 1230 25 1658 18 428 86 720 186 975 102 264 239 487 462 711 224 223 447 360 711 462 255 99 550 168 975 186 428 19 565 25 1657 25 1093 0 1230-3 1658-25 428-18 720-87 975-186 264-102 487-239 711-462 223-224 360-447 462-711 99-255 168-550 186-975 19-428 25-565 25-1658 0-1092-3-1229-25-1657-18-429-87-720-186-975zm-537 4256c-19 391-84 605-140 745-71 186-161 323-301 462-139 140-273 227-462 301-143 56-354 122-745 140-426 19-550 25-1624 25s-1201-3-1623-25c-391-18-605-84-745-140-186-71-323-161-463-301-139-139-226-273-301-462-56-143-121-354-139-745-19-425-25-553-25-1624s3-1201 25-1623c18-391 83-605 139-745 72-186 162-323 301-463 140-139 273-226 463-301 143-56 354-121 745-139 425-19 552-25 1623-25s1202 3 1624 25c391 18 605 83 745 139 186 72 323 162 462 301 140 140 227 274 301 463 56 143 121 354 140 745 19 425 25 552 25 1623s-6 1202-25 1624z"/><path id="XMLID_145_" class="fil0 str0" d="M5304 3243c-1139 0-2064 925-2064 2064 0 1140 925 2065 2064 2065 1140 0 2065-925 2065-2065 0-1139-925-2064-2065-2064zm0 3405c-738 0-1341-599-1341-1341 0-738 599-1341 1341-1341s1341 600 1341 1341c0 739-602 1341-1341 1341z"/><circle id="XMLID_143_" class="fil0 str0" cx="7449" cy="3162" r="481"/></g></g></svg>