<svg xmlns="http://www.w3.org/2000/svg" viewBox="0 0 512.001 512.001"><path d="M405.997 261.916V0H106.005v261.916H22.661l233.34 250.086L489.34 261.916h-83.343zM98.336 294.807h40.561V32.892h234.209v261.916h40.561l-157.665 168.98L98.336 294.807z"/><path d="M205.044 108.25c-22.146 0-40.164 18.018-40.164 40.165 0 22.146 18.018 40.164 40.164 40.164s40.164-18.018 40.164-40.164c0-22.147-18.018-40.165-40.164-40.165zm-.001 47.437c-4.009 0-7.272-3.263-7.272-7.272 0-4.011 3.263-7.273 7.272-7.273 4.01 0 7.272 3.263 7.272 7.273s-3.262 7.272-7.272 7.272zm101.915 50.434c-22.147 0-40.164 18.018-40.164 40.164 0 22.147 18.018 40.165 40.164 40.165s40.164-18.018 40.164-40.165c.001-22.146-18.017-40.164-40.164-40.164zm0 47.438c-4.011 0-7.272-3.263-7.272-7.273 0-4.009 3.263-7.272 7.272-7.272 4.01 0 7.272 3.263 7.272 7.272.002 4.01-3.261 7.273-7.272 7.273zm-115.448-2.606l103.349-128.03 25.593 20.659-103.35 128.03z"/></svg>