<svg width="19" height="19" viewBox="0 0 19 19" xmlns="http://www.w3.org/2000/svg"><title>Skype-black</title><path d="M18.454 11.517c.137-.619.209-1.26.209-1.918 0-4.934-4.057-8.935-9.062-8.935a9.23 9.23 0 0 0-1.55.131A5.28 5.28 0 0 0 5.256 0C2.353 0 0 2.32 0 5.183c0 .955.264 1.85.722 2.62a8.86 8.86 0 0 0-.184 1.796c0 4.935 4.058 8.935 9.063 8.935.567 0 1.121-.052 1.66-.15a5.29 5.29 0 0 0 2.484.616C16.647 19 19 16.68 19 13.819c0-.827-.197-1.608-.546-2.302zm-4.205 2.352c-.419.586-1.038 1.049-1.842 1.377-.795.326-1.746.492-2.831.492-1.301 0-2.393-.226-3.245-.672a4.207 4.207 0 0 1-1.492-1.306c-.385-.546-.58-1.089-.58-1.614 0-.326.128-.61.378-.843.248-.231.567-.347.946-.347.31 0 .58.092.798.274.209.175.388.433.532.765.16.363.335.67.52.908.178.234.434.429.76.582.328.152.772.231 1.316.231.75 0 1.364-.158 1.825-.469.453-.303.672-.668.672-1.116 0-.35-.115-.628-.35-.846-.248-.227-.573-.403-.967-.527a19.781 19.781 0 0 0-1.663-.406c-.941-.198-1.74-.433-2.375-.7-.65-.273-1.174-.65-1.557-1.123-.389-.481-.586-1.083-.586-1.792 0-.673.206-1.282.615-1.807.405-.52.997-.928 1.76-1.204.751-.275 1.645-.413 2.658-.413.81 0 1.52.092 2.115.275.598.183 1.1.43 1.496.734.399.309.696.636.881.977.188.345.284.687.284 1.019 0 .32-.125.61-.372.862a1.25 1.25 0 0 1-.93.385c-.336 0-.6-.082-.78-.24-.17-.15-.347-.38-.542-.71-.226-.424-.5-.757-.813-.993-.305-.23-.814-.344-1.514-.344-.648 0-1.178.128-1.57.382-.377.244-.562.525-.562.857 0 .203.06.374.183.519.127.156.309.29.54.405.237.118.483.213.729.279.251.07.673.172 1.253.304.734.154 1.408.329 2.003.517.604.19 1.125.423 1.552.697.433.28.776.636 1.02 1.063.245.43.37.96.37 1.575 0 .736-.215 1.406-.635 1.993z" fill="#FFF" fill-rule="evenodd"/></svg>