<svg xmlns="http://www.w3.org/2000/svg" width="250" height="250" viewBox="0 0 6615 6615" shape-rendering="geometricPrecision" text-rendering="geometricPrecision" image-rendering="optimizeQuality" fill-rule="evenodd" clip-rule="evenodd"><defs><style>.fil0{fill:#000}</style></defs><g id="Слой_x0020_1"><g id="_240599240"><path class="fil0" d="M7 4369h268v795c0 262 158 420 364 420 208 0 362-158 362-420v-795h270v852c0 331-249 614-632 614-385 0-632-283-632-614v-852zm2760 1435V4369h-266v895l-783-895h-146v1432h267v-890l781 893zm320-1435h276v1432h-276zm2051 716c0-421-344-762-769-762s-770 341-770 762 344 762 770 762c162 0 312-50 435-134l126 126 175-176-121-120c96-128 154-286 154-458zm-769 523c-276 0-500-234-500-523 0-288 224-523 500-523s499 235 499 523c0 98-26 191-71 270l-165-165-176 175 169 169c-75 47-163 74-256 74zm1904 193h296l-611-1432h-185l-626 1432h287l113-269h617l109 269zm-628-505l215-515 209 515h-424zM2446 3640H685l183-328h1037c23 20 48 41 72 60 140 106 298 203 469 268zm362-380c-220-161-372-339-485-510-127-193-404-661-204-1151 83-112 194-205 275-265 135-99 231-144 395-188-146 78-358 311-335 761 10 211 109 458 211 610 255 390 576 557 908 642 154 39 393 59 702 75 249 14 760 17 849 16l95 1 219 417s-742 3-1088-16c-559-29-1079-55-1542-392z"/><path class="fil0" d="M3232 3597c-122 30-241 43-350 43-314-1-610-148-854-335-293-226-507-539-561-880-8-40-11-80-17-137-22-233 12-527 176-809 141-243 353-454 701-600 146-60 458-129 819-33 380 105 711 341 924 650 0 0-327-426-886-474-26-2-52-4-77-4-277-5-542 89-762 248-141 100-264 226-360 371-22 32-227 334-233 769-5 379 166 652 228 744 3 2 160 109 400 155 138 26 292 20 361 10 7 5 12 9 18 13 163 120 334 202 509 258l-36 11z"/><path class="fil0" d="M4299 2232c26 348-187 731-313 900-166-14-297-31-392-55-48-12-96-27-143-43 145-124 342-357 437-679 138-464-21-893-215-1093 472 303 609 687 626 970z"/></g></g></svg>