<svg xmlns="http://www.w3.org/2000/svg" width="276.389" height="238.745" viewBox="0 0 7313 6317" shape-rendering="geometricPrecision" text-rendering="geometricPrecision" image-rendering="optimizeQuality" fill-rule="evenodd" clip-rule="evenodd"><defs><style>.str0,.str1{stroke-width:7.62}.str1{stroke:#009846}.str0{stroke:gray}.fil1{fill:#009846}.fil0{fill:gray}</style></defs><g id="Слой_x0020_1"><g id="_504410568"><path class="fil0 str0" d="M960 97c91 0 165 68 165 151 0 84-74 152-165 152s-165-68-165-152c0-83 74-151 165-151zM692 0h2253c100 102 93 245 93 339v157c0 141-90 255-224 281v152c0 39-73 123-116 123l-146 2c-46 0-119-80-119-125V796H1204v133c0 45-73 125-119 124l-146-1c-43-1-116-84-116-123V776c-134-25-225-139-225-281V338c0-93-6-236 94-338zm1985 97c-91 0-165 68-165 152 0 83 74 151 165 151s165-68 165-151c0-84-74-152-165-152zm-859 36h567c13 0 23 10 23 23s-10 23-23 23H1252c-13 0-23-11-23-23 0-13 10-23 23-23h566zm0 92h572c12 0 23 10 23 23 0 12-11 23-23 23h-572l-571-1c-12 0-23-10-23-22 0-13 11-23 23-23h571zm0 91h576c13 0 23 11 23 23 0 13-10 23-23 23H1243c-13 0-23-10-23-23 0-12 10-23 23-23h575zm0 189h265c57 0 103 47 103 104 0 56-46 103-103 103h-529c-57 0-103-47-103-104 0-56 46-103 103-103h264zm1123 5812H692c48-48 118-86 223-106H713c-35 0-65-18-77-40-32-54-21-136 41-136h169c11 0 28 14 34 20l46 58s81-631 386-631h179c29-85 99-217 197-217l129 1h129c98 0 168 131 196 216h180c305 0 386 632 386 631l46-57c5-7 23-20 34-20h168c63 0 74 82 42 136-12 21-42 40-77 40h-202c105 19 175 58 222 105zm-1227-962v33h-31v130h-55v-130h-32v-33h118zm96 0l31 163h-56l-3-29h-19l-3 29h-56l27-163h79zm-29 105c-3-18-5-41-8-69-6 32-9 55-10 69h18zm185-105l-19 72 29 91h-50c-6-16-12-36-17-59-1 10-3 21-6 33l-5 26h-52l20-91-20-72h52c1 4 3 12 6 23 2 8 4 15 5 22l12-45h45zm72 0v163h-55v-163h55zm-221 240l388 1c242 0 354 343 390 609l-778 7-778-7c36-266 148-610 390-610h388zM4628 97c91 0 165 68 165 151 0 84-74 152-165 152s-165-68-165-152c0-83 74-151 165-151zM4360 0h2253c100 102 94 245 94 339v157c0 141-91 255-225 281v152c0 39-73 123-116 123l-146 2c-46 0-119-80-119-125V796H4872v133c0 45-73 125-119 124l-146-1c-43-1-116-84-116-123V776c-133-25-224-139-224-281V338c0-93-6-236 93-338zm1985 97c-91 0-165 68-165 152 0 83 74 151 165 151s165-68 165-151c0-84-74-152-165-152zm-858 36h566c13 0 23 10 23 23s-10 23-23 23H4920c-12 0-23-11-23-23 0-13 11-23 23-23h567zm0 92h571c13 0 23 10 23 23 0 12-10 23-23 23h-571l-571-1c-13 0-23-10-23-22 0-13 10-23 23-23h571zm0 91h575c13 0 23 11 23 23 0 13-10 23-23 23H4911c-13 0-23-10-23-23 0-12 10-23 23-23h576zm0 189h264c57 0 103 47 103 104 0 56-46 103-103 103h-529c-57 0-103-47-103-104 0-56 46-103 103-103h265zm1123 5812H4361c47-48 117-86 222-106h-202c-35 0-65-18-77-40-32-54-21-136 42-136h168c11 0 29 14 34 20l47 58s80-631 385-631h180c28-85 98-217 196-217l129 1h130c98 0 167 131 196 216h180c304 0 385 632 385 631l46-57c6-7 23-20 34-20h169c62 0 73 82 42 136-13 21-42 40-78 40h-202c105 19 175 58 223 105zm-1227-962v33h-32v130h-54v-130h-33v-33h119zm95 0l31 163h-55l-3-29h-20l-3 29h-56l28-163h78zm-29 105c-2-18-5-41-8-69-5 32-9 55-10 69h18zm185-105l-19 72 29 91h-50c-6-16-11-36-17-59-1 10-3 21-5 33l-5 26h-53l20-91-20-72h52c2 4 3 12 6 23 2 8 4 15 5 22l12-45h45zm72 0v163h-54v-163h54zm-221 240l388 1c242 0 354 343 390 609l-778 7-777-7c35-266 147-610 389-610h388zM0 3954v-85h265c56 0 103-46 103-103s-47-103-103-103H0v-143h576c12 0 23-10 23-23s-11-23-23-23H0v-46h571c13 0 23-10 23-23 0-12-10-23-23-23H0v-45h567c12 0 23-11 23-23 0-13-11-23-23-23H0v-241l778-7c-36-266-148-609-390-609H0v-77h24L0 2232v-128h129c98 0 168 132 196 217h180c305 0 386 631 386 631l46-58c5-6 23-20 34-20h168c63 0 74 82 42 136-12 22-42 40-77 40H902c331 63 318 309 318 446v157c0 142-91 256-225 281v153c0 39-73 122-116 123l-145 1c-46 1-119-80-119-124v-133H0zm149-1760l-19 72 29 91h-50c-6-16-12-36-17-60-1 11-3 22-6 33l-4 27H29l20-91-20-72h52c1 4 3 12 6 22 2 8 4 16 5 22l12-44h45zm72 0v163h-54v-163h54zm637 1061c-91 0-165 68-165 151 0 84 74 152 165 152 92 0 166-68 166-152 0-83-74-151-166-151z"/><path class="fil1 str1" d="M2797 3255c92 0 165 67 165 151s-73 151-165 151c-91 0-165-67-165-151s74-151 165-151zm756-1061v32h-32v131h-54v-131h-32v-32h118zm96 0l31 163h-56l-3-29h-19l-3 29h-56l27-163h79zm-29 105c-3-19-5-42-8-69-6 31-9 54-11 69h19zm185-105l-19 72 29 91h-50c-6-16-12-36-17-60-1 11-3 22-6 33l-5 27h-52l19-91-19-72h52c1 4 3 12 6 22 2 8 4 16 5 22l12-44h45zm72 0v163h-55v-163h55zm637 1061c-91 0-165 68-165 151 0 84 74 152 165 152 92 0 165-68 165-152 0-83-73-151-165-151zm281-381h-168c-11 0-29 14-34 20l-46 58s-81-631-386-631h-180c-28-85-98-217-196-217h-258c-99 0-168 132-197 216h-180c-304 0-385 632-385 632l-46-58c-6-7-23-20-34-20h-169c-62 0-73 82-41 136 12 21 42 40 77 40h202c-332 63-318 308-318 446v157c0 142 91 256 225 281v153c0 39 73 122 115 123l146 1c46 1 119-80 119-124v-133h1229v133c0 44 74 125 120 124l145-1c43-1 116-84 116-123v-153c134-25 225-139 225-281v-157c0-137 13-383-318-446h202c35 0 65-18 77-40 32-54 21-136-42-136zm-1139-440h388c242 0 354 343 389 609l-777 7-778-7c36-266 148-609 390-609h388zm0 857h566c13 0 23 10 23 23 0 12-10 23-23 23h-566l-567-1c-12 0-23-10-23-23 0-12 11-22 23-22h567zm0 91h571c13 0 23 11 23 23 0 13-10 23-23 23H3085c-13 0-23-10-23-23 0-12 10-23 23-23h571zm0 92h576c12 0 23 10 23 23s-11 23-23 23H3080c-13 0-23-10-23-23s10-23 23-23h576zm0 189h264c57 0 104 46 104 103s-47 103-104 103h-529c-56 0-103-46-103-103s47-103 103-103h265z"/><path class="fil0 str0" d="M6456 3256c91 0 165 68 165 152 0 83-74 151-165 151s-165-68-165-151c0-84 74-152 165-152zm857-1150v120l-6-31h-78l-27 163h56l3-29h19l3 29h30v78h-386c-242 0-354 343-390 609l776 7v240h-565c-13 0-23 10-23 23s10 23 23 23h565v46h-570c-12 0-22 10-22 23 0 12 10 23 22 23h570v46h-574c-13 0-23 10-23 22 0 13 10 23 23 23l574 1v142h-263c-57 0-103 47-103 104 0 56 46 103 103 103h263v84h-613v133c0 45-73 125-119 125l-146-2c-43 0-116-84-116-123v-152c-133-26-224-140-224-281v-157c0-138-14-384 318-446h-202c-36 0-65-19-78-40-32-54-21-136 42-136h169c11 0 28 13 33 19l47 58c0 1 81-631 385-631h180c29-85 98-216 196-216h128zm-101 89v33h-32v130h-54v-130h-32v-33h118zm67 105c-3-18-6-41-9-69-5 32-8 55-10 69h19z"/></g></g></svg>