<svg width="21" height="21" viewBox="0 0 21 21" xmlns="http://www.w3.org/2000/svg"><title>Viber-black</title><path d="M10.5 0C16.299 0 21 4.701 21 10.5S16.299 21 10.5 21 0 16.299 0 10.5 4.701 0 10.5 0zm.629 4.277c.714.09 1.29.261 1.924.57.622.305 1.02.593 1.548 1.117.494.495.768.87 1.059 1.453.404.812.635 1.778.674 2.84.015.363.004.444-.079.548-.158.2-.504.168-.622-.058-.038-.075-.048-.14-.06-.43a7.506 7.506 0 0 0-.115-1.077c-.245-1.349-.892-2.426-1.926-3.2-.861-.646-1.751-.961-2.918-1.03-.394-.022-.463-.037-.552-.105-.166-.13-.174-.437-.014-.58.097-.09.166-.102.504-.091.176.006.436.026.577.043zm-4.745.224c.073.025.185.083.25.124.394.261 1.492 1.664 1.85 2.365.206.4.275.696.21.916-.066.236-.176.36-.668.756-.197.16-.382.323-.41.367a.966.966 0 0 0-.136.468c.002.346.226.974.521 1.457.228.375.637.856 1.042 1.225.475.435.895.731 1.368.965.608.303.98.38 1.251.253a.973.973 0 0 0 .164-.09c.021-.02.18-.214.355-.43.336-.423.413-.491.643-.57.293-.1.592-.072.893.081.228.118.726.427 1.048.65.423.297 1.328 1.035 1.45 1.182.217.265.254.605.109.98-.154.396-.752 1.138-1.169 1.455-.378.286-.645.396-.998.412-.29.015-.411-.01-.783-.163-2.913-1.2-5.24-2.99-7.087-5.45-.965-1.285-1.7-2.618-2.202-4-.293-.806-.307-1.156-.067-1.569.104-.174.546-.605.868-.845.535-.398.782-.545.98-.587.134-.029.369-.006.518.048zm4.888 1.278c1.26.185 2.235.77 2.875 1.718.359.535.583 1.163.66 1.836.027.247.027.697-.003.771a.472.472 0 0 1-.188.205.464.464 0 0 1-.35-.012c-.159-.08-.207-.21-.207-.557 0-.537-.139-1.103-.38-1.542a3.152 3.152 0 0 0-1.157-1.204c-.418-.249-1.034-.433-1.597-.479-.203-.016-.315-.058-.392-.147a.377.377 0 0 1-.03-.468c.107-.168.273-.195.77-.12zm.442 1.565c.409.087.722.243.99.493.345.326.534.72.617 1.285.056.369.033.514-.098.634-.122.112-.349.116-.486.01-.1-.074-.13-.153-.153-.366a1.966 1.966 0 0 0-.162-.668c-.183-.391-.504-.594-1.048-.66-.256-.032-.332-.06-.415-.158a.386.386 0 0 1 .116-.58c.079-.04.112-.044.286-.033.108.006.268.024.353.043z" fill="#FFF" fill-rule="evenodd"/></svg>