<svg width="1330" height="1015" viewBox="0 0 1330 1015" xmlns="http://www.w3.org/2000/svg"><title>Group 4</title><g fill="none" fill-rule="evenodd"><path d="M76.253 333C69.497 333 64 338.496 64 345.252s5.497 12.253 12.253 12.253 12.252-5.497 12.252-12.253S83.009 333 76.253 333zm0 30.505c-10.064 0-18.253-8.188-18.253-18.253C58 335.188 66.189 327 76.253 327c10.065 0 18.252 8.188 18.252 18.252 0 10.065-8.187 18.253-18.252 18.253zm304 620.495c-6.756 0-12.253 5.496-12.253 12.252s5.497 12.253 12.253 12.253 12.252-5.497 12.252-12.253S387.009 984 380.253 984zm0 30.505c-10.064 0-18.253-8.188-18.253-18.253 0-10.064 8.189-18.252 18.253-18.252 10.065 0 18.252 8.188 18.252 18.252 0 10.065-8.187 18.253-18.252 18.253zM132.205 584.41c-7.833 0-14.205-6.373-14.205-14.205 0-7.833 6.372-14.205 14.205-14.205s14.204 6.372 14.204 14.205c0 7.832-6.371 14.205-14.204 14.205m705-211c-7.833 0-14.205-6.373-14.205-14.205 0-7.833 6.372-14.205 14.205-14.205s14.204 6.372 14.204 14.205c0 7.832-6.371 14.205-14.204 14.205m439 350.999c-7.833 0-14.205-6.372-14.205-14.205 0-7.832 6.372-14.204 14.205-14.204 7.832 0 14.204 6.372 14.204 14.204 0 7.833-6.372 14.205-14.204 14.205M1147.7 162.14l-29.528-4.576.918-5.93 26.133 4.051 17.8-21.829 27.834 4.312 17.805-21.83 27.836 4.31 17.804-21.83 27.839 4.31 17.807-21.832 29.539 4.57-.918 5.93-26.143-4.046-17.807 21.832-27.84-4.31-17.803 21.83-27.837-4.31-17.804 21.83-27.834-4.311-17.8 21.829M924.27 665.133l19.905-17.43-5.278-27.677 21.203-18.553-5.286-27.673 21.194-18.548-5.273-27.669 5.273-2.583 6.539 32.504-21.194 18.548 5.282 27.664-21.199 18.561 5.277 27.678-22.484 19.69zM139.164 181.892l-3.32-26.247-25.896-11.102-3.524-27.953-25.899-11.092L77 77.555l-25.887-11.1.807-5.816 30.603 12.755 3.525 27.942 25.889 11.091 3.534 27.954 25.896 11.102 3.75 29.65zM1326 980l-4.1 4.14-79.9-79.9 4.24-4.24 75.66 75.66zM706.9 817.66v8.48l-79.9-79.9 4.24-4.24 75.66 75.66m478.045-364.687h-6.973V446a3 3 0 1 0-6 0v6.973H1165a3 3 0 1 0 0 6h6.972v6.973a3 3 0 1 0 6 0v-6.973h6.973a3 3 0 1 0 0-6m-763 253h-6.973V699a3 3 0 1 0-6 0v6.973H402a3 3 0 1 0 0 6h6.972v6.973a3 3 0 1 0 6 0v-6.973h6.973a3 3 0 1 0 0-6M22.946 653.972h-6.973V647a3 3 0 1 0-6 0v6.972H3a3 3 0 1 0 0 6h6.973v6.974a3 3 0 1 0 6 0v-6.974h6.973a3 3 0 1 0 0-6" fill="#2C2B28"/><path d="M133.084 830.897l-15.317 19.158-8.885-23.146 24.202 3.988zm314-462l-15.317 19.158-8.885-23.146 24.202 3.988zm320-211l-15.317 19.158-8.885-23.146 24.202 3.988zm-424-151l-15.317 19.158-8.885-23.146 24.202 3.988z" stroke="#3D4248" stroke-width="4"/></g></svg>