<svg width="237" height="237" viewBox="0 0 237 237" xmlns="http://www.w3.org/2000/svg"><title>Group 35</title><g fill="#2C2B28" fill-rule="evenodd"><path d="M234.67 151.86a5.303 5.303 0 0 0-7.503 0 5.309 5.309 0 0 0-.004 7.508 5.314 5.314 0 0 0 7.51-.003 5.308 5.308 0 0 0-.002-7.505m-37.529-.003a5.304 5.304 0 0 0-7.507.006 5.302 5.302 0 0 0 0 7.502 5.309 5.309 0 1 0 7.507-7.508m37.531 37.53a5.308 5.308 0 0 0-7.511.002 5.306 5.306 0 0 0 .003 7.506 5.309 5.309 0 1 0 7.508-7.508m0-75.06a5.305 5.305 0 0 0-7.507.006 5.302 5.302 0 0 0-.001 7.502 5.309 5.309 0 1 0 7.508-7.508m-.003 112.593a5.263 5.263 0 0 0-2.74-1.459 5.29 5.29 0 0 0-4.765 1.457 5.29 5.29 0 0 0-1.456 4.764 5.263 5.263 0 0 0 1.458 2.74 5.305 5.305 0 1 0 7.503-7.503m-37.53-37.529a5.303 5.303 0 0 0-7.503 0 5.307 5.307 0 0 0 7.505 7.505 5.308 5.308 0 0 0-.002-7.505M234.673 1.743a5.304 5.304 0 0 0-7.504 0 5.31 5.31 0 0 0-.004 7.508 5.309 5.309 0 1 0 7.508-7.508m-37.528-.002a5.305 5.305 0 0 0-7.508.005 5.304 5.304 0 0 0 0 7.503 5.309 5.309 0 1 0 7.508-7.508m37.529 37.529a5.307 5.307 0 0 0-7.51.003 5.306 5.306 0 0 0 .003 7.506 5.309 5.309 0 1 0 7.507-7.508m-37.531 75.062a5.307 5.307 0 0 0-7.506-.003 5.315 5.315 0 0 0-.002 7.51 5.311 5.311 0 0 0 7.508-.004 5.305 5.305 0 0 0 0-7.503m-37.53-37.53a5.304 5.304 0 0 0-7.503 0 5.31 5.31 0 0 0-.005 7.508 5.309 5.309 0 1 0 7.508-7.508m-37.527-.003a5.305 5.305 0 0 0-7.508.006 5.304 5.304 0 0 0 0 7.503 5.309 5.309 0 1 0 7.508-7.508m37.529 37.529a5.307 5.307 0 0 0-7.51.003 5.306 5.306 0 0 0 .002 7.505 5.309 5.309 0 1 0 7.508-7.508m.001-75.06a5.306 5.306 0 0 0-7.508.005 5.304 5.304 0 0 0 0 7.504 5.309 5.309 0 1 0 7.508-7.508M197.145 76.8a5.308 5.308 0 0 0-7.51.003 5.306 5.306 0 0 0 .002 7.505 5.309 5.309 0 1 0 7.508-7.508m37.528.004a5.308 5.308 0 0 0-7.506-.003 5.254 5.254 0 0 0-1.518 3.39c-.101 1.477.391 2.985 1.521 4.115a5.305 5.305 0 1 0 7.503-7.502m-37.531-37.531a5.304 5.304 0 0 0-7.503 0 5.309 5.309 0 0 0 7.506 7.506 5.309 5.309 0 0 0-.003-7.506m-37.529 112.59a5.308 5.308 0 0 0-8.183 6.67 5.305 5.305 0 1 0 8.183-6.67m-37.53-37.53a5.304 5.304 0 0 0-7.503 0 5.309 5.309 0 0 0 7.506 7.506 5.309 5.309 0 0 0-.003-7.506m.003-75.058a5.31 5.31 0 0 0-3.753-1.555 5.287 5.287 0 0 0-3.752 1.553 5.299 5.299 0 0 0-1.556 3.755 5.287 5.287 0 0 0 1.554 3.755 5.311 5.311 0 0 0 7.507-.004 5.305 5.305 0 0 0 0-7.504M84.557 1.746a5.304 5.304 0 0 0-7.503 0 5.31 5.31 0 0 0-.005 7.508 5.309 5.309 0 1 0 7.508-7.508M47.03 1.744a5.304 5.304 0 0 0-7.508.005 5.303 5.303 0 0 0 0 7.503 5.309 5.309 0 0 0 7.508-7.508m37.529 37.529a5.307 5.307 0 0 0-7.51.003 5.306 5.306 0 0 0 .002 7.505 5.309 5.309 0 1 0 7.508-7.508m37.53-37.53a5.308 5.308 0 0 0-7.51.003 5.306 5.306 0 0 0 .002 7.505 5.309 5.309 0 1 0 7.508-7.508m37.526.003a5.263 5.263 0 0 0-2.74-1.459 5.29 5.29 0 0 0-4.765 1.457 5.29 5.29 0 0 0-1.455 4.765 5.287 5.287 0 0 0 1.458 2.74 5.305 5.305 0 1 0 7.502-7.503m-75.059 75.06a5.263 5.263 0 0 0-2.74-1.459 5.29 5.29 0 0 0-4.765 1.457 5.29 5.29 0 0 0-1.456 4.764 5.263 5.263 0 0 0 1.459 2.74 5.305 5.305 0 1 0 7.502-7.502m-37.529-37.53a5.304 5.304 0 0 0-7.503 0 5.309 5.309 0 0 0 7.506 7.506 5.309 5.309 0 0 0-.003-7.506M9.5 1.75a5.306 5.306 0 1 0-7.502 7.5A5.305 5.305 0 1 0 9.5 1.75M2.298 85.182a5.303 5.303 0 0 0 7.503 0 5.309 5.309 0 0 0 .005-7.508 5.314 5.314 0 0 0-7.51.003 5.308 5.308 0 0 0 .002 7.505m37.528.003a5.304 5.304 0 0 0 7.507-.006 5.302 5.302 0 0 0 .001-7.502 5.309 5.309 0 1 0-7.508 7.508m-37.53-37.53a5.308 5.308 0 0 0 7.511-.002 5.306 5.306 0 0 0-.003-7.506 5.309 5.309 0 1 0-7.508 7.508m0 75.06a5.305 5.305 0 0 0 7.507-.006 5.302 5.302 0 0 0 .001-7.502 5.309 5.309 0 1 0-7.508 7.508"/><path d="M2.3 10.123a5.263 5.263 0 0 0 2.74 1.459 5.29 5.29 0 0 0 4.765-1.457A5.29 5.29 0 0 0 11.26 5.36 5.263 5.263 0 0 0 9.8 2.62a5.305 5.305 0 1 0-7.5 7.503m37.528 37.529a5.303 5.303 0 0 0 7.503 0 5.307 5.307 0 0 0-7.505-7.505 5.308 5.308 0 0 0 .002 7.505M2.296 235.298a5.304 5.304 0 0 0 7.503 0 5.31 5.31 0 0 0 .005-7.508 5.309 5.309 0 1 0-7.508 7.508m37.527.002a5.305 5.305 0 0 0 7.508-.005 5.304 5.304 0 0 0 0-7.503 5.309 5.309 0 1 0-7.508 7.508M2.294 197.771a5.307 5.307 0 0 0 7.51-.003 5.306 5.306 0 0 0-.002-7.505 5.309 5.309 0 1 0-7.508 7.508m37.531-75.062a5.307 5.307 0 0 0 7.506.003 5.315 5.315 0 0 0 .002-7.511 5.311 5.311 0 0 0-7.508.005 5.305 5.305 0 0 0 0 7.503m37.53 37.531a5.304 5.304 0 0 0 7.504 0 5.31 5.31 0 0 0 .004-7.509 5.309 5.309 0 1 0-7.508 7.508m37.528.002a5.305 5.305 0 0 0 7.508-.005 5.304 5.304 0 0 0 0-7.503 5.309 5.309 0 1 0-7.508 7.508m-37.529-37.529a5.307 5.307 0 0 0 7.51-.003 5.306 5.306 0 0 0-.002-7.505 5.309 5.309 0 1 0-7.508 7.508m-.001 75.059a5.306 5.306 0 0 0 7.508-.005 5.304 5.304 0 0 0 0-7.503 5.309 5.309 0 1 0-7.508 7.508m-37.53-37.529a5.308 5.308 0 0 0 7.51-.003 5.306 5.306 0 0 0-.002-7.505 5.309 5.309 0 1 0-7.508 7.508m-37.527-.004a5.308 5.308 0 0 0 7.506.003 5.254 5.254 0 0 0 1.518-3.39c.1-1.477-.392-2.985-1.522-4.115a5.305 5.305 0 1 0-7.502 7.502m37.53 37.53a5.304 5.304 0 0 0 7.503 0 5.309 5.309 0 0 0-7.506-7.506 5.309 5.309 0 0 0 .003 7.506M77.355 85.179a5.308 5.308 0 0 0 8.183-6.67 5.305 5.305 0 1 0-8.183 6.67m37.531 37.53a5.304 5.304 0 0 0 7.503 0 5.309 5.309 0 0 0-7.506-7.506 5.309 5.309 0 0 0 .003 7.506m-.003 75.057a5.31 5.31 0 0 0 3.753 1.556 5.287 5.287 0 0 0 3.752-1.554 5.299 5.299 0 0 0 1.556-3.754 5.287 5.287 0 0 0-1.554-3.755 5.311 5.311 0 0 0-7.507.004 5.305 5.305 0 0 0 0 7.503m37.529 37.529a5.304 5.304 0 0 0 7.503 0 5.31 5.31 0 0 0 .005-7.508 5.309 5.309 0 1 0-7.508 7.508m37.527.002a5.304 5.304 0 0 0 7.508-.005 5.303 5.303 0 0 0 0-7.503 5.309 5.309 0 0 0-7.508 7.508m-37.529-37.529a5.307 5.307 0 0 0 7.51-.003 5.306 5.306 0 0 0-.002-7.505 5.309 5.309 0 1 0-7.508 7.508m-37.53 37.53a5.308 5.308 0 0 0 7.51-.003 5.306 5.306 0 0 0-.002-7.505 5.309 5.309 0 1 0-7.508 7.508m-37.526-.003a5.263 5.263 0 0 0 2.74 1.459 5.29 5.29 0 0 0 4.765-1.457 5.29 5.29 0 0 0 1.455-4.764 5.287 5.287 0 0 0-1.458-2.74 5.305 5.305 0 1 0-7.502 7.502m75.059-75.059a5.263 5.263 0 0 0 2.74 1.459 5.29 5.29 0 0 0 4.765-1.457 5.29 5.29 0 0 0 1.456-4.764 5.263 5.263 0 0 0-1.46-2.74 5.305 5.305 0 1 0-7.501 7.502m37.529 37.529a5.304 5.304 0 0 0 7.503 0 5.309 5.309 0 0 0-7.506-7.506 5.309 5.309 0 0 0 .003 7.506m37.528 37.527a5.306 5.306 0 1 0 7.501-7.502 5.305 5.305 0 1 0-7.502 7.502"/></g></svg>