<svg xmlns="http://www.w3.org/2000/svg" xmlns:xlink="http://www.w3.org/1999/xlink" width="1440" height="689" viewBox="0 0 1440 689"><defs><linearGradient id="b" x1="102.475%" x2="-21.709%" y1="24.882%" y2="119.363%"><stop offset="0%" stop-color="#3A0A9B"/><stop offset="100%" stop-color="#C14FFB"/></linearGradient><path id="a" d="M1454.48 819.549l-1340.143 3.608c-32.847.088-59.659-26.251-60.155-59.094l-4.197-277.905 63.848-362.032 1418.182 250.026-77.536 445.397z"/></defs><g fill="none" fill-rule="evenodd" transform="translate(-64 -11)"><mask id="c" fill="#fff"><use xlink:href="#a"/></mask><use fill="url(#b)" transform="scale(1 -1) rotate(-10 -4622.749 0)" xlink:href="#a"/><path fill="#BDA3E0" d="M1263.004 482.562c23.306-2.861 46.594 5.331 61.114 21.5l214.026 232.688c7.452 8.298 12.151 18.223 13.585 28.692 4.326 31.58-21.496 60.242-57.676 64.018l-936.55 97.746c-22.11 2.307-44.06-5.275-58.373-20.164L266.444 693.886c-7.946-8.265-13.071-18.311-14.793-28.995-5.075-31.496 20.061-60.619 56.143-65.049l955.21-117.28z" mask="url(#c)" opacity=".1"/><path fill="#BDA3E0" d="M1513.772 162.72a57.589 57.589 0 0 1 53.464 21.49l321.184 390.875a57.589 57.589 0 0 1 11.839 28.568c3.84 31.572-18.64 60.28-50.213 64.12l-657.029 84.146a57.589 57.589 0 0 1-51.069-20.15L804.48 360.411a57.589 57.589 0 0 1-12.895-28.882c-4.493-31.486 17.389-60.653 48.875-65.146l673.312-103.663z" mask="url(#c)" opacity=".1"/><circle cx="168" cy="222" r="221" stroke="#FFF" stroke-width="150" mask="url(#c)" opacity=".1"/></g></svg>