<svg xmlns="http://www.w3.org/2000/svg" width="17" height="13" viewBox="0 0 17 13">
    <g fill="none" fill-rule="evenodd" stroke="#8591B0" stroke-width="1.5">
        <path d="M15.417 3.397c0-.7-.047-.94-.179-1.187a1.068 1.068 0 0 0-.448-.448c-.247-.132-.488-.179-1.187-.179H2.73c-.7 0-.94.047-1.187.179a1.068 1.068 0 0 0-.449.448c-.132.247-.178.488-.178 1.187v6.872c0 .7.046.94.178 1.187.105.196.253.344.449.449.246.132.487.178 1.187.178h10.872c.7 0 .94-.046 1.187-.178.195-.105.344-.253.448-.449.132-.246.179-.487.179-1.187V3.397z"/>
        <path stroke-linecap="round" stroke-linejoin="round" d="M1.915 2.921l6.252 4 6.252-4"/>
    </g>
</svg>
