<svg xmlns="http://www.w3.org/2000/svg" width="44" height="44" viewBox="0 0 44 44"><g fill="none" fill-rule="evenodd"><circle cx="22" cy="22" r="22" fill="#FFF"/><path fill="#989DAC" d="M23.001 14.545v9.51a.96.96 0 0 1-1.92 0v-9.533l-1.424 1.698a.96.96 0 1 1-1.471-1.235l3.045-3.629a.958.958 0 0 1 .765-.342c.306-.03.62.085.832.338l3.045 3.629a.96.96 0 0 1-1.47 1.234L23 14.545z"/><path fill="#989DAC" fill-rule="nonzero" d="M29.36 32.992H14.64a2.55 2.55 0 0 1-2.64-2.44v-10.11a2.55 2.55 0 0 1 2.64-2.44h1.64a1 1 0 1 1 0 2h-1.64c-.37 0-.64.23-.64.44v10.11c0 .21.26.44.64.44h14.72c.38 0 .64-.23.64-.44v-10.11c0-.21-.26-.44-.64-.44h-1.64a1 1 0 0 1 0-2h1.64a2.55 2.55 0 0 1 2.63 2.44v10.11a2.55 2.55 0 0 1-2.63 2.44z"/></g></svg>