<svg xmlns="http://www.w3.org/2000/svg" xmlns:xlink="http://www.w3.org/1999/xlink" width="1440" height="700" viewBox="0 0 1440 700"><defs><linearGradient id="b" x1="102.475%" x2="-21.709%" y1="24.882%" y2="119.363%"><stop offset="0%" stop-color="#3A0A9B"/><stop offset="19.064%" stop-color="#5417AD"/><stop offset="100%" stop-color="#C14FFB"/></linearGradient><path id="a" d="M285.722 98.218l1382.284 72.42c13.236.694 23.405 11.987 22.711 25.223a24 24 0 0 1-4.495 12.774l-182.035 252.66a100 100 0 0 1-57.104 38.614L69.849 840.86c-12.866 3.185-25.878-4.663-29.064-17.53a24 24 0 0 1-.125-11.005L182.9 176.257c10.648-47.613 54.1-80.592 102.822-78.04z"/><circle id="e" cx="1381" cy="354" r="6"/><filter id="d" width="500%" height="500%" x="-200%" y="-200%" filterUnits="objectBoundingBox"><feOffset in="SourceAlpha" result="shadowOffsetOuter1"/><feGaussianBlur in="shadowOffsetOuter1" result="shadowBlurOuter1" stdDeviation="8"/><feColorMatrix in="shadowBlurOuter1" values="0 0 0 0 0.576470588 0 0 0 0 0.435294118 0 0 0 0 0.788235294 0 0 0 0.44 0"/></filter></defs><g fill="none" fill-rule="evenodd" transform="translate(-145 -28)"><mask id="c" fill="#fff"><use xlink:href="#a"/></mask><use fill="url(#b)" transform="rotate(7 865.416 469.824)" xlink:href="#a"/><path fill="#FFF" d="M894.254 495.593l205.538 323.655c19.245 30.304 10.28 70.472-20.025 89.717a65 65 0 0 1-34.846 10.129H633.846c-35.899 0-65-29.102-65-65a65 65 0 0 1 10.13-34.846l205.537-323.655c19.245-30.304 59.412-39.27 89.716-20.025a65 65 0 0 1 20.025 20.025z" mask="url(#c)" opacity=".1" transform="rotate(-42 839.386 679.094)"/><circle cx="1538" cy="195" r="150" stroke="#FFF" stroke-width="120" mask="url(#c)" opacity=".1"/><path fill="#FFF" d="M-860.984-177.088l1403.048 73.509c13.237.693 23.405 11.986 22.711 25.223a24 24 0 0 1-6.526 15.231L290.875 219.711a100 100 0 0 1-48.672 28.382l-1290.381 318.982c-12.868 3.18-25.878-4.672-29.059-17.54a24 24 0 0 1-.122-10.997l148.512-664.12c7.028-31.424 35.706-53.19 67.863-51.506z" mask="url(#c)" opacity=".1" transform="rotate(156 -256.564 195.301)"/><rect width="756.137" height="1500" x="1136.596" y="4.665" stroke="#936FC9" stroke-width="2" mask="url(#c)" rx="60" transform="rotate(45 1514.665 754.665)"/><g fill-rule="nonzero" mask="url(#c)" transform="rotate(180 1381 354)"><use fill="#000" filter="url(#d)" xlink:href="#e"/><use fill="#936FC9" fill-rule="evenodd" xlink:href="#e"/></g><rect width="1000" height="1000" x="-427.893" y="-290.893" stroke="#BA83E4" stroke-width="2" mask="url(#c)" rx="60" transform="rotate(45 72.107 209.107)"/></g></svg>