<svg width="32" height="18" xmlns="http://www.w3.org/2000/svg" xmlns:xlink="http://www.w3.org/1999/xlink"><defs><path d="M28.135 6.11V4.365a.877.877 0 0 0-.88-.875H4.397a.876.876 0 0 0-.88.875v8.723c0 .483.394.875.88.875h22.858c.489 0 .88-.392.88-.875v-2.616H7.034v-3.49h24.618v6.982c0 1.928-1.575 3.49-3.516 3.49H3.516C1.574 17.455 0 15.89 0 13.965V3.49C0 1.563 1.575 0 3.516 0h24.62c1.942 0 3.516 1.564 3.516 3.49v2.62h-3.517z" id="b"/><filter x="-50%" y="-50%" width="200%" height="200%" filterUnits="objectBoundingBox" id="a"><feOffset dy="1" in="SourceAlpha" result="shadowOffsetOuter1"/><feGaussianBlur stdDeviation="1" in="shadowOffsetOuter1" result="shadowBlurOuter1"/><feColorMatrix values="0 0 0 0 0 0 0 0 0 0 0 0 0 0 0 0 0 0 0.24 0" in="shadowBlurOuter1"/></filter></defs><g fill="none" fill-rule="evenodd"><use fill="#000" filter="url(#a)" xlink:href="#b"/><use fill="#056BB3" xlink:href="#b"/></g></svg>