<svg width="215" height="58" xmlns="http://www.w3.org/2000/svg" xmlns:xlink="http://www.w3.org/1999/xlink"><defs><path d="M65.237 14.255v-4.068a2.04 2.04 0 0 0-2.04-2.042H10.195c-1.132 0-2.04.914-2.04 2.042V30.54a2.04 2.04 0 0 0 2.04 2.042h53.002c1.132 0 2.04-.914 2.04-2.042v-6.104H16.309v-8.145h57.082v16.292c0 4.498-3.652 8.144-8.152 8.144H8.152C3.65 40.727 0 37.077 0 32.583V8.143C0 3.647 3.652 0 8.152 0H65.24c4.502 0 8.152 3.65 8.152 8.144v6.11h-8.154z" id="b"/><filter x="-50%" y="-50%" width="200%" height="200%" filterUnits="objectBoundingBox" id="a"><feOffset dy="2" in="SourceAlpha" result="shadowOffsetOuter1"/><feGaussianBlur stdDeviation="2" in="shadowOffsetOuter1" result="shadowBlurOuter1"/><feColorMatrix values="0 0 0 0 0 0 0 0 0 0 0 0 0 0 0 0 0 0 0.24 0" in="shadowBlurOuter1"/></filter></defs><g fill="none" fill-rule="evenodd"><g transform="translate(4 2)"><use fill="#000" filter="url(#a)" xlink:href="#b"/><use fill="#056BB3" xlink:href="#b"/></g><path d="M93.92 14.626V11.48h7.203v6.444c-1.378.942-2.598 1.583-3.658 1.923-1.06.34-2.317.51-3.77.51-1.791 0-3.25-.305-4.38-.917-1.128-.612-2.002-1.523-2.623-2.732-.621-1.21-.931-2.599-.931-4.166 0-1.65.34-3.085 1.018-4.305.68-1.22 1.674-2.147 2.984-2.78 1.022-.487 2.398-.731 4.127-.731 1.667 0 2.913.15 3.74.453a4.855 4.855 0 0 1 2.058 1.408c.545.636.955 1.442 1.23 2.418l-4.497.804c-.185-.57-.5-1.007-.942-1.31-.442-.302-1.006-.453-1.692-.453-1.022 0-1.837.356-2.444 1.067-.607.712-.91 1.837-.91 3.377 0 1.636.306 2.805.92 3.506.614.701 1.47 1.052 2.567 1.052.522 0 1.02-.076 1.493-.227.473-.151 1.015-.409 1.625-.773v-1.423H93.92zm10.033 5.475V4.984h7.77c1.44 0 2.54.124 3.302.372a3.517 3.517 0 0 1 1.842 1.376c.467.67.7 1.487.7 2.45 0 .838-.178 1.561-.535 2.17a4.188 4.188 0 0 1-1.472 1.48c-.398.24-.943.44-1.636.598.556.185.96.37 1.214.556.172.124.42.389.746.794.326.406.544.719.654.939l2.253 4.382h-5.268l-2.49-4.62c-.316-.598-.597-.986-.844-1.165a1.953 1.953 0 0 0-1.142-.35h-.412V20.1h-4.682zm4.682-8.992h1.966c.212 0 .624-.068 1.234-.206.31-.062.561-.22.757-.474.195-.254.293-.547.293-.877 0-.488-.154-.862-.463-1.124-.309-.26-.888-.391-1.74-.391h-2.047v3.072zm11.834-6.125h4.671v15.117h-4.671V4.984zm7.203 10.116l4.435-.278c.096.721.291 1.271.586 1.65.48.611 1.166.917 2.058.917.666 0 1.178-.156 1.539-.47.36-.312.54-.674.54-1.087 0-.392-.172-.742-.515-1.052-.343-.309-1.138-.601-2.387-.876-2.044-.46-3.502-1.073-4.373-1.836-.878-.763-1.317-1.735-1.317-2.918 0-.777.224-1.51.674-2.201.449-.691 1.125-1.234 2.027-1.63.902-.395 2.138-.592 3.71-.592 1.927 0 3.397.359 4.409 1.077 1.011.719 1.613 1.861 1.805 3.429l-4.393.258c-.117-.681-.362-1.176-.736-1.485-.374-.31-.89-.464-1.549-.464-.542 0-.95.115-1.224.345-.275.23-.412.51-.412.84 0 .241.113.458.34.65.22.2.74.385 1.564.557 2.037.44 3.497.885 4.378 1.335.882.45 1.523 1.01 1.924 1.676a4.25 4.25 0 0 1 .602 2.237 4.8 4.8 0 0 1-.802 2.681c-.535.818-1.283 1.439-2.243 1.862-.96.422-2.172.634-3.633.634-2.565 0-4.342-.495-5.33-1.485-.988-.99-1.547-2.248-1.677-3.774zM142.15 4.984h4.424l1.595 8.446 2.326-8.446h4.414l2.336 8.446 1.595-8.446h4.404l-3.323 15.117h-4.57l-2.644-9.517-2.634 9.517h-4.569L142.15 4.984zm21.68 7.569c0-2.468.687-4.39 2.059-5.764 1.372-1.375 3.282-2.062 5.731-2.062 2.511 0 4.446.675 5.804 2.026 1.358 1.35 2.037 3.243 2.037 5.676 0 1.767-.296 3.216-.89 4.347a6.353 6.353 0 0 1-2.572 2.64c-1.122.628-2.52.943-4.193.943-1.702 0-3.11-.272-4.225-.815-1.114-.543-2.018-1.402-2.71-2.578-.694-1.175-1.04-2.646-1.04-4.413zm4.662.02c0 1.527.283 2.623.85 3.29.565.667 1.335 1 2.31 1 1 0 1.776-.326 2.325-.98.549-.652.823-1.824.823-3.516 0-1.423-.287-2.462-.86-3.119-.572-.656-1.349-.985-2.33-.985-.94 0-1.694.334-2.264 1-.57.667-.854 1.77-.854 3.31zm13.48-7.589h4.661V16.38h7.275v3.72h-11.936V4.984zm14.118 0h6.925c1.365 0 2.468.186 3.308.557a5.38 5.38 0 0 1 2.084 1.599 6.623 6.623 0 0 1 1.194 2.423c.247.92.37 1.897.37 2.928 0 1.616-.183 2.868-.55 3.759-.367.89-.877 1.636-1.528 2.237-.652.602-1.352 1.002-2.1 1.202-1.022.275-1.948.412-2.778.412h-6.925V4.984zm4.661 3.424v8.26h1.142c.975 0 1.667-.109 2.08-.326.41-.216.733-.594.966-1.134.234-.54.35-1.414.35-2.624 0-1.602-.26-2.698-.782-3.29-.521-.59-1.386-.886-2.593-.886h-1.163zM96.38 35.042l4.085 1.238c-.274 1.148-.707 2.107-1.297 2.877a5.628 5.628 0 0 1-2.197 1.742c-.874.392-1.987.588-3.339.588-1.64 0-2.979-.239-4.018-.717-1.04-.477-1.936-1.318-2.69-2.52-.755-1.204-1.133-2.744-1.133-4.62 0-2.503.664-4.426 1.991-5.77 1.328-1.344 3.206-2.016 5.634-2.016 1.9 0 3.394.385 4.482 1.155 1.087.77 1.895 1.953 2.423 3.548l-4.116.917c-.144-.46-.295-.797-.453-1.01a2.683 2.683 0 0 0-.957-.825 2.745 2.745 0 0 0-1.266-.289c-1.056 0-1.865.426-2.428 1.279-.425.632-.638 1.625-.638 2.98 0 1.677.254 2.827.762 3.449.507.622 1.22.933 2.14.933.892 0 1.566-.25 2.022-.753.456-.502.787-1.23.993-2.186zm5.762-1.371c0-2.468.686-4.39 2.058-5.764 1.372-1.375 3.283-2.063 5.732-2.063 2.51 0 4.445.676 5.803 2.027 1.359 1.35 2.038 3.243 2.038 5.676 0 1.767-.297 3.216-.89 4.346a6.353 6.353 0 0 1-2.573 2.64c-1.121.63-2.52.944-4.193.944-1.701 0-3.11-.272-4.224-.815-1.115-.543-2.019-1.402-2.712-2.578-.692-1.175-1.039-2.646-1.039-4.413zm4.662.02c0 1.527.283 2.623.848 3.29.566.667 1.336 1 2.31 1 1.002 0 1.777-.326 2.326-.98.549-.653.823-1.825.823-3.516 0-1.423-.286-2.462-.859-3.119-.573-.656-1.35-.985-2.33-.985-.94 0-1.695.334-2.264 1-.57.667-.854 1.77-.854 3.31zm13.51-7.589h4.353l5.68 8.363v-8.363h4.394V41.22h-4.394l-5.65-8.3v8.3h-4.383V26.102zm16.464 0h14.17v3.733h-4.754v11.384h-4.662V29.835h-4.754v-3.733zm16.34 15.117V26.102h7.77c1.44 0 2.541.124 3.303.371a3.517 3.517 0 0 1 1.842 1.377c.466.67.7 1.487.7 2.449 0 .839-.179 1.562-.536 2.17a4.188 4.188 0 0 1-1.471 1.48c-.398.24-.943.44-1.636.598.556.186.96.372 1.214.557.172.124.42.389.746.794.326.406.544.719.654.938l2.253 4.383h-5.268l-2.49-4.62c-.316-.598-.597-.986-.844-1.165a1.953 1.953 0 0 0-1.143-.35h-.411v6.135h-4.682zm4.683-8.992h1.965c.213 0 .624-.068 1.235-.206.309-.062.56-.22.756-.474a1.4 1.4 0 0 0 .294-.877c0-.488-.155-.862-.463-1.124-.31-.26-.889-.392-1.74-.392h-2.047v3.073zm10.701 1.444c0-2.468.686-4.39 2.058-5.764 1.372-1.375 3.283-2.063 5.732-2.063 2.51 0 4.445.676 5.804 2.027 1.358 1.35 2.037 3.243 2.037 5.676 0 1.767-.297 3.216-.89 4.346a6.353 6.353 0 0 1-2.573 2.64c-1.121.63-2.519.944-4.193.944-1.701 0-3.11-.272-4.224-.815-1.115-.543-2.018-1.402-2.711-2.578-.693-1.175-1.04-2.646-1.04-4.413zm4.662.02c0 1.527.283 2.623.849 3.29.566.667 1.336 1 2.31 1 1.001 0 1.777-.326 2.325-.98.55-.653.824-1.825.824-3.516 0-1.423-.287-2.462-.86-3.119-.572-.656-1.35-.985-2.33-.985-.94 0-1.695.334-2.264 1-.57.667-.854 1.77-.854 3.31zm13.48-7.589h4.661v11.394h7.275v3.723h-11.936V26.102zm13.243 10.116l4.435-.279c.096.722.291 1.272.586 1.65.48.612 1.167.918 2.058.918.666 0 1.179-.156 1.539-.47.36-.312.54-.675.54-1.087 0-.392-.171-.743-.514-1.052-.343-.31-1.14-.601-2.388-.876-2.044-.46-3.502-1.073-4.373-1.836-.878-.763-1.317-1.736-1.317-2.918 0-.777.225-1.51.674-2.201.45-.691 1.125-1.234 2.027-1.63.902-.395 2.139-.593 3.71-.593 1.927 0 3.397.36 4.409 1.078 1.012.718 1.614 1.861 1.806 3.429l-4.394.257c-.117-.68-.362-1.175-.736-1.484-.374-.31-.89-.464-1.549-.464-.541 0-.95.115-1.224.345-.274.23-.412.51-.412.84 0 .24.114.457.34.65.22.2.74.385 1.564.557 2.037.44 3.497.885 4.378 1.335.882.45 1.523 1.009 1.925 1.676.401.667.602 1.412.602 2.237a4.8 4.8 0 0 1-.803 2.681c-.535.818-1.283 1.439-2.243 1.861-.96.423-2.171.635-3.633.635-2.565 0-4.342-.495-5.33-1.485-.988-.99-1.547-2.248-1.677-3.774zm13.581-31.97c0 .403-.1.778-.301 1.125a2.21 2.21 0 0 1-.822.822c-.347.2-.721.3-1.123.3-.4 0-.773-.1-1.12-.3a2.21 2.21 0 0 1-.822-.822 2.211 2.211 0 0 1-.301-1.125c0-.4.1-.775.301-1.124.201-.349.475-.623.822-.823.347-.2.72-.301 1.12-.301.402 0 .776.1 1.123.3.347.2.621.475.822.824.2.349.301.723.301 1.124zm-.435 0c0-.5-.177-.929-.53-1.283a1.743 1.743 0 0 0-1.28-.532c-.5 0-.927.177-1.281.532a1.75 1.75 0 0 0-.53 1.283c0 .5.176.928.53 1.283.354.354.78.532 1.28.532s.927-.178 1.28-.532a1.75 1.75 0 0 0 .531-1.283zm-2.828-1.202h1.073c.304 0 .524.061.66.184a.632.632 0 0 1 .204.493.616.616 0 0 1-.155.419c-.104.118-.268.203-.491.256.092.036.16.073.202.112.061.055.125.137.191.245l.389.695h-.706c-.23-.458-.383-.731-.462-.82-.078-.09-.156-.135-.235-.135a.425.425 0 0 0-.073.01v.945h-.597V3.046zm.597 1.02h.258c.173 0 .294-.029.365-.085a.264.264 0 0 0 .106-.216.268.268 0 0 0-.102-.217c-.067-.056-.182-.084-.345-.084h-.282v.601zM9.359 56.402H8.186l-.466-1.235H5.585l-.441 1.235H4l2.08-5.437h1.14l2.139 5.437zM7.373 54.25l-.735-2.017-.722 2.017h1.457zm4.361 2.15v-5.436h3.662v.92h-2.583v1.287h2.23v.92h-2.23v2.31h-1.079zm4.543 0v-5.436h1.024v5.437h-1.024zm1.836-2.024c0-.346.084-.681.252-1.005.167-.324.405-.571.712-.742a2.09 2.09 0 0 1 1.03-.255c.584 0 1.064.193 1.438.58.374.387.561.876.561 1.467 0 .595-.189 1.09-.566 1.481-.378.392-.853.588-1.427.588-.354 0-.692-.082-1.014-.245a1.663 1.663 0 0 1-.734-.718c-.168-.315-.252-.699-.252-1.151zm1.05.056c0 .39.09.69.273.897a.862.862 0 0 0 .674.312.856.856 0 0 0 .672-.312c.18-.208.271-.51.271-.905 0-.385-.09-.682-.271-.89a.856.856 0 0 0-.672-.311.862.862 0 0 0-.674.311c-.182.208-.273.507-.273.898zm4.466 1.969l-1.224-3.938h.994l.725 2.58.667-2.58h.987l.645 2.58.74-2.58h1.009l-1.242 3.938h-.984l-.667-2.533-.656 2.533h-.994zm8.507-1.999l1.045.337c-.16.594-.427 1.034-.8 1.322-.372.288-.845.432-1.419.432-.709 0-1.292-.246-1.748-.74-.457-.493-.685-1.167-.685-2.022 0-.905.23-1.608.688-2.108.46-.501 1.063-.751 1.811-.751.653 0 1.184.196 1.592.59.243.232.425.565.547 1l-1.068.26a1.156 1.156 0 0 0-.395-.667 1.12 1.12 0 0 0-.73-.245c-.397 0-.718.145-.964.434-.247.289-.37.758-.37 1.405 0 .687.121 1.177.364 1.469.243.291.559.437.948.437.286 0 .533-.092.74-.278.206-.185.354-.477.444-.875zm1.726-.026c0-.346.084-.681.252-1.005.167-.324.405-.571.712-.742a2.09 2.09 0 0 1 1.03-.255c.584 0 1.064.193 1.438.58.374.387.561.876.561 1.467 0 .595-.189 1.09-.566 1.481-.378.392-.853.588-1.427.588-.354 0-.692-.082-1.014-.245a1.663 1.663 0 0 1-.734-.718c-.168-.315-.252-.699-.252-1.151zm1.05.056c0 .39.09.69.273.897a.862.862 0 0 0 .674.312.856.856 0 0 0 .672-.312c.18-.208.271-.51.271-.905 0-.385-.09-.682-.271-.89a.856.856 0 0 0-.672-.311.862.862 0 0 0-.674.311c-.182.208-.273.507-.273.898zm7.264 1.969h-1.024v-2.01c0-.425-.022-.7-.065-.825a.578.578 0 0 0-.214-.291.601.601 0 0 0-.355-.104.81.81 0 0 0-.477.148.746.746 0 0 0-.29.393c-.052.163-.078.465-.078.905v1.784H38.65v-3.938h.951v.578c.338-.445.763-.667 1.275-.667.226 0 .433.041.62.124.187.083.328.188.424.317.096.128.163.274.2.437.038.164.057.397.057.701v2.448zm3.086 0v-5.437h1.078v5.437h-1.078zm5.617 0h-1.024v-2.01c0-.425-.021-.7-.065-.825a.578.578 0 0 0-.213-.291.601.601 0 0 0-.355-.104.81.81 0 0 0-.478.148.746.746 0 0 0-.29.393c-.052.163-.078.465-.078.905v1.784h-1.023v-3.938h.95v.578c.338-.445.763-.667 1.276-.667.225 0 .432.041.619.124.187.083.328.188.424.317.096.128.163.274.2.437.038.164.057.397.057.701v2.448zm2.813-3.938v.83h-.7v1.587c0 .322.007.509.02.562a.229.229 0 0 0 .091.132.285.285 0 0 0 .173.052c.095 0 .232-.034.412-.1l.087.808a2.004 2.004 0 0 1-.808.156 1.27 1.27 0 0 1-.5-.095.73.73 0 0 1-.325-.245.977.977 0 0 1-.144-.406c-.022-.12-.033-.366-.033-.734v-1.717h-.47v-.83h.47v-.783l1.027-.608v1.39h.7zm2.95 2.684l1.02.175c-.13.38-.338.67-.62.87-.284.198-.637.298-1.063.298-.672 0-1.17-.224-1.493-.671-.255-.359-.383-.811-.383-1.358 0-.652.168-1.163.503-1.533a1.64 1.64 0 0 1 1.271-.554c.576 0 1.03.193 1.363.58.333.387.492.98.477 1.778h-2.564c.007.309.09.55.247.721a.769.769 0 0 0 .59.258.62.62 0 0 0 .405-.133c.11-.09.192-.233.248-.43zm.059-1.053c-.007-.301-.084-.53-.23-.688a.699.699 0 0 0-.532-.235.705.705 0 0 0-.553.248c-.146.166-.218.39-.215.675h1.53zm2.83 2.307h-1.023v-3.938h.95v.56c.163-.265.31-.44.44-.523a.797.797 0 0 1 .442-.126c.233 0 .458.065.674.196l-.317.909c-.172-.114-.332-.17-.48-.17a.562.562 0 0 0-.365.12c-.1.08-.178.225-.235.435-.057.21-.086.65-.086 1.32v1.217zm5.443 0h-1.023v-2.01c0-.425-.022-.7-.066-.825a.578.578 0 0 0-.213-.291.601.601 0 0 0-.355-.104.81.81 0 0 0-.478.148.746.746 0 0 0-.29.393c-.051.163-.078.465-.078.905v1.784h-1.023v-3.938h.95v.578c.338-.445.763-.667 1.276-.667.226 0 .432.041.619.124.187.083.328.188.424.317.096.128.163.274.2.437.038.164.057.397.057.701v2.448zm1.804-2.737l-.93-.17c.105-.381.285-.663.54-.846.255-.183.634-.274 1.136-.274.457 0 .797.055 1.02.165.224.11.381.25.472.419.091.169.137.48.137.932l-.011 1.217c0 .346.016.6.05.765.032.165.093.34.183.529h-1.013a3.881 3.881 0 0 1-.098-.308 1.898 1.898 0 0 0-.036-.122 1.844 1.844 0 0 1-.562.389c-.199.086-.411.13-.637.13-.398 0-.712-.11-.942-.33a1.107 1.107 0 0 1-.344-.835c0-.222.052-.42.157-.595a1.03 1.03 0 0 1 .439-.4c.188-.093.46-.174.814-.243.478-.092.81-.177.994-.256v-.104c0-.2-.048-.343-.145-.428-.097-.086-.28-.128-.55-.128-.183 0-.325.036-.427.11-.102.072-.184.2-.247.383zm1.37.846a6.307 6.307 0 0 1-.624.159c-.284.062-.47.122-.557.182a.437.437 0 0 0-.2.367c0 .146.053.272.16.378.107.106.243.16.408.16.185 0 .36-.062.528-.186a.652.652 0 0 0 .244-.345c.027-.089.04-.258.04-.508v-.207zm3.788-2.047v.83h-.7v1.587c0 .322.007.509.02.562a.229.229 0 0 0 .092.132.285.285 0 0 0 .173.052c.095 0 .232-.034.412-.1l.087.808a2.004 2.004 0 0 1-.809.156c-.184 0-.35-.032-.499-.095a.73.73 0 0 1-.326-.245.977.977 0 0 1-.144-.406c-.022-.12-.033-.366-.033-.734v-1.717h-.47v-.83h.47v-.783l1.028-.608v1.39h.7zm.71-.534v-.965h1.024v.965h-1.023zm0 4.472v-3.938h1.024v3.938h-1.023zm1.837-2.025c0-.346.083-.681.251-1.005.168-.324.405-.571.712-.742.308-.17.65-.255 1.03-.255.585 0 1.064.193 1.438.58.375.387.562.876.562 1.467 0 .595-.19 1.09-.567 1.481-.378.392-.853.588-1.426.588-.355 0-.693-.082-1.015-.245a1.663 1.663 0 0 1-.734-.718c-.168-.315-.251-.699-.251-1.151zm1.049.056c0 .39.091.69.273.897a.862.862 0 0 0 .674.312.856.856 0 0 0 .672-.312c.181-.208.272-.51.272-.905 0-.385-.09-.682-.272-.89a.856.856 0 0 0-.672-.311.862.862 0 0 0-.674.311c-.182.208-.273.507-.273.898zm7.264 1.969h-1.023v-2.01c0-.425-.022-.7-.066-.825a.578.578 0 0 0-.213-.291.601.601 0 0 0-.355-.104.81.81 0 0 0-.478.148.746.746 0 0 0-.29.393c-.051.163-.078.465-.078.905v1.784H79.27v-3.938h.95v.578c.338-.445.763-.667 1.276-.667.226 0 .432.041.619.124.187.083.328.188.424.317.096.128.163.274.2.437.038.164.057.397.057.701v2.448zm1.804-2.737l-.93-.17c.105-.381.285-.663.54-.846.255-.183.634-.274 1.136-.274.457 0 .797.055 1.02.165.224.11.381.25.472.419.091.169.137.48.137.932l-.011 1.217c0 .346.016.6.05.765.032.165.093.34.183.529h-1.013a3.881 3.881 0 0 1-.098-.308 1.898 1.898 0 0 0-.037-.122 1.844 1.844 0 0 1-.56.389c-.2.086-.412.13-.638.13-.398 0-.712-.11-.942-.33a1.107 1.107 0 0 1-.344-.835c0-.222.052-.42.157-.595a1.03 1.03 0 0 1 .439-.4c.188-.093.46-.174.814-.243.478-.092.81-.177.994-.256v-.104c0-.2-.048-.343-.145-.428-.098-.086-.28-.128-.55-.128-.183 0-.325.036-.427.11-.102.072-.184.2-.247.383zm1.37.846a6.307 6.307 0 0 1-.624.159c-.284.062-.47.122-.557.182a.437.437 0 0 0-.2.367c0 .146.053.272.16.378.107.106.243.16.408.16.185 0 .36-.062.528-.186a.652.652 0 0 0 .244-.345c.027-.089.04-.258.04-.508v-.207zm2.014 1.89v-5.436h1.024v5.437h-1.024zm3.6.093l1.322-5.621h.768l-1.337 5.621h-.754zm7.183-2.091v-.916h2.325v2.166c-.226.222-.553.418-.982.587-.429.17-.863.254-1.302.254-.56 0-1.046-.119-1.461-.357a2.26 2.26 0 0 1-.937-1.024 3.357 3.357 0 0 1-.313-1.448c0-.566.117-1.07.35-1.51.233-.44.574-.777 1.024-1.012.342-.18.768-.27 1.278-.27.663 0 1.181.141 1.554.424.373.283.613.675.72 1.174l-1.072.204a1.152 1.152 0 0 0-.424-.632c-.208-.155-.467-.232-.778-.232-.47 0-.846.152-1.124.456-.278.304-.417.755-.417 1.354 0 .645.141 1.129.423 1.451.282.323.65.484 1.107.484.226 0 .453-.045.68-.135.227-.09.422-.2.584-.328v-.69h-1.235zm4.292 1.999h-1.024v-3.938h.951v.56c.163-.265.31-.44.44-.523a.797.797 0 0 1 .442-.126c.233 0 .458.065.674.196l-.317.909c-.173-.114-.333-.17-.481-.17a.562.562 0 0 0-.364.12c-.1.08-.178.225-.235.435-.057.21-.086.65-.086 1.32v1.217zm1.924-4.472v-.965h1.023v.965h-1.023zm0 4.472v-3.938h1.023v3.938h-1.023zm1.712-1.124l1.027-.16a.769.769 0 0 0 .266.462c.134.105.32.158.561.158.265 0 .464-.05.598-.148a.333.333 0 0 0 .134-.278.276.276 0 0 0-.072-.197c-.051-.05-.166-.095-.343-.137-.826-.186-1.35-.355-1.57-.508a1.02 1.02 0 0 1-.46-.887 1.1 1.1 0 0 1 .398-.86c.265-.232.675-.348 1.231-.348.53 0 .923.087 1.18.263.258.175.435.435.533.779l-.966.181a.608.608 0 0 0-.235-.352c-.115-.082-.28-.122-.493-.122-.27 0-.463.038-.58.115a.248.248 0 0 0-.116.211c0 .074.034.137.102.19.092.068.41.166.956.292.545.126.926.28 1.142.464.214.185.32.443.32.775 0 .36-.147.67-.444.93-.296.26-.734.39-1.315.39-.527 0-.944-.109-1.251-.327a1.504 1.504 0 0 1-.603-.886zm5.231 1.124l-1.224-3.938h.995l.725 2.58.666-2.58h.988l.645 2.58.74-2.58h1.008l-1.242 3.938h-.984l-.666-2.533-.656 2.533h-.995zm4.846-2.025c0-.346.083-.681.251-1.005.168-.324.405-.571.712-.742a2.09 2.09 0 0 1 1.03-.255c.585 0 1.064.193 1.438.58.374.387.561.876.561 1.467 0 .595-.188 1.09-.566 1.481-.378.392-.853.588-1.426.588-.355 0-.693-.082-1.015-.245a1.663 1.663 0 0 1-.734-.718c-.168-.315-.251-.699-.251-1.151zm1.049.056c0 .39.09.69.273.897a.862.862 0 0 0 .674.312.856.856 0 0 0 .672-.312c.181-.208.272-.51.272-.905 0-.385-.09-.682-.272-.89a.856.856 0 0 0-.672-.311.862.862 0 0 0-.674.311c-.182.208-.273.507-.273.898zm3.745 1.969v-5.437h1.024v5.437h-1.024zm5.621 0h-.95v-.579a1.545 1.545 0 0 1-.56.503c-.215.11-.432.165-.65.165-.445 0-.825-.183-1.142-.547-.317-.365-.476-.874-.476-1.526 0-.668.155-1.175.463-1.522a1.496 1.496 0 0 1 1.17-.521c.432 0 .806.183 1.121.548v-1.958h1.024v5.437zm-2.732-2.055c0 .42.057.725.171.913.165.272.396.408.692.408.236 0 .436-.102.601-.306.166-.204.248-.51.248-.915 0-.452-.08-.778-.24-.977a.756.756 0 0 0-.616-.298.764.764 0 0 0-.61.295c-.164.196-.246.49-.246.88zm9.239.056l1.045.337c-.16.594-.427 1.034-.8 1.322-.372.288-.845.432-1.418.432-.71 0-1.292-.246-1.749-.74-.457-.493-.685-1.167-.685-2.022 0-.905.23-1.608.689-2.108.459-.501 1.062-.751 1.81-.751.654 0 1.184.196 1.592.59.243.232.425.565.547 1l-1.068.26a1.156 1.156 0 0 0-.395-.667 1.12 1.12 0 0 0-.73-.245c-.396 0-.718.145-.964.434-.247.289-.37.758-.37 1.405 0 .687.122 1.177.365 1.469.242.291.558.437.947.437.286 0 .533-.092.74-.278.206-.185.354-.477.444-.875zm1.727-.026c0-.346.083-.681.25-1.005a1.75 1.75 0 0 1 .713-.742 2.09 2.09 0 0 1 1.03-.255c.585 0 1.064.193 1.438.58.374.387.561.876.561 1.467 0 .595-.188 1.09-.566 1.481-.378.392-.853.588-1.426.588-.355 0-.693-.082-1.015-.245a1.663 1.663 0 0 1-.734-.718c-.168-.315-.251-.699-.251-1.151zm1.049.056c0 .39.09.69.273.897a.862.862 0 0 0 .674.312.856.856 0 0 0 .672-.312c.181-.208.271-.51.271-.905 0-.385-.09-.682-.27-.89a.856.856 0 0 0-.673-.311.862.862 0 0 0-.674.311c-.182.208-.273.507-.273.898zm7.264 1.969h-1.024v-2.01c0-.425-.022-.7-.065-.825a.578.578 0 0 0-.213-.291.601.601 0 0 0-.356-.104.81.81 0 0 0-.477.148.746.746 0 0 0-.29.393c-.052.163-.078.465-.078.905v1.784h-1.023v-3.938h.95v.578c.338-.445.763-.667 1.275-.667.226 0 .433.041.62.124.187.083.328.188.424.317.096.128.163.274.2.437.038.164.057.397.057.701v2.448zm2.812-3.938v.83h-.699v1.587c0 .322.007.509.02.562a.229.229 0 0 0 .091.132.285.285 0 0 0 .173.052c.095 0 .232-.034.412-.1l.087.808a2.004 2.004 0 0 1-.808.156 1.27 1.27 0 0 1-.5-.095.73.73 0 0 1-.326-.245.977.977 0 0 1-.144-.406c-.021-.12-.032-.366-.032-.734v-1.717h-.47v-.83h.47v-.783l1.027-.608v1.39h.7zm1.69 3.938h-1.023v-3.938h.951v.56c.163-.265.31-.44.439-.523a.797.797 0 0 1 .443-.126c.233 0 .457.065.674.196l-.317.909c-.173-.114-.333-.17-.481-.17a.562.562 0 0 0-.365.12c-.1.08-.177.225-.235.435-.057.21-.085.65-.085 1.32v1.217zm1.688-2.025c0-.346.083-.681.251-1.005.168-.324.405-.571.712-.742a2.09 2.09 0 0 1 1.03-.255c.585 0 1.064.193 1.438.58.374.387.561.876.561 1.467 0 .595-.188 1.09-.566 1.481-.378.392-.853.588-1.426.588-.355 0-.693-.082-1.015-.245a1.663 1.663 0 0 1-.734-.718c-.168-.315-.251-.699-.251-1.151zm1.049.056c0 .39.09.69.273.897a.862.862 0 0 0 .674.312.856.856 0 0 0 .672-.312c.181-.208.272-.51.272-.905 0-.385-.09-.682-.272-.89a.856.856 0 0 0-.672-.311.862.862 0 0 0-.674.311c-.182.208-.273.507-.273.898zm3.745 1.969v-5.437h1.024v5.437h-1.024zm1.712-1.124l1.028-.16a.769.769 0 0 0 .265.462c.134.105.321.158.562.158.264 0 .463-.05.597-.148a.333.333 0 0 0 .135-.278.276.276 0 0 0-.073-.197c-.051-.05-.165-.095-.343-.137-.825-.186-1.349-.355-1.57-.508a1.02 1.02 0 0 1-.459-.887 1.1 1.1 0 0 1 .397-.86c.265-.232.676-.348 1.232-.348.53 0 .923.087 1.18.263.258.175.435.435.532.779l-.965.181a.608.608 0 0 0-.235-.352c-.116-.082-.28-.122-.494-.122-.27 0-.463.038-.58.115a.248.248 0 0 0-.116.211c0 .074.034.137.102.19.092.068.411.166.956.292.546.126.926.28 1.143.464.213.185.32.443.32.775 0 .36-.148.67-.444.93-.297.26-.735.39-1.315.39-.528 0-.945-.109-1.252-.327a1.504 1.504 0 0 1-.603-.886zm6.62 1.124V51.01h1.078v4.476h2.681v.916h-3.76zm4.557 0V51.01h1.079v4.476h2.68v.916h-3.759zm7.946-1.999l1.045.337c-.16.594-.427 1.034-.8 1.322-.372.288-.845.432-1.418.432-.71 0-1.292-.246-1.749-.74-.457-.493-.685-1.167-.685-2.022 0-.905.23-1.608.689-2.108.459-.501 1.062-.751 1.81-.751.654 0 1.184.196 1.592.59.243.232.425.565.547 1l-1.068.26a1.156 1.156 0 0 0-.395-.667 1.12 1.12 0 0 0-.73-.245c-.396 0-.718.145-.964.434-.247.289-.37.758-.37 1.405 0 .687.122 1.177.365 1.469.242.291.558.437.947.437.286 0 .533-.092.74-.278.206-.185.354-.477.444-.875zm1.963 1.999V55.36h1.024v1.042h-1.024zm7.57-1.999l1.046.337c-.16.594-.427 1.034-.8 1.322-.372.288-.845.432-1.418.432-.71 0-1.292-.246-1.75-.74-.456-.493-.684-1.167-.684-2.022 0-.905.23-1.608.689-2.108.459-.501 1.062-.751 1.81-.751.653 0 1.184.196 1.592.59.243.232.425.565.547 1l-1.068.26a1.156 1.156 0 0 0-.395-.667 1.12 1.12 0 0 0-.73-.245c-.396 0-.718.145-.964.434-.247.289-.37.758-.37 1.405 0 .687.122 1.177.364 1.469.243.291.56.437.948.437.286 0 .533-.092.74-.278.206-.185.354-.477.444-.875zm1.727-.026c0-.346.084-.681.252-1.005.167-.324.405-.571.712-.742a2.09 2.09 0 0 1 1.03-.255c.585 0 1.064.193 1.438.58.374.387.561.876.561 1.467 0 .595-.189 1.09-.566 1.481-.378.392-.853.588-1.426.588-.355 0-.693-.082-1.015-.245a1.663 1.663 0 0 1-.734-.718c-.168-.315-.252-.699-.252-1.151zm1.05.056c0 .39.09.69.273.897a.862.862 0 0 0 .674.312.856.856 0 0 0 .672-.312c.181-.208.271-.51.271-.905 0-.385-.09-.682-.271-.89a.856.856 0 0 0-.672-.311.862.862 0 0 0-.674.311c-.182.208-.273.507-.273.898zm3.668-1.97h.944V53c.337-.418.74-.626 1.206-.626.247 0 .462.051.645.155.182.104.331.261.448.471.17-.21.353-.367.55-.47a1.33 1.33 0 0 1 .63-.156c.284 0 .525.058.721.176.197.117.344.29.441.517.07.168.106.44.106.816v2.518h-1.024V54.15c0-.39-.035-.643-.106-.757-.094-.148-.24-.222-.437-.222a.69.69 0 0 0-.404.133.74.74 0 0 0-.273.392c-.056.171-.084.443-.084.814v1.89h-1.024v-2.157c0-.384-.018-.63-.055-.742a.473.473 0 0 0-.169-.249.528.528 0 0 0-.311-.081.711.711 0 0 0-.698.504c-.055.163-.082.434-.082.812v1.914h-1.024v-3.938zm6.682 0h.954v.58a1.44 1.44 0 0 1 .503-.483c.211-.124.446-.185.703-.185.45 0 .83.179 1.144.537.313.359.47.858.47 1.498 0 .658-.158 1.17-.474 1.534-.315.364-.698.547-1.147.547-.214 0-.408-.044-.581-.13a1.964 1.964 0 0 1-.549-.445V57.9h-1.023v-5.436zm1.012 1.903c0 .442.087.77.26.98.172.212.382.318.63.318a.735.735 0 0 0 .593-.291c.158-.194.237-.513.237-.955 0-.413-.081-.72-.244-.92a.75.75 0 0 0-.605-.3.78.78 0 0 0-.623.295c-.165.196-.248.487-.248.873zm4.34-.701l-.93-.17c.105-.381.285-.663.54-.846.255-.183.633-.274 1.136-.274.457 0 .797.055 1.02.165.224.11.381.25.472.419.091.169.137.48.137.932l-.011 1.217c0 .346.016.6.049.765.033.165.094.34.184.529h-1.013a3.881 3.881 0 0 1-.098-.308 1.898 1.898 0 0 0-.037-.122 1.844 1.844 0 0 1-.56.389c-.2.086-.412.13-.638.13-.399 0-.712-.11-.942-.33a1.107 1.107 0 0 1-.344-.835c0-.222.052-.42.156-.595a1.03 1.03 0 0 1 .44-.4c.188-.093.459-.174.814-.243.478-.092.81-.177.994-.256v-.104c0-.2-.048-.343-.146-.428-.097-.086-.28-.128-.55-.128-.182 0-.324.036-.426.11-.102.072-.184.2-.248.383zm1.37.846a6.307 6.307 0 0 1-.624.159c-.284.062-.47.122-.557.182a.437.437 0 0 0-.2.367c0 .146.053.272.16.378.107.106.243.16.408.16.184 0 .36-.062.528-.186a.652.652 0 0 0 .244-.345c.027-.089.04-.258.04-.508v-.207zm5.533 1.89h-1.024v-2.01c0-.424-.022-.7-.065-.824a.578.578 0 0 0-.213-.291.601.601 0 0 0-.356-.104.81.81 0 0 0-.477.148.746.746 0 0 0-.29.393c-.052.163-.078.465-.078.905v1.784h-1.023v-3.938h.95v.578c.338-.445.763-.667 1.275-.667.226 0 .433.041.62.124.187.083.328.188.424.317.096.128.163.274.2.437.038.164.057.397.057.701v2.448zm.554-3.937h1.089l.925 2.796.904-2.796H215l-1.366 3.79-.244.685c-.09.23-.176.406-.257.527-.081.121-.175.22-.28.295a1.216 1.216 0 0 1-.39.176 1.99 1.99 0 0 1-.523.063c-.197 0-.39-.021-.58-.063l-.09-.816c.16.032.304.048.433.048.238 0 .414-.07.528-.213a1.49 1.49 0 0 0 .263-.543l-1.472-3.95z" fill="#000"/></g></svg>