<?xml version="1.0" encoding="UTF-8"?>
<!DOCTYPE svg PUBLIC "-//W3C//DTD SVG 1.1//EN" "http://www.w3.org/Graphics/SVG/1.1/DTD/svg11.dtd">
<!-- Creator: CorelDRAW X8 -->
<svg xmlns="http://www.w3.org/2000/svg" xml:space="preserve" width="66.1458mm" height="66.1458mm" version="1.1" style="shape-rendering:geometricPrecision; text-rendering:geometricPrecision; image-rendering:optimizeQuality; fill-rule:evenodd; clip-rule:evenodd"
viewBox="0 0 6615 6615"
 xmlns:xlink="http://www.w3.org/1999/xlink">
 <defs>
  <style type="text/css">
   <![CDATA[
    .fil0 {fill:black}
   ]]>
  </style>
 </defs>
 <g id="Слой_x0020_1">
  <metadata id="CorelCorpID_0Corel-Layer"/>
  <g id="_240599240">
   <path class="fil0" d="M7 4369l268 0 0 795c0,262 158,420 364,420 208,0 362,-158 362,-420l0 -795 270 0 0 852c0,331 -249,614 -632,614 -385,0 -632,-283 -632,-614l0 -852z"/>
   <polygon class="fil0" points="2767,5804 2767,4369 2501,4369 2501,5264 1718,4369 1572,4369 1572,5801 1839,5801 1839,4911 2620,5804 "/>
   <polygon class="fil0" points="3087,4369 3363,4369 3363,5801 3087,5801 "/>
   <path class="fil0" d="M5138 5085c0,-421 -344,-762 -769,-762 -425,0 -770,341 -770,762 0,421 344,762 770,762 162,0 312,-50 435,-134l126 126 175 -176 -121 -120c96,-128 154,-286 154,-458zm-769 523c-276,0 -500,-234 -500,-523 0,-288 224,-523 500,-523 276,0 499,235 499,523 0,98 -26,191 -71,270l-165 -165 -176 175 169 169c-75,47 -163,74 -256,74z"/>
   <path class="fil0" d="M6273 5801l296 0 -611 -1432 -185 0 -626 1432 287 0 113 -269 617 0 109 269 0 0zm-628 -505l215 -515 209 515 -424 0 0 0z"/>
   <path class="fil0" d="M2446 3640l-1761 0 183 -328 1037 0c23,20 48,41 72,60 140,106 298,203 469,268l0 0z"/>
   <path class="fil0" d="M2808 3260c-220,-161 -372,-339 -485,-510 -127,-193 -404,-661 -204,-1151 83,-112 194,-205 275,-265 135,-99 231,-144 395,-188 -146,78 -358,311 -335,761 10,211 109,458 211,610 255,390 576,557 908,642 154,39 393,59 702,75 249,14 760,17 849,16l95 1 219 417c0,0 -742,3 -1088,-16 -559,-29 -1079,-55 -1542,-392z"/>
   <path class="fil0" d="M3232 3597c-122,30 -241,43 -350,43 -314,-1 -610,-148 -854,-335 -293,-226 -507,-539 -561,-880 -8,-40 -11,-80 -17,-137 -22,-233 12,-527 176,-809 141,-243 353,-454 701,-600 146,-60 458,-129 819,-33 380,105 711,341 924,650 0,0 -327,-426 -886,-474 -26,-2 -52,-4 -77,-4 -277,-5 -542,89 -762,248 -141,100 -264,226 -360,371 -22,32 -227,334 -233,769 -5,379 166,652 228,744 3,2 160,109 400,155 138,26 292,20 361,10 7,5 12,9 18,13 163,120 334,202 509,258l-36 11 0 0z"/>
   <path class="fil0" d="M4299 2232c26,348 -187,731 -313,900 -166,-14 -297,-31 -392,-55 -48,-12 -96,-27 -143,-43 145,-124 342,-357 437,-679 138,-464 -21,-893 -215,-1093 472,303 609,687 626,970l0 0z"/>
  </g>
 </g>
</svg>
